<svg width="223" height="638" viewBox="0 0 223 638" fill="none" xmlns="http://www.w3.org/2000/svg">
<g opacity="0.3">
<path d="M180.058 2.20001V2.10001C180.058 2.00001 179.958 1.90001 179.958 1.80001C179.958 1.70001 179.858 1.60001 179.858 1.50001C179.858 1.40001 179.758 1.40001 179.758 1.30001C179.758 1.20001 179.658 1.20001 179.658 1.10001C179.658 1.00001 179.558 1.00001 179.558 0.900006C179.458 0.800006 179.458 0.800006 179.359 0.700006C179.259 0.600006 179.259 0.600006 179.159 0.500006C178.959 0.300006 178.759 0.200006 178.46 0.200006C178.36 0.200006 178.36 0.200006 178.26 0.100006C178.16 0.100006 178.16 0.100006 178.06 0.100006C177.861 0.100006 177.761 0.100006 177.561 0.100006C177.461 0.100006 177.261 0.100006 177.161 0.100006C177.062 0.100006 176.862 0.200006 176.762 0.200006L110.751 23.9C109.952 24.2 109.253 24.9 109.153 25.8C108.953 26.7 109.353 27.6 110.052 28.2L126.729 42L125.631 53.9C125.531 54.9 126.03 55.8 126.929 56.3C127.329 56.5 127.728 56.6 128.127 56.6C128.627 56.6 129.226 56.4 129.625 56.1L136.916 50.4L147.901 59.5C148.4 59.9 148.899 60.1 149.499 60.1C149.698 60.1 149.798 60.1 149.998 60.1C150.697 59.9 151.396 59.5 151.696 58.8L179.758 3.80001C179.758 3.70001 179.858 3.60001 179.858 3.50001C179.958 3.20001 180.058 2.90001 180.058 2.60001C180.058 2.40001 180.058 2.30001 180.058 2.20001ZM116.543 27.1L164.079 10L129.226 37.6L116.543 27.1ZM131.123 48.5L131.423 45.7L133.021 47L131.123 48.5ZM148.7 53.6L133.221 40.8L170.071 11.6L148.7 53.6Z" fill="#FF778D"/>
<path d="M179.559 1.00002C179.559 1.00002 179.559 0.900018 179.559 1.00002C179.459 0.900018 179.559 0.900018 179.559 1.00002Z" fill="#FF778D"/>
<path d="M126.73 58.1C123.833 55.5 119.839 56.2 118.64 56.5C117.642 56.7 116.743 57 115.844 57.4C116.643 54.7 118.64 52.9 118.74 52.8C119.739 51.9 119.839 50.3 118.94 49.3C118.041 48.3 116.443 48.2 115.445 49.1C114.846 49.6 109.653 54.4 110.651 61.3V61.4C107.855 64.6 106.357 68.5 105.758 70.1C105.258 71.4 105.957 72.8 107.256 73.3C107.555 73.4 107.755 73.4 108.055 73.4C109.053 73.4 110.052 72.7 110.451 71.7C110.651 71 111.45 69 112.748 66.9C114.047 68.9 115.944 70.6 118.441 71.2C121.736 72.1 126.03 71.5 128.228 68.1C130.225 65.2 129.626 60.7 126.73 58.1ZM124.033 65.6C123.134 67.1 120.638 66.8 119.839 66.5C118.041 66 116.943 64.5 116.344 62.9C117.342 62.1 118.441 61.6 119.639 61.3C120.438 61.1 122.435 60.7 123.434 61.7C124.333 62.7 124.732 64.5 124.033 65.6Z" fill="#FF778D"/>
<path d="M98.3676 85.4C97.7684 85.4 97.1692 85.2 96.6698 84.7C95.6712 83.8 95.5713 82.2 96.4701 81.2C98.2677 79.3 99.2664 78.3 99.2664 78.2C100.265 77.2 101.863 77.2 102.762 78.2C103.76 79.2 103.76 80.8 102.762 81.7C102.762 81.7 101.763 82.7 100.065 84.5C99.7657 85.1 99.0666 85.4 98.3676 85.4Z" fill="#FF778D"/>
<path d="M208.719 630.3C208.22 630.3 207.721 630.2 207.321 629.9C205.124 628.4 202.827 626.9 200.73 625.4C199.631 624.6 199.332 623.1 200.031 621.9C200.83 620.8 202.328 620.5 203.526 621.2C205.723 622.7 207.92 624.2 210.117 625.7C211.216 626.5 211.615 628 210.816 629.2C210.317 629.9 209.518 630.3 208.719 630.3ZM193.839 620.1C193.34 620.1 192.841 620 192.441 619.6C190.244 618.1 188.047 616.5 185.95 615C184.851 614.2 184.552 612.6 185.351 611.5C186.15 610.4 187.747 610.1 188.846 610.9C190.943 612.4 193.14 614 195.337 615.5C196.436 616.3 196.735 617.9 195.936 619C195.437 619.8 194.638 620.1 193.839 620.1ZM179.259 609.6C178.76 609.6 178.26 609.4 177.761 609.1C175.564 607.5 173.467 605.9 171.369 604.3C170.271 603.5 170.071 601.9 170.87 600.8C171.669 599.7 173.267 599.5 174.365 600.3C176.463 601.9 178.56 603.5 180.757 605.1C181.855 605.9 182.055 607.5 181.256 608.6C180.857 609.3 180.058 609.6 179.259 609.6ZM164.978 598.8C164.479 598.8 163.88 598.6 163.48 598.3C161.383 596.6 159.286 595 157.189 593.3C156.09 592.4 155.89 590.9 156.789 589.8C157.688 588.7 159.186 588.5 160.284 589.4C162.382 591 164.479 592.7 166.576 594.3C167.674 595.1 167.874 596.7 166.975 597.8C166.476 598.5 165.677 598.8 164.978 598.8ZM150.897 587.6C150.298 587.6 149.798 587.4 149.299 587C147.202 585.3 145.205 583.6 143.107 581.9C142.009 581 141.909 579.4 142.808 578.4C143.707 577.3 145.305 577.2 146.303 578.1C148.3 579.8 150.398 581.5 152.395 583.2C153.494 584.1 153.593 585.7 152.695 586.7C152.395 587.3 151.696 587.6 150.897 587.6ZM137.215 576C136.616 576 136.017 575.8 135.618 575.4C133.62 573.6 131.623 571.9 129.626 570.1C128.627 569.2 128.527 567.6 129.426 566.6C130.325 565.6 131.923 565.5 132.921 566.4C134.919 568.2 136.916 569.9 138.913 571.7C139.912 572.6 140.112 574.2 139.113 575.2C138.614 575.7 137.914 576 137.215 576ZM123.833 564C123.234 564 122.635 563.8 122.136 563.3C120.138 561.5 118.241 559.6 116.343 557.8C115.345 556.8 115.345 555.3 116.244 554.3C117.242 553.3 118.74 553.3 119.739 554.2C121.636 556 123.534 557.8 125.531 559.7C126.53 560.6 126.63 562.2 125.631 563.2C125.232 563.7 124.532 564 123.833 564ZM110.851 551.5C110.252 551.5 109.553 551.3 109.053 550.8C107.156 548.9 105.258 547 103.361 545.1C102.362 544.1 102.462 542.5 103.361 541.6C104.36 540.6 105.957 540.7 106.856 541.6C108.654 543.5 110.551 545.4 112.449 547.2C113.447 548.2 113.447 549.8 112.449 550.7C112.149 551.3 111.55 551.5 110.851 551.5ZM98.3677 538.6C97.6686 538.6 97.0694 538.3 96.5701 537.8C94.7725 535.9 92.8751 533.9 91.0775 531.9C90.1787 530.9 90.1787 529.3 91.2772 528.4C92.2759 527.5 93.8737 527.5 94.7725 528.6C96.5701 530.5 98.3677 532.5 100.165 534.4C101.064 535.4 101.064 537 100.065 537.9C99.5661 538.4 98.9669 538.6 98.3677 538.6ZM86.2839 525.3C85.5849 525.3 84.8858 525 84.3865 524.4C82.6888 522.4 80.8912 520.3 79.1935 518.3C78.2947 517.2 78.4944 515.7 79.4931 514.8C80.5916 513.9 82.0896 514.1 82.9884 515.1C84.6861 517.1 86.3838 519.2 88.1814 521.1C89.0802 522.1 88.9803 523.7 87.9816 524.6C87.4823 525.1 86.8831 525.3 86.2839 525.3ZM74.7994 511.5C74.1003 511.5 73.3014 511.2 72.8021 510.6C71.1043 508.5 69.4066 506.4 67.8088 504.3C67.0099 503.2 67.2096 501.6 68.3081 500.8C69.4066 500 71.0045 500.2 71.8034 501.3C73.4013 503.4 74.9991 505.5 76.6968 507.6C77.5956 508.7 77.3959 510.3 76.2974 511.1C75.8979 511.3 75.3986 511.5 74.7994 511.5ZM63.914 497.2C63.1151 497.2 62.416 496.8 61.9167 496.2C60.3189 494 58.8209 491.8 57.223 489.6C56.4241 488.5 56.7237 486.9 57.8222 486.1C58.9207 485.3 60.5186 485.6 61.3175 486.7C62.8155 488.9 64.4133 491 65.9113 493.2C66.7103 494.3 66.5105 495.9 65.412 496.7C64.9127 497 64.4133 497.2 63.914 497.2ZM53.7277 482.4C52.9288 482.4 52.1299 482 51.6305 481.3C50.1326 479 48.7344 476.8 47.3363 474.5C46.6373 473.3 46.9369 471.8 48.1352 471.1C49.3336 470.4 50.8316 470.7 51.5307 471.9C52.9288 474.1 54.3269 476.4 55.8249 478.6C56.6238 479.8 56.2244 481.3 55.1258 482.1C54.6265 482.3 54.227 482.4 53.7277 482.4ZM44.2405 467.1C43.3417 467.1 42.5428 466.7 42.0434 465.9C40.6453 463.6 39.3471 461.2 38.0488 458.9C37.3498 457.7 37.8491 456.2 39.0475 455.5C40.2459 454.8 41.7438 455.3 42.4429 456.5C43.7412 458.8 45.0394 461.1 46.3377 463.4C47.0367 464.6 46.6373 466.1 45.4389 466.8C45.0394 467 44.6399 467.1 44.2405 467.1ZM35.5522 451.4C34.6534 451.4 33.7546 450.9 33.3551 450C32.1567 447.6 30.9584 445.2 29.76 442.8C29.1608 441.6 29.6601 440.1 30.9584 439.5C32.1567 438.9 33.6547 439.4 34.2539 440.7C35.4523 443.1 36.5508 445.4 37.8491 447.8C38.4483 449 38.0488 450.5 36.7506 451.2C36.3511 451.3 35.9516 451.4 35.5522 451.4ZM27.7627 435.2C26.764 435.2 25.8652 434.6 25.4657 433.7C24.3672 431.2 23.2687 428.8 22.27 426.3C21.7707 425 22.3699 423.6 23.5683 423C24.8665 422.5 26.2647 423.1 26.8639 424.3C27.8625 426.7 28.961 429.2 29.9597 431.6C30.5589 432.9 29.9597 434.3 28.6614 434.9C28.3618 435.1 28.0622 435.2 27.7627 435.2ZM20.8719 418.6C19.8733 418.6 18.8746 418 18.575 417C17.5764 414.5 16.6776 411.9 15.7788 409.4C15.2794 408.1 15.9785 406.7 17.2768 406.2C18.575 405.7 19.9731 406.4 20.4725 407.7C21.3712 410.2 22.27 412.7 23.1688 415.1C23.6682 416.4 22.9691 417.8 21.6708 418.3C21.4711 418.5 21.1715 418.6 20.8719 418.6ZM14.9798 401.6C13.8813 401.6 12.8827 400.9 12.5831 399.8C11.7841 397.2 10.9852 394.6 10.2862 392.1C9.8867 390.8 10.6856 389.4 11.9839 389C13.2821 388.6 14.6803 389.4 15.0797 390.7C15.7788 393.2 16.5777 395.8 17.2768 398.3C17.6762 399.6 16.9772 401 15.6789 401.4C15.4792 401.6 15.2794 401.6 14.9798 401.6ZM10.1863 384.3C9.08777 384.3 7.98925 383.5 7.78952 382.4C7.19033 379.8 6.59113 377.2 5.99194 374.5C5.69234 373.1 6.59113 371.8 7.88939 371.5C9.18764 371.2 10.5858 372.1 10.8854 373.4C11.3847 376 11.9839 378.6 12.6829 381.1C12.9825 382.4 12.1836 383.8 10.8854 384.1C10.5858 384.2 10.386 384.3 10.1863 384.3ZM6.59113 366.7C5.39275 366.7 4.39409 365.8 4.09449 364.6C3.59516 362 3.1957 359.3 2.79624 356.6C2.59651 355.2 3.4953 354 4.89342 353.8C6.29154 353.6 7.48992 354.5 7.68965 355.9C8.08912 358.5 8.48858 361.1 8.88804 363.7C9.08777 365.1 8.18898 366.4 6.89073 366.6C6.89073 366.6 6.691 366.7 6.59113 366.7ZM4.09449 348.9C2.79624 348.9 1.79758 347.9 1.59785 346.7C1.29825 344 1.09852 341.3 0.798925 338.7C0.69906 337.3 1.69772 336.1 3.09584 336C4.49395 335.9 5.69234 336.9 5.79221 338.3C5.99194 340.9 6.29154 343.6 6.49127 346.2C6.59113 347.6 5.69234 348.8 4.29422 349C4.29422 348.8 4.19436 348.9 4.09449 348.9ZM2.69637 330.9C1.39812 330.9 0.299597 329.9 0.199731 328.5C0.0998657 325.8 0 323.1 0 320.4C0 319 1.09852 317.9 2.49664 317.9C3.89476 317.9 4.99328 319 4.99328 320.4C4.99328 323 5.09315 325.7 5.19301 328.3C5.29288 329.7 4.19436 330.8 2.79624 330.9C2.79624 330.9 2.79624 330.9 2.69637 330.9ZM2.49664 312.9C1.09852 312.9 0 311.7 0 310.3C0.0998657 307.6 0.199731 304.9 0.299597 302.2C0.399463 300.8 1.49798 299.8 2.8961 299.8C4.29422 299.9 5.29288 301 5.29288 302.4C5.19301 305 5.09315 307.7 4.99328 310.3C4.99328 311.9 3.89476 312.9 2.49664 312.9ZM3.4953 295C3.39543 295 3.39543 295 3.29557 295C1.89745 294.9 0.898791 293.7 0.998657 292.3C1.19839 289.6 1.49798 286.9 1.79758 284.3C1.99731 282.9 3.1957 281.9 4.59382 282.1C5.99194 282.3 6.9906 283.5 6.79086 284.9C6.49127 287.5 6.19167 290.2 5.99194 292.8C5.89207 294 4.79355 295 3.4953 295ZM5.59248 277.1C5.49261 277.1 5.39274 277.1 5.19301 277.1C3.79489 276.9 2.8961 275.6 3.09584 274.3C3.4953 271.7 3.89476 269 4.39409 266.3C4.59382 264.9 5.89207 264 7.29019 264.3C8.68831 264.5 9.5871 265.8 9.28751 267.2C8.88804 269.8 8.38871 272.4 7.98925 275C7.78952 276.2 6.79086 277.1 5.59248 277.1ZM8.68831 259.4C8.48858 259.4 8.38871 259.4 8.18898 259.3C6.79086 259 5.99194 257.7 6.29154 256.3C6.79086 253.7 7.39006 251 7.98925 248.4C8.28885 247.1 9.68697 246.2 10.9852 246.5C12.2835 246.8 13.1823 248.2 12.8827 249.5C12.2835 252.1 11.6843 254.7 11.185 257.2C10.8854 258.6 9.78683 259.4 8.68831 259.4ZM12.7828 241.9C12.5831 241.9 12.3833 241.9 12.1836 241.8C10.8854 241.4 10.0864 240.1 10.386 238.7C11.0851 236.1 11.7841 233.5 12.5831 230.9C12.9825 229.6 14.3807 228.8 15.6789 229.2C16.9772 229.6 17.7761 231 17.3766 232.3C16.6776 234.8 15.8786 237.4 15.2794 239.9C14.88 241.2 13.8813 241.9 12.7828 241.9ZM17.876 224.6C17.5764 224.6 17.3766 224.6 17.077 224.5C15.7788 224.1 15.0797 222.7 15.4792 221.4C16.2781 218.9 17.1769 216.3 18.0757 213.8C18.575 212.5 19.9731 211.8 21.2714 212.3C22.5696 212.8 23.2687 214.2 22.7694 215.5C21.8706 218 21.0717 220.5 20.2727 223C19.9731 224 18.9745 224.6 17.876 224.6ZM23.8679 207.7C23.5683 207.7 23.2687 207.6 22.9691 207.5C21.6708 207 21.0717 205.6 21.571 204.3C22.5696 201.8 23.4684 199.3 24.567 196.8C25.0663 195.5 26.5643 194.9 27.8625 195.4C29.1608 195.9 29.76 197.4 29.2606 198.7C28.262 201.1 27.2633 203.6 26.3645 206.1C25.8652 207.1 24.8665 207.7 23.8679 207.7ZM30.6588 191C30.3592 191 29.9597 190.9 29.6601 190.8C28.3618 190.2 27.8625 188.8 28.3618 187.5C29.4604 185.1 30.5589 182.6 31.6574 180.2C32.2566 178.9 33.7546 178.4 34.953 179C36.2512 179.6 36.7506 181.1 36.1514 182.3C35.0528 184.7 33.9543 187.1 32.8558 189.5C32.5562 190.5 31.6574 191 30.6588 191ZM38.3484 174.7C37.9489 174.7 37.5495 174.6 37.2499 174.4C36.0515 173.8 35.5522 172.3 36.1514 171C37.3498 168.6 38.5481 166.2 39.7465 163.8C40.3457 162.6 41.8437 162.1 43.142 162.7C44.3403 163.3 44.8397 164.8 44.2405 166.1C43.0421 168.4 41.8437 170.8 40.6453 173.2C40.146 174.2 39.2472 174.7 38.3484 174.7ZM46.6373 158.8C46.2378 158.8 45.8383 158.7 45.4389 158.5C44.2405 157.8 43.841 156.3 44.4402 155.1C45.7385 152.8 47.0367 150.4 48.4348 148.1C49.1339 146.9 50.6319 146.5 51.8303 147.2C53.0287 147.9 53.4281 149.4 52.7291 150.6C51.4308 152.9 50.1326 155.2 48.8343 157.5C48.335 158.3 47.5361 158.8 46.6373 158.8ZM55.725 143.2C55.3256 143.2 54.8262 143.1 54.4268 142.8C53.2284 142.1 52.9288 140.5 53.6279 139.4C55.026 137.1 56.4241 134.8 57.9221 132.6C58.6211 131.4 60.219 131.1 61.4174 131.8C62.6158 132.5 62.9154 134.1 62.2163 135.3C60.8182 137.5 59.4201 139.8 58.0219 142C57.3229 142.8 56.524 143.2 55.725 143.2ZM65.412 128.1C64.9127 128.1 64.4133 128 64.0139 127.7C62.9154 126.9 62.5159 125.4 63.3148 124.2C64.8128 122 66.3108 119.7 67.8088 117.6C68.6077 116.5 70.2056 116.2 71.3041 117C72.4026 117.8 72.7022 119.3 71.9033 120.5C70.4053 122.6 68.9073 124.9 67.4093 127.1C67.0099 127.7 66.2109 128.1 65.412 128.1ZM75.6982 113.3C75.1988 113.3 74.6995 113.1 74.2002 112.8C73.1017 112 72.8021 110.4 73.7009 109.3C75.2987 107.1 76.8965 105 78.4944 102.9C79.2933 101.8 80.8912 101.6 81.9897 102.4C83.0882 103.2 83.288 104.8 82.489 105.9C80.8912 108 79.2933 110.1 77.6955 112.3C77.296 113 76.4971 113.3 75.6982 113.3ZM86.6834 99.1C86.0842 99.1 85.5849 98.9 85.0855 98.5C83.987 97.6 83.8871 96.1 84.6861 95C86.3838 92.9 88.0815 90.8 89.7792 88.8C90.678 87.7 92.2759 87.6 93.2745 88.5C94.373 89.4 94.4729 91 93.5741 92C91.8764 94 90.1787 96 88.481 98.1C88.1814 98.8 87.4823 99.1 86.6834 99.1Z" fill="#FF778D"/>
<path d="M220.503 638C220.004 638 219.605 637.9 219.105 637.6C218.007 636.9 216.808 636.1 215.71 635.4C214.511 634.6 214.212 633.1 215.011 631.9C215.81 630.7 217.308 630.4 218.506 631.2C219.605 631.9 220.703 632.6 221.802 633.4C223 634.1 223.3 635.7 222.501 636.9C222.101 637.6 221.302 638 220.503 638Z" fill="#FF778D"/>
</g>
</svg>
