<svg width="90" height="37" viewBox="0 0 90 37" fill="none" xmlns="http://www.w3.org/2000/svg">
<path d="M89.0749 0.190071C85.4336 2.43364 81.6684 4.75383 77.8257 6.576C76.4454 7.23059 75.0134 7.76191 73.6308 8.27825C71.5205 9.06108 69.3392 9.87224 67.338 11.1231C67.2953 11.1498 67.1951 11.2064 67.2356 11.5012C67.2705 11.7444 67.4021 12.0009 67.5562 12.0009C72.3799 11.8943 78.2745 9.43751 85.5787 4.489L87.896 2.92L86.1355 5.64993C82.8732 10.7284 78.7819 16.513 73.1989 20.9169C67.3166 25.5622 60.4197 29.0434 52.1189 31.5651C36.5994 36.2754 19.0686 37.2764 0 34.5432C18.4881 38.4174 37.1 37.6995 53.8592 32.4612C63.8507 29.3382 77.468 22.8773 85.6 9.81727L87.2874 7.11233L86.4257 10.5635C85.4032 14.6609 84.3671 19.0581 83.7259 23.4802C85.5089 18.6283 86.8757 13.1768 88.1986 7.90516C88.7701 5.62161 89.3618 3.26311 89.9805 0.992893C90.0446 0.753048 89.9411 0.456566 89.8084 0.263359C89.6959 0.0967979 89.4979 -0.069767 89.337 0.0301704L89.0749 0.190071Z" fill="#262E33"/>
</svg>
