<svg width="324" height="553" viewBox="0 0 324 553" fill="none" xmlns="http://www.w3.org/2000/svg">
<g opacity="0.3">
<path d="M90.8265 1.05918L90.8265 1.00875C90.8265 0.958317 90.7761 0.907884 90.7762 0.857452C90.7762 0.80702 90.7258 0.756588 90.7258 0.706156C90.7258 0.655724 90.6755 0.655724 90.6755 0.605291C90.6755 0.554859 90.6251 0.554859 90.6251 0.504427C90.6251 0.453995 90.5748 0.453995 90.5748 0.403563C90.5244 0.35313 90.5244 0.35313 90.4741 0.302698C90.4237 0.252266 90.4237 0.252266 90.3734 0.201834C90.2727 0.100969 90.172 0.0505368 90.0209 0.0505363C89.9706 0.0505362 89.9706 0.0505362 89.9202 0.000103925C89.8699 0.000103775 89.8699 0.000103775 89.8195 0.000103625C89.7188 0.000103325 89.6684 0.000103175 89.5677 0.000102875C89.5174 0.000102724 89.4167 0.000102424 89.3663 0.000102274C89.316 0.000102124 89.2152 0.0505339 89.1649 0.0505338L55.8782 12.0028C55.4754 12.1541 55.1228 12.5072 55.0724 12.9611C54.9716 13.4149 55.173 13.8688 55.5254 14.1714L63.9339 21.1311L63.3792 27.1325C63.3287 27.6368 63.5805 28.0907 64.0336 28.3429C64.235 28.4437 64.4364 28.4942 64.6379 28.4942C64.8896 28.4942 65.1918 28.3933 65.3932 28.242L69.0696 25.3674L74.6081 29.9567C74.8598 30.1585 75.1116 30.2593 75.4137 30.2593C75.5144 30.2593 75.5648 30.2593 75.6655 30.2593C76.018 30.1585 76.3705 29.9567 76.5216 29.6037L90.6753 1.86609C90.6753 1.81566 90.7257 1.76523 90.7257 1.7148C90.7761 1.5635 90.8264 1.41221 90.8265 1.26091C90.8265 1.16005 90.8265 1.10961 90.8265 1.05918ZM58.7986 13.6167L82.7691 4.99286L65.1931 18.9121L58.7986 13.6167ZM66.1491 24.4092L66.3003 22.9971L67.1059 23.6527L66.1491 24.4092ZM75.0113 26.9812L67.2071 20.5259L85.7903 5.79978L75.0113 26.9812Z" fill="#FF778D"/>
<path d="M90.5769 0.458065C90.5769 0.458065 90.5769 0.405905 90.5769 0.458065C90.5247 0.405906 90.5769 0.405905 90.5769 0.458065Z" fill="#FF778D"/>
<path d="M63.9332 29.2479C62.4731 27.9367 60.4589 28.2897 59.8546 28.441C59.3511 28.5419 58.8979 28.6931 58.4446 28.8949C58.8477 27.5332 59.8549 26.6255 59.9052 26.575C60.4088 26.1212 60.4593 25.3143 60.0062 24.81C59.5531 24.3056 58.7474 24.2552 58.2438 24.7091C57.9416 24.9612 55.3229 27.3819 55.8259 30.8617L55.8259 30.9121C54.4158 32.5259 53.6602 34.4927 53.358 35.2996C53.1061 35.9552 53.4585 36.6612 54.1131 36.9134C54.2641 36.9638 54.3648 36.9638 54.5159 36.9638C55.0194 36.9638 55.523 36.6108 55.7245 36.1065C55.8253 35.7535 56.2282 34.7449 56.883 33.6858C57.5375 34.6944 58.4941 35.5518 59.7529 35.8544C61.4145 36.3082 63.5798 36.0057 64.6879 34.291C65.6951 32.8285 65.3933 30.5591 63.9332 29.2479ZM62.5731 33.0302C62.1198 33.7867 60.861 33.6354 60.4582 33.4841C59.5518 33.2319 58.998 32.4755 58.696 31.6686C59.1996 31.2651 59.7536 31.013 60.3578 30.8617C60.7607 30.7608 61.7678 30.5591 62.2713 31.0634C62.7244 31.5677 62.9257 32.4755 62.5731 33.0302Z" fill="#FF778D"/>
<path d="M49.6304 43.0142C49.3283 43.0143 49.0263 42.9134 48.7745 42.6613C48.2711 42.2074 48.2209 41.4004 48.6741 40.896C49.5806 39.9377 50.0842 39.4333 50.0842 39.3829C50.5878 38.8785 51.3934 38.8784 51.8465 39.3827C52.3499 39.887 52.3497 40.6939 51.8462 41.1479C51.8462 41.1479 51.3426 41.6523 50.4865 42.5602C50.3354 42.8629 49.9829 43.0142 49.6304 43.0142Z" fill="#FF778D"/>
<path d="M105.23 317.794C104.979 317.794 104.727 317.743 104.526 317.592C103.418 316.836 102.26 316.079 101.203 315.323C100.649 314.92 100.498 314.163 100.851 313.558C101.254 313.003 102.009 312.852 102.613 313.205C103.721 313.961 104.828 314.717 105.936 315.474C106.489 315.877 106.691 316.634 106.288 317.239C106.036 317.592 105.633 317.794 105.23 317.794ZM97.7294 312.65C97.4776 312.65 97.2259 312.6 97.0246 312.398C95.917 311.642 94.8095 310.835 93.7523 310.079C93.1985 309.676 93.0476 308.869 93.4505 308.314C93.8534 307.759 94.659 307.608 95.2127 308.011C96.2699 308.768 97.3775 309.574 98.485 310.331C99.0387 310.734 99.1897 311.541 98.7868 312.096C98.535 312.499 98.1322 312.65 97.7294 312.65ZM90.3794 307.356C90.1277 307.356 89.876 307.255 89.6243 307.104C88.5167 306.297 87.4596 305.49 86.4024 304.684C85.8486 304.28 85.7481 303.473 86.1509 302.919C86.5538 302.364 87.3594 302.263 87.9132 302.666C88.9703 303.473 90.0275 304.28 91.135 305.087C91.6888 305.49 91.7894 306.297 91.3865 306.852C91.185 307.205 90.7822 307.356 90.3794 307.356ZM83.1806 301.91C82.9288 301.91 82.6267 301.81 82.4254 301.658C81.3682 300.801 80.311 299.994 79.2539 299.137C78.7001 298.683 78.5995 297.927 79.0528 297.372C79.506 296.817 80.2612 296.716 80.815 297.17C81.8722 297.977 82.9293 298.834 83.9865 299.641C84.5403 300.044 84.6408 300.851 84.1876 301.406C83.9358 301.759 83.533 301.91 83.1806 301.91ZM76.0824 296.263C75.7803 296.263 75.5286 296.162 75.2769 295.96C74.2197 295.103 73.2129 294.246 72.1557 293.389C71.602 292.935 71.5518 292.128 72.005 291.624C72.4582 291.069 73.2638 291.018 73.7672 291.472C74.774 292.329 75.8312 293.187 76.838 294.044C77.3918 294.498 77.442 295.305 76.9887 295.809C76.8377 296.111 76.4852 296.263 76.0824 296.263ZM69.1857 290.414C68.8836 290.414 68.5815 290.313 68.3802 290.111C67.3734 289.203 66.3665 288.346 65.3597 287.439C64.8563 286.985 64.8061 286.178 65.2593 285.674C65.7125 285.169 66.5181 285.119 67.0215 285.573C68.0283 286.48 69.0352 287.337 70.042 288.245C70.5454 288.699 70.6459 289.506 70.1424 290.01C69.8906 290.262 69.5381 290.414 69.1857 290.414ZM62.44 284.363C62.138 284.363 61.8359 284.262 61.5842 284.01C60.5774 283.102 59.6209 282.144 58.6644 281.236C58.1611 280.732 58.1612 279.976 58.6144 279.471C59.118 278.967 59.8732 278.967 60.3766 279.421C61.333 280.328 62.2895 281.236 63.2963 282.194C63.7997 282.648 63.8499 283.455 63.3464 283.959C63.1449 284.211 62.7925 284.363 62.44 284.363ZM55.8958 278.06C55.5937 278.06 55.2413 277.959 54.9896 277.707C54.0332 276.749 53.0767 275.79 52.1203 274.832C51.6169 274.328 51.6673 273.521 52.1205 273.067C52.6241 272.563 53.4297 272.613 53.8827 273.067C54.7888 274.025 55.7453 274.983 56.7018 275.891C57.2052 276.395 57.205 277.202 56.7015 277.656C56.5504 277.959 56.2483 278.06 55.8958 278.06ZM49.6034 271.555C49.251 271.555 48.9489 271.403 48.6972 271.151C47.7911 270.193 46.8346 269.185 45.9285 268.176C45.4755 267.672 45.4756 266.865 46.0295 266.411C46.5331 265.957 47.3387 265.957 47.7917 266.512C48.6978 267.47 49.6039 268.478 50.51 269.437C50.9631 269.941 50.9629 270.748 50.4594 271.202C50.2076 271.454 49.9055 271.555 49.6034 271.555ZM43.5124 264.848C43.1599 264.848 42.8075 264.697 42.5558 264.394C41.7001 263.386 40.794 262.327 39.9382 261.318C39.4852 260.764 39.586 260.007 40.0896 259.553C40.6435 259.099 41.3987 259.2 41.8517 259.704C42.7075 260.713 43.5632 261.772 44.4693 262.73C44.9224 263.234 44.8719 264.041 44.3684 264.495C44.1166 264.747 43.8145 264.848 43.5124 264.848ZM37.7235 257.889C37.3711 257.889 36.9683 257.738 36.7166 257.436C35.8609 256.377 35.0051 255.318 34.1997 254.259C33.797 253.704 33.8979 252.897 34.4518 252.494C35.0057 252.09 35.8112 252.191 36.2139 252.746C37.0193 253.805 37.8247 254.864 38.6804 255.922C39.1335 256.477 39.0326 257.284 38.4788 257.688C38.2773 257.788 38.0256 257.889 37.7235 257.889ZM32.2367 250.678C31.834 250.678 31.4816 250.477 31.2299 250.174C30.4245 249.065 29.6694 247.955 28.8641 246.846C28.4614 246.291 28.6125 245.484 29.1664 245.081C29.7203 244.677 30.5259 244.829 30.9286 245.383C31.6836 246.493 32.489 247.552 33.244 248.661C33.6467 249.216 33.5459 250.023 32.992 250.426C32.7402 250.577 32.4885 250.678 32.2367 250.678ZM27.1025 243.215C26.6997 243.215 26.2969 243.014 26.0453 242.661C25.2902 241.501 24.5855 240.391 23.8809 239.232C23.5285 238.626 23.6797 237.87 24.2839 237.517C24.8882 237.164 25.6433 237.315 25.9957 237.92C26.7004 239.03 27.4051 240.189 28.1601 241.299C28.5628 241.904 28.3613 242.66 27.8074 243.064C27.5556 243.165 27.3542 243.215 27.1025 243.215ZM22.3207 235.5C21.8675 235.5 21.4648 235.298 21.2131 234.895C20.5084 233.735 19.8541 232.525 19.1998 231.365C18.8474 230.76 19.0993 230.003 19.7035 229.65C20.3078 229.297 21.063 229.549 21.4153 230.154C22.0696 231.314 22.724 232.474 23.3783 233.634C23.7306 234.239 23.5291 234.995 22.9249 235.349C22.7235 235.449 22.5221 235.5 22.3207 235.5ZM17.9417 227.583C17.4886 227.583 17.0355 227.331 16.8342 226.877C16.2302 225.667 15.6262 224.456 15.0222 223.246C14.7202 222.641 14.9721 221.885 15.6267 221.582C16.2309 221.279 16.9861 221.531 17.2881 222.187C17.892 223.397 18.4457 224.557 19.1 225.767C19.402 226.372 19.2005 227.129 18.5459 227.482C18.3445 227.532 18.1431 227.583 17.9417 227.583ZM14.0159 219.414C13.5124 219.414 13.0593 219.111 12.858 218.657C12.3044 217.397 11.7508 216.186 11.2475 214.926C10.9959 214.27 11.2981 213.564 11.9023 213.261C12.5569 213.009 13.2617 213.312 13.5637 213.917C14.0669 215.127 14.6206 216.388 15.1239 217.598C15.4258 218.253 15.1236 218.96 14.4691 219.262C14.318 219.363 14.1669 219.414 14.0159 219.414ZM10.5433 211.042C10.0398 211.043 9.53634 210.74 9.38538 210.236C8.88211 208.975 8.42919 207.664 7.97627 206.403C7.72464 205.748 8.07719 205.042 8.73176 204.789C9.38632 204.537 10.0911 204.89 10.3428 205.546C10.7957 206.806 11.2486 208.067 11.7016 209.277C11.9532 209.933 11.6006 210.639 10.9461 210.891C10.8454 210.992 10.6943 211.042 10.5433 211.042ZM7.57413 202.47C7.0203 202.47 6.51688 202.117 6.36593 201.562C5.96336 200.251 5.56079 198.94 5.20856 197.679C5.00728 197.023 5.41018 196.317 6.06474 196.116C6.7193 195.914 7.4241 196.317 7.62539 196.973C7.97762 198.234 8.38018 199.545 8.73241 200.805C8.9337 201.461 8.58114 202.167 7.92659 202.369C7.82587 202.47 7.72518 202.47 7.57413 202.47ZM5.15886 193.746C4.60503 193.746 4.05127 193.342 3.95067 192.787C3.64879 191.476 3.34692 190.165 3.04506 188.804C2.89413 188.098 3.34737 187.442 4.00192 187.291C4.65647 187.139 5.36127 187.593 5.51221 188.249C5.76373 189.56 6.0656 190.871 6.41783 192.132C6.56877 192.787 6.16587 193.493 5.51132 193.645C5.36026 193.695 5.25956 193.745 5.15886 193.746ZM3.34779 184.87C2.74362 184.87 2.24021 184.416 2.08927 183.811C1.83774 182.5 1.63658 181.138 1.43541 179.777C1.33483 179.071 1.78806 178.466 2.49295 178.365C3.19784 178.264 3.80194 178.717 3.90252 179.424C4.1037 180.735 4.30487 182.046 4.50605 183.357C4.60663 184.063 4.15339 184.719 3.49885 184.82C3.49885 184.82 3.39814 184.87 3.34779 184.87ZM2.09057 175.894C1.43605 175.894 0.93265 175.389 0.832053 174.784C0.681234 173.423 0.580762 172.061 0.429934 170.75C0.379702 170.044 0.883283 169.439 1.58816 169.388C2.29305 169.338 2.89714 169.842 2.94737 170.548C3.04785 171.859 3.19867 173.221 3.29915 174.532C3.34938 175.238 2.89615 175.843 2.19126 175.944C2.19128 175.843 2.14092 175.894 2.09057 175.894ZM1.3872 166.816C0.732671 166.816 0.178925 166.312 0.128694 165.606C0.0785701 164.244 0.0284465 162.883 0.028671 161.521C0.0287874 160.815 0.582708 160.26 1.28758 160.26C1.99245 160.26 2.54619 160.815 2.54608 161.521C2.54586 162.832 2.59598 164.194 2.64611 165.505C2.69635 166.211 2.14243 166.766 1.43754 166.816C1.43754 166.816 1.43754 166.816 1.3872 166.816ZM1.288 157.739C0.583124 157.739 0.0293944 157.134 0.0295108 156.428C0.0800834 155.066 0.130656 153.705 0.181229 152.343C0.231693 151.637 0.785605 151.133 1.49048 151.133C2.19534 151.183 2.69873 151.738 2.69862 152.444C2.64805 153.755 2.59748 155.116 2.54692 156.428C2.54678 157.234 1.99287 157.739 1.288 157.739ZM1.79297 148.712C1.74262 148.712 1.74262 148.712 1.69227 148.712C0.987405 148.661 0.484024 148.056 0.534488 147.35C0.635409 145.989 0.786678 144.627 0.937938 143.316C1.03875 142.61 1.64301 142.106 2.34787 142.206C3.05272 142.307 3.55611 142.912 3.45529 143.618C3.30403 144.929 3.15276 146.291 3.05185 147.602C3.0014 148.207 2.44749 148.712 1.79297 148.712ZM2.85176 139.685C2.80142 139.685 2.75107 139.685 2.65037 139.685C1.94552 139.584 1.49249 138.928 1.59329 138.273C1.7949 136.962 1.99652 135.6 2.24849 134.238C2.3493 133.532 3.0039 133.078 3.70875 133.23C4.4136 133.33 4.86663 133.986 4.71547 134.692C4.51386 136.003 4.2619 137.314 4.06029 138.626C3.9595 139.231 3.45594 139.685 2.85176 139.685ZM4.41403 130.759C4.31333 130.759 4.26298 130.759 4.16229 130.708C3.45745 130.557 3.05477 129.901 3.20593 129.195C3.45789 127.884 3.7602 126.522 4.0625 125.211C4.21366 124.556 4.91861 124.102 5.57311 124.253C6.22761 124.404 6.68062 125.11 6.52947 125.766C6.22716 127.077 5.92486 128.388 5.67291 129.649C5.52175 130.355 4.96786 130.758 4.41403 130.759ZM6.47975 121.933C6.37906 121.933 6.27836 121.933 6.17767 121.883C5.52318 121.681 5.1205 121.025 5.27167 120.319C5.62432 119.008 5.97697 117.697 6.37997 116.386C6.58147 115.73 7.28641 115.327 7.9409 115.528C8.5954 115.73 8.99806 116.436 8.79656 117.092C8.44392 118.352 8.04092 119.664 7.73862 120.924C7.53712 121.58 7.03358 121.933 6.47975 121.933ZM9.04894 113.208C8.8979 113.208 8.7972 113.208 8.64617 113.158C7.99168 112.956 7.63936 112.25 7.84086 111.595C8.24385 110.334 8.6972 109.023 9.15054 107.762C9.40239 107.106 10.1073 106.753 10.7618 107.005C11.4163 107.257 11.7686 107.963 11.5168 108.619C11.0634 109.88 10.6604 111.141 10.2574 112.401C10.1063 112.906 9.60277 113.208 9.04894 113.208ZM12.0712 104.685C11.9202 104.685 11.7692 104.635 11.6181 104.585C10.9636 104.333 10.6617 103.627 10.9135 102.971C11.4172 101.71 11.8705 100.449 12.4246 99.1886C12.6764 98.5329 13.4317 98.2303 14.0862 98.4824C14.7407 98.7345 15.0426 99.4909 14.7908 100.146C14.2871 101.357 13.7834 102.618 13.3301 103.878C13.0782 104.383 12.5747 104.685 12.0712 104.685ZM15.4963 96.2633C15.3452 96.2633 15.1439 96.2129 14.9928 96.1625C14.3384 95.86 14.0867 95.154 14.3386 94.4984C14.8926 93.288 15.4466 92.0272 16.0007 90.8168C16.3029 90.1612 17.0581 89.909 17.6623 90.2115C18.3167 90.514 18.5683 91.2705 18.2662 91.8756C17.7121 93.086 17.1581 94.2964 16.6041 95.5068C16.4529 96.0111 15.9998 96.2633 15.4963 96.2633ZM19.3745 88.0428C19.1731 88.0429 18.9717 87.9925 18.8206 87.8916C18.2165 87.5891 17.9649 86.8327 18.2671 86.177C18.8715 84.9667 19.4759 83.7563 20.0802 82.5459C20.3824 81.9407 21.1377 81.6885 21.7922 81.991C22.3963 82.2935 22.6479 83.05 22.3457 83.7056C21.7413 84.8655 21.137 86.0759 20.5326 87.2863C20.2808 87.7906 19.8276 88.0428 19.3745 88.0428ZM23.5547 80.0241C23.3533 80.0241 23.1519 79.9737 22.9505 79.8728C22.3464 79.5199 22.1451 78.7635 22.4473 78.1583C23.102 76.9983 23.7568 75.7879 24.4618 74.628C24.8144 74.0228 25.5696 73.821 26.1737 74.1739C26.7778 74.5269 26.9791 75.2833 26.6266 75.8885C25.9719 77.0485 25.3171 78.2084 24.6624 79.3684C24.4106 79.7718 24.0078 80.024 23.5547 80.0241ZM28.1376 72.1566C27.9362 72.1566 27.6845 72.1062 27.4831 71.9549C26.879 71.6019 26.7281 70.7951 27.0806 70.2403C27.7857 69.0804 28.4908 67.9204 29.2462 66.8109C29.5987 66.2057 30.4043 66.0543 31.0084 66.4073C31.6125 66.7602 31.7635 67.5671 31.4109 68.1723C30.7059 69.2818 30.0008 70.4418 29.2957 71.5513C28.9432 71.9548 28.5404 72.1565 28.1376 72.1566ZM33.0227 64.5412C32.7709 64.5412 32.5192 64.4908 32.3178 64.3395C31.7641 63.9361 31.5628 63.1797 31.9657 62.5745C32.7211 61.4649 33.4765 60.305 34.2319 59.2459C34.6348 58.6911 35.4404 58.5397 35.9941 58.9431C36.5479 59.3465 36.6988 60.103 36.2959 60.7082C35.5405 61.7673 34.7851 62.9272 34.0297 64.0368C33.8283 64.3394 33.4254 64.5411 33.0227 64.5412ZM38.2097 57.077C37.958 57.077 37.7063 56.9762 37.4546 56.8249C36.9008 56.4215 36.7499 55.6147 37.2031 55.0599C38.0089 53.9504 38.8146 52.8913 39.6203 51.8322C40.0232 51.2774 40.8288 51.1764 41.3826 51.5798C41.9363 51.9832 42.0369 52.7901 41.634 53.3449C40.8283 54.404 40.0225 55.4631 39.2168 56.5726C39.0153 56.9256 38.6125 57.077 38.2097 57.077ZM43.7492 49.9154C43.4471 49.9154 43.1954 49.8146 42.9437 49.6129C42.3899 49.1591 42.3397 48.4027 42.7426 47.8479C43.5987 46.7888 44.4548 45.7297 45.3109 44.721C45.7641 44.1662 46.5697 44.1157 47.0731 44.5695C47.6268 45.0233 47.677 45.8302 47.2238 46.3345C46.3677 47.3432 45.5117 48.3519 44.6556 49.411C44.5045 49.7641 44.152 49.9154 43.7492 49.9154Z" fill="#FF778D"/>
<path d="M111.195 321.679C110.943 321.679 110.742 321.628 110.49 321.477C109.936 321.124 109.332 320.72 108.778 320.367C108.174 319.964 108.023 319.207 108.426 318.602C108.829 317.997 109.584 317.845 110.188 318.249C110.742 318.602 111.296 318.955 111.85 319.358C112.454 319.711 112.605 320.518 112.202 321.124C112 321.477 111.598 321.679 111.195 321.679Z" fill="#FF778D"/>
</g>
<path d="M73.8242 282.456C73.8411 282.422 68.2235 274.055 64.9002 269.23C61.7963 264.726 65.963 258.957 64.6472 257.523C62.3192 254.976 56.8029 264.22 54.2894 265.131C50.1563 266.649 30.7733 257.067 29.8961 261.858C27.9562 272.486 45.5004 273.313 49.0598 276.012C52.6193 278.711 57.5958 280.33 61.2564 290.908C61.8975 292.746 73.4531 283.249 73.8242 282.456Z" fill="#EFAEA6"/>
<path d="M213.402 441.737C213.183 444.673 212.879 447.861 212.457 451.336C210.922 464.427 207.666 508.557 208.459 536.594C209.252 564.496 206.789 629.747 206.789 639.751C198.321 643.462 193.074 642.315 180.962 639.751C180.962 639.751 178.82 585.904 176.424 538.753C174.484 500.477 173.927 504.306 166.893 455.57C166.808 455.79 165.105 460.547 162.608 467.851C157.277 483.439 148.353 510.7 144.068 530.42C137.405 561.19 140.88 641.421 138.097 644.187C129.78 649.08 115.711 649.552 111.966 642.754C111.966 642.754 110.38 543.544 113.332 528.008C115.34 517.447 132.26 413.903 136.039 386.102C136.039 386.102 210.568 369.857 212.845 395.313C213.149 398.788 213.25 401.875 213.199 404.793C213.149 408.741 213.351 412.401 213.571 416.433C213.925 422.995 214.262 430.502 213.402 441.737Z" fill="#262E33"/>
<path opacity="0.46" d="M173.455 441.586C173.455 441.586 173.455 441.602 173.438 441.619C173.303 441.535 173.253 441.501 173.236 441.484C173.286 441.484 173.455 441.586 173.455 441.586Z" fill="#262E33"/>
<path opacity="0.54" d="M166.91 455.571C166.825 455.807 163.553 465.017 161.056 472.339L163.991 442.885C163.974 442.885 163.873 444.639 166.91 455.571Z" fill="#262E33"/>
<path opacity="0.35" d="M213.368 439.814C212.744 439.679 190.679 434.197 184.808 413.295C184.808 413.295 205.591 415.59 213.57 416.45C213.925 422.995 214.127 435.563 213.368 439.814Z" fill="#262E33"/>
<path d="M178.938 284.48L194.677 282.557C195.875 275.691 190.712 260.104 190.561 253.778C190.392 246.828 183.003 239.321 183.003 239.321L175.766 252.749L175.817 253.204L175.901 253.997C175.901 253.997 175.344 260.745 174.113 266.346C173.674 268.37 173.455 270.546 172.73 271.828C171.06 274.747 170.688 278.745 166.674 282.979C163.654 286.134 178.938 284.48 178.938 284.48Z" fill="#EFAEA6"/>
<path opacity="0.11" d="M174.113 266.329C182.143 270.243 187.98 261.218 186.124 258.384C184.893 256.511 180.102 251.821 180.102 251.821L175.834 253.205L175.918 253.997C175.901 253.997 175.53 260.796 174.113 266.329Z" fill="#262E33"/>
<path d="M166.809 259.851C175.328 263.006 187.119 260.594 189.667 256.612C191.91 253.104 193.631 242.729 194.289 240.401C194.373 240.08 194.424 239.912 194.424 239.912L173.961 233.299C173.708 233.957 173.438 234.581 173.185 235.171C168.512 245.833 163.84 246.406 167.838 248.076C171.076 249.426 163.283 258.552 166.809 259.851Z" fill="#EFAEA6"/>
<path d="M182.413 241.734C179.579 241.16 179.275 241.818 177.689 240.215C176.104 238.63 180.287 236.976 176.947 235.188C173.59 233.4 169.778 231.882 170.79 227.513C172.257 221.187 177.166 223.869 180.152 225.657C182.075 226.804 184.134 222.266 188.199 223.835C191.404 225.067 190.375 226.922 193.176 228.154C194.863 228.896 199.265 227.023 201.273 230.127C205.001 235.88 199.13 239.49 201.914 245.242C205.153 251.94 190.24 259.008 189.363 257.27C188.317 255.229 192.315 250.725 191.168 248.971C189.431 246.339 188.452 248.329 185.854 249.612C183.071 250.978 179.157 249.831 182.953 246.659C186.748 243.471 184.977 242.24 182.413 241.734Z" fill="#262E33"/>
<path d="M193.58 269.213C187.457 266.514 185.23 276.957 178.718 276.484C175.277 276.231 176.255 274.865 174.889 273.06C174.046 271.946 173.286 270.715 171.481 272.081C134.757 299.832 155.304 387.013 150.378 392.141C146.363 396.325 171.667 410.664 189.177 409.112C213.183 407.003 215.612 381.648 215.679 376.739C215.747 371.83 213.267 287.955 213.267 287.955C213.267 287.955 202.487 279.976 193.58 269.213Z" fill="#FBFBFF"/>
<path d="M70.1467 272.453C71.8842 274.814 101.22 309.245 106.112 308.756C121.598 307.204 144.625 275.776 171.481 272.098C171.481 272.098 171.431 277.665 167.433 291.616C162.136 310.038 170.672 325.018 165.071 347.437C157.817 376.436 163.856 409.719 157.497 415.337C154.511 417.968 136.292 413.059 132.513 403.478C130.084 397.354 139.244 357.778 141.623 348.939C142.55 345.497 144.136 340.909 145.621 336.135C147.459 330.197 146.633 323.871 143.984 321.121C140.391 317.41 116.959 336.438 103.447 334.903C92.7011 333.689 56.7861 286.859 55.0485 284.599C53.2435 282.287 67.3463 268.623 70.1467 272.453Z" fill="#0069A8"/>
<path d="M196.515 425.779C195.723 426.842 193.816 426.538 194.66 427.466C195.486 428.394 206.317 435.276 206.317 435.276C206.317 435.276 207.244 436.66 208.914 434.871C210.585 433.066 210.888 431.059 210.888 431.059L196.515 425.779Z" fill="#E79E9C"/>
<path d="M183.29 336.084C182.379 348.77 184.336 367.529 185.837 378.055C188.536 397.033 179.528 405.957 185.719 414.864C193.192 425.593 217.501 432.645 226.998 426.319C232.38 422.726 221.145 397.624 219.745 379.152C219.694 378.494 219.643 377.836 219.593 377.178C219.053 369.553 218.766 362.788 219.475 358.672C219.947 355.939 220.369 353.696 220.757 351.705C220.858 351.199 220.959 350.727 221.044 350.254C221.28 349.074 221.499 347.96 221.718 346.897C222.477 343.119 223.135 339.66 223.878 334.077C224.232 331.344 224.62 328.105 225.042 324.056C226.307 311.741 225.379 294.484 220.706 287.854C209.589 272.081 193.58 269.23 193.58 269.23C191.826 276.653 185.213 309.093 183.29 336.084Z" fill="#0069A8"/>
<path d="M199.114 302.649C225.734 366.247 228.854 358.824 228.281 368.474C227.707 378.123 195.706 423.704 195.099 424.345C194.475 424.986 210.888 438.06 212.879 435.799C214.887 433.539 252.995 378.966 253.636 366.382C254.344 352.515 224.266 293.708 220.572 287.821C216.877 281.933 197.815 276.737 196.6 286.083C195.402 295.412 199.114 302.649 199.114 302.649Z" fill="#0069A8"/>
<path opacity="0.25" d="M212.238 333.52C212.238 333.52 208.678 362.974 219.61 377.161C219.07 369.536 218.783 362.772 219.492 358.655C219.964 355.923 220.386 353.679 220.774 351.688C220.875 351.182 220.976 350.71 221.061 350.238L212.238 333.52Z" fill="#262E33"/>
<path opacity="0.18" d="M179.106 279.976C179.764 279.656 184.218 292.46 191.927 297.537C194.053 298.937 196.398 300.034 198.928 300.523C206.334 301.974 227.572 300.658 227.572 300.658C227.572 300.658 225.683 296.677 222.511 292.004C215.409 293.219 204.63 294.062 200.784 293.101C197.933 292.392 195.318 291.194 192.939 289.76C188.469 287.044 184.825 283.418 182.126 280.33C180.743 278.762 180.81 276.653 178.938 276.316C176.458 275.894 178.246 280.398 179.106 279.976Z" fill="#262E33"/>
<path d="M175.682 275.877C175.918 274.713 176.997 272.925 179.46 273.364C181.316 273.701 181.367 274.477 182.733 276.046C186.849 280.753 193.142 286.707 201.289 288.749C209.437 290.79 229.816 282.541 241.692 286.876C253.568 291.228 255.778 302.717 273.052 307.98C290.326 313.243 310.367 308.402 315.462 310.004C320.556 311.624 323.559 313.192 323.137 315.251C322.716 317.292 319.646 320.362 315.782 321.307C311.919 322.268 279.361 320.008 270.994 317.68C257.347 313.884 247.124 299.697 238.267 297.656C229.411 295.631 209.859 298.145 199.434 296.121C187.811 293.843 180.169 278.897 179.325 279.302C178.482 279.707 177.689 280.111 176.255 279.521C175.26 279.133 175.445 277.041 175.682 275.877Z" fill="#FFD957"/>
<path opacity="0.25" d="M220.453 385.444C218.581 389.61 196.364 422.472 196.364 422.472L219.677 379.033L220.453 385.444Z" fill="#262E33"/>
<path opacity="0.25" d="M228.112 417.715L218.496 428.663L217.956 428.511L227.488 414.51L228.112 417.715Z" fill="#262E33"/>
<path d="M52.4506 394.031C61.0372 394.621 69.2357 393.845 77.6536 391.871C78.9525 391.568 80.3189 391.163 81.1961 390.049C82.5288 388.346 82.124 385.495 80.6901 383.892C79.2562 382.306 77.1137 381.834 75.1231 382.053C73.8579 382.188 72.5421 382.576 71.3107 382.188C69.7755 381.682 68.7634 380.08 67.7343 378.696C66.7053 377.313 65.3051 375.93 63.7194 376.149C62.5385 376.318 61.5938 377.33 60.5311 377.971C59.4683 378.612 57.9332 378.679 57.3259 377.499C56.0269 374.985 57.8488 368.085 51.1685 368.085C41.5192 368.085 43.0881 375.019 41.941 376.486C40.1865 378.713 37.0488 378.224 34.5015 377.465C31.9542 376.706 28.9177 375.997 26.944 377.988C25.2402 379.725 25.0547 382.897 23.2496 384.466C21.3265 386.153 18.5768 385.259 16.2319 384.499C13.8871 383.74 10.8674 383.47 9.51788 385.765C8.38762 387.688 9.23112 390.488 10.8506 391.905C12.47 393.322 14.6124 393.66 16.6368 393.794C29.8455 394.722 41.8397 393.305 52.4506 394.031Z" fill="#FBFBFF"/>
<path d="M253.703 212.633C249.064 212.633 239.549 220.849 253.163 222.165C266.76 223.481 287.138 222.873 295.387 222.907C308.849 222.958 312.189 222.401 312.071 216.901C312.004 213.713 310.283 211.655 303.198 210.828C295.809 209.968 299.588 201.753 290.58 202.006C282.904 202.225 282.128 212.954 275.093 210.322C268.076 207.691 269.543 214.86 264.415 216.176C258.764 217.627 258.342 212.633 253.703 212.633Z" fill="#FBFBFF"/>
</svg>
