<svg width="822" height="325" viewBox="0 0 822 325" fill="none" xmlns="http://www.w3.org/2000/svg">
<g opacity="0.3">
<path d="M4.01959 149.976L3.94153 149.977C3.86347 149.978 3.78412 149.902 3.70605 149.903C3.62799 149.905 3.54864 149.828 3.47058 149.83C3.39252 149.831 3.39123 149.753 3.31317 149.755C3.23511 149.756 3.23382 149.678 3.15576 149.68C3.07769 149.681 3.0764 149.603 2.99834 149.604C2.91899 149.528 2.91899 149.528 2.83964 149.452C2.76029 149.375 2.76029 149.375 2.68093 149.299C2.52223 149.146 2.44159 148.991 2.43771 148.758C2.43642 148.68 2.43642 148.68 2.35707 148.603C2.35578 148.526 2.35578 148.526 2.35448 148.448C2.3519 148.292 2.35061 148.214 2.34803 148.058C2.34674 147.981 2.34415 147.825 2.34286 147.747C2.34157 147.669 2.41705 147.512 2.41576 147.434L20.0625 95.6403C20.2863 95.0133 20.8237 94.4585 21.525 94.3682C22.2249 94.1999 22.9326 94.4989 23.4101 95.0355L34.3981 107.846L43.6731 106.824C44.4524 106.732 45.1614 107.109 45.5634 107.803C45.7247 108.112 45.8079 108.422 45.8131 108.733C45.8195 109.122 45.6711 109.592 45.4421 109.908L41.0869 115.671L48.3325 124.109C48.6512 124.493 48.8138 124.879 48.8215 125.346C48.8241 125.502 48.8254 125.58 48.828 125.736C48.6809 126.283 48.3777 126.834 47.8352 127.077L5.26469 149.72C5.18663 149.721 5.10986 149.801 5.0318 149.802C4.7989 149.884 4.56601 149.966 4.33183 149.97C4.17571 149.973 4.09765 149.974 4.01959 149.976ZM22.6353 100.112L9.90169 137.41L30.9957 109.854L22.6353 100.112ZM39.5289 111.182L37.3471 111.454L38.3825 112.682L39.5289 111.182ZM43.7373 124.814L33.5453 112.924L11.2281 142.059L43.7373 124.814Z" fill="#FF778D"/>
<path d="M3.10992 149.604C3.10992 149.604 3.03095 149.605 3.10992 149.604C3.02964 149.526 3.03095 149.605 3.10992 149.604Z" fill="#FF778D"/>
<path d="M46.9358 107.626C44.8691 105.404 45.3638 102.281 45.5824 101.342C45.7256 100.561 45.9482 99.8561 46.2487 99.1499C44.1517 99.8102 42.7726 101.392 42.6959 101.471C42.0063 102.262 40.7588 102.363 39.9667 101.676C39.1746 100.989 39.0759 99.7448 39.7654 98.9539C40.1479 98.4798 43.8272 94.365 49.2255 95.0476L49.3036 95.0462C51.765 92.822 54.7896 91.6 56.0307 91.1107C57.0389 90.7034 58.1406 91.2289 58.5476 92.234C58.6296 92.4661 58.6321 92.6218 58.636 92.8554C58.6489 93.6338 58.1155 94.4221 57.3402 94.7474C56.7964 94.9128 55.2457 95.5634 53.6235 96.6046C55.2012 97.5888 56.5526 99.0443 57.0532 100.982C57.7983 103.539 57.3855 106.894 54.7602 108.654C52.5226 110.252 49.0026 109.847 46.9358 107.626ZM52.7547 105.42C53.9139 104.698 53.6474 102.756 53.4029 102.137C52.9894 100.743 51.8045 99.9076 50.5479 99.4627C49.9365 100.252 49.5604 101.116 49.3418 102.054C49.196 102.68 48.9096 104.242 49.703 105.007C50.4951 105.693 51.9052 105.98 52.7547 105.42Z" fill="#FF778D"/>
<path d="M67.8602 85.1368C67.8527 84.67 67.6891 84.2061 67.2924 83.8243C66.5771 83.0592 65.3263 83.0044 64.5566 83.719C63.0953 85.1467 62.3269 85.9391 62.2488 85.9405C61.4803 86.7329 61.5003 87.9777 62.2924 88.6635C63.0858 89.4271 64.3353 89.4041 65.0257 88.6132C65.0257 88.6132 65.7941 87.8208 67.1786 86.4723C67.6434 86.2303 67.869 85.6814 67.8602 85.1368Z" fill="#FF778D"/>
<path d="M494.385 163.407C494.379 163.018 494.295 162.631 494.055 162.325C492.857 160.638 491.658 158.874 490.461 157.264C489.823 156.422 488.649 156.21 487.721 156.771C486.873 157.408 486.657 158.577 487.218 159.499C488.417 161.186 489.615 162.873 490.813 164.56C491.451 165.403 492.626 165.692 493.553 165.053C494.093 164.655 494.395 164.028 494.385 163.407ZM486.239 151.982C486.233 151.594 486.149 151.207 485.831 150.902C484.633 149.215 483.357 147.53 482.161 145.92C481.523 145.078 480.27 144.868 479.422 145.505C478.573 146.142 478.359 147.388 478.997 148.231C480.194 149.84 481.47 151.526 482.668 153.213C483.306 154.056 484.558 154.266 485.407 153.629C486.025 153.229 486.249 152.603 486.239 151.982ZM477.863 140.795C477.857 140.407 477.694 140.021 477.454 139.637C476.178 137.952 474.903 136.344 473.628 134.736C472.99 133.893 471.739 133.761 470.891 134.398C470.042 135.035 469.906 136.28 470.544 137.123C471.819 138.731 473.094 140.339 474.37 142.024C475.008 142.867 476.259 142.999 477.107 142.362C477.649 142.042 477.873 141.416 477.863 140.795ZM469.256 129.845C469.25 129.457 469.086 128.993 468.847 128.687C467.494 127.081 466.22 125.473 464.867 123.867C464.151 123.025 462.978 122.891 462.13 123.606C461.283 124.321 461.146 125.489 461.862 126.33C463.137 127.938 464.489 129.544 465.764 131.152C466.402 131.995 467.653 132.127 468.501 131.412C469.041 131.014 469.265 130.388 469.256 129.845ZM460.34 119.056C460.332 118.59 460.17 118.205 459.852 117.822C458.499 116.216 457.147 114.687 455.794 113.08C455.078 112.239 453.828 112.184 453.059 112.898C452.212 113.612 452.154 114.856 452.869 115.62C454.22 117.149 455.573 118.755 456.925 120.284C457.641 121.125 458.891 121.18 459.66 120.467C460.124 120.225 460.35 119.677 460.34 119.056ZM451.116 108.583C451.109 108.117 450.945 107.654 450.628 107.35C449.199 105.822 447.847 104.293 446.417 102.766C445.702 102.002 444.452 101.948 443.683 102.661C442.914 103.374 442.856 104.618 443.571 105.382C445.001 106.909 446.352 108.438 447.782 109.965C448.497 110.729 449.748 110.861 450.516 110.07C450.9 109.675 451.125 109.127 451.116 108.583ZM441.584 98.3496C441.577 97.8836 441.413 97.4206 441.017 97.0395C439.587 95.5122 438.081 94.0639 436.652 92.6143C435.86 91.8521 434.689 91.8736 433.92 92.5869C433.152 93.3778 433.171 94.5426 433.885 95.3063C435.314 96.7559 436.742 98.2056 438.25 99.7315C438.965 100.495 440.215 100.55 440.983 99.7589C441.368 99.4411 441.593 98.8932 441.584 98.3496ZM431.667 88.4336C431.66 87.9676 431.495 87.4269 431.099 87.0458C429.592 85.5976 428.086 84.1494 426.579 82.7011C425.786 81.9389 424.539 82.0395 423.848 82.7514C423.08 83.5423 423.178 84.7834 423.891 85.4694C425.397 86.8399 426.903 88.2881 428.332 89.7378C429.124 90.5 430.373 90.4771 431.063 89.6876C431.527 89.446 431.676 88.9772 431.667 88.4336ZM421.444 78.9116C421.435 78.368 421.194 77.9063 420.797 77.5252C419.292 76.1547 417.708 74.7079 416.125 73.3388C415.333 72.6542 414.084 72.6772 413.396 73.5443C412.706 74.3338 412.726 75.5763 413.595 76.2595C415.1 77.63 416.684 78.9991 418.189 80.3697C418.981 81.0543 420.229 81.0313 420.919 80.2418C421.303 79.8463 421.452 79.3775 421.444 78.9116ZM410.914 69.706C410.905 69.1624 410.662 68.6231 410.188 68.2434C408.606 66.9519 406.945 65.5842 405.363 64.2928C404.493 63.6096 403.325 63.7865 402.635 64.576C401.946 65.4431 402.121 66.6051 402.913 67.2897C404.495 68.5811 406.155 69.8712 407.66 71.2417C408.452 71.9263 409.699 71.8257 410.389 71.0362C410.773 70.6407 410.921 70.1719 410.914 69.706ZM400.001 60.9735C399.992 60.4299 399.748 59.8129 399.274 59.4332C397.614 58.1432 395.954 56.8532 394.295 55.6408C393.426 55.0353 392.18 55.2136 391.57 56.0793C390.959 56.945 391.135 58.1847 392.003 58.7901C393.662 60.0025 395.321 61.2149 396.981 62.5049C397.851 63.188 399.097 63.0098 399.708 62.1441C399.859 61.8306 400.009 61.4394 400.001 60.9735ZM388.705 52.7141C388.695 52.0928 388.374 51.555 387.9 51.1753C386.163 49.9643 384.428 48.8311 382.691 47.6201C381.822 47.0147 380.577 47.2706 379.967 48.1363C379.356 49.002 379.61 50.2402 380.479 50.8457C382.214 51.979 383.873 53.1913 385.609 54.3246C386.477 54.9301 387.723 54.7518 388.334 53.8861C388.562 53.4935 388.712 53.1024 388.705 52.7141ZM377.028 45.0055C377.018 44.3842 376.696 43.7687 376.144 43.3905C374.33 42.2586 372.596 41.203 370.783 40.1488C369.838 39.6224 368.671 39.8769 368.14 40.8189C367.608 41.7608 367.861 42.9213 368.806 43.4477C370.541 44.5033 372.353 45.5575 374.089 46.6908C375.035 47.2948 376.201 46.9627 376.812 46.097C376.961 45.7058 377.034 45.3938 377.028 45.0055ZM364.97 37.8476C364.958 37.1487 364.636 36.5332 364.006 36.1564C362.193 35.1022 360.304 34.1271 358.493 33.1506C357.548 32.6242 356.383 33.034 355.852 33.976C355.321 34.9179 355.73 36.0756 356.675 36.602C358.486 37.5785 360.297 38.555 362.108 39.5315C363.053 40.0579 364.219 39.7258 364.75 38.7838C364.901 38.4703 364.975 38.1583 364.97 37.8476ZM352.609 31.3168C352.597 30.6179 352.196 29.9262 351.489 29.6285C349.601 28.731 347.713 27.8336 345.825 26.9361C344.881 26.4874 343.717 26.8972 343.265 27.9154C342.811 28.8559 343.22 30.0136 344.242 30.4608C346.13 31.3583 347.939 32.1795 349.828 33.1546C350.772 33.6033 351.937 33.2712 352.468 32.2516C352.541 31.9395 352.614 31.6274 352.609 31.3168ZM339.869 25.4921C339.856 24.7155 339.377 24.0252 338.67 23.7275C336.705 22.9091 334.818 22.0894 332.855 21.3487C331.834 20.979 330.749 21.4651 330.296 22.4056C329.922 23.4223 330.407 24.5009 331.351 24.9496C333.237 25.6917 335.201 26.5101 337.087 27.2522C338.109 27.6995 339.194 27.2134 339.646 26.1953C339.798 25.9594 339.873 25.725 339.869 25.4921ZM326.828 20.372C326.816 19.5954 326.335 18.8275 325.551 18.6088C323.587 17.8681 321.547 17.2065 319.585 16.5435C318.564 16.1739 317.48 16.7376 317.106 17.7543C316.732 18.771 317.296 19.8482 318.317 20.2178C320.279 20.8808 322.241 21.5439 324.125 22.2083C325.146 22.578 326.23 22.0143 326.604 20.9975C326.758 20.8394 326.832 20.605 326.828 20.372ZM313.488 16.0342C313.474 15.18 312.915 14.4135 312.053 14.1963C310.014 13.6123 307.975 13.0284 306.015 12.5207C304.996 12.2287 303.913 12.8701 303.617 13.8853C303.321 14.9006 303.963 15.9763 304.982 16.2683C306.942 16.776 308.981 17.36 310.941 17.8677C311.96 18.1597 313.044 17.596 313.34 16.5807C313.494 16.4225 313.491 16.2672 313.488 16.0342ZM299.927 12.555C299.913 11.7007 299.275 10.858 298.414 10.7185C296.378 10.2898 294.341 9.86122 292.226 9.43403C291.13 9.22115 290.127 9.93872 289.909 10.9526C289.691 11.9664 290.411 13.0407 291.429 13.255C293.464 13.606 295.501 14.0346 297.461 14.5423C298.479 14.7566 299.562 14.1153 299.779 13.1014C299.854 12.867 299.929 12.7103 299.927 12.555ZM286.147 10.0119C286.132 9.08004 285.417 8.31638 284.477 8.10063C282.441 7.74967 280.329 7.47779 278.217 7.20591C277.122 7.07069 276.197 7.78683 276.058 8.8769C275.92 9.96697 276.637 10.8859 277.732 11.0212C279.766 11.2945 281.8 11.5678 283.834 11.8411C284.929 11.9763 285.933 11.2587 286.072 10.2463C286.072 10.2463 286.148 10.0896 286.147 10.0119ZM272.224 8.32597C272.208 7.31643 271.415 6.55421 270.476 6.41612C268.365 6.2219 266.256 6.10534 264.223 5.90968C263.129 5.85212 262.205 6.64592 262.145 7.73455C262.084 8.82318 262.879 9.74072 263.973 9.79828C266.005 9.91628 268.116 10.1105 270.147 10.2285C271.241 10.2861 272.166 9.56992 272.305 8.47985C272.149 8.48272 272.226 8.40363 272.224 8.32597ZM258.16 7.49712C258.143 6.48758 257.349 5.6477 256.255 5.59014C254.147 5.55123 252.039 5.51233 249.932 5.55108C248.839 5.57118 247.994 6.44119 248.012 7.52839C248.029 8.61559 248.901 9.45403 249.994 9.43394C252.023 9.39662 254.131 9.43552 256.162 9.47586C257.255 9.53343 258.1 8.66341 258.161 7.57478C258.161 7.57478 258.161 7.57478 258.16 7.49712ZM244.11 7.60015C244.092 6.51295 243.142 5.67595 242.05 5.69604C239.944 5.81245 237.838 5.92886 235.732 6.04527C234.641 6.14302 233.874 7.0116 233.891 8.0988C233.987 9.18457 234.858 9.94535 235.95 9.92526C237.978 9.81028 240.084 9.69387 242.112 9.5789C243.361 9.55593 244.127 8.68735 244.11 7.60015ZM230.153 8.63364C230.152 8.55598 230.152 8.55598 230.15 8.47832C230.055 7.39256 229.106 6.63321 228.015 6.73096C225.91 6.92503 223.807 7.19675 221.781 7.46704C220.691 7.64245 219.926 8.58869 220.099 9.67302C220.273 10.7573 221.222 11.5167 222.312 11.3413C224.337 11.071 226.441 10.7993 228.467 10.6066C229.402 10.5118 230.169 9.64318 230.153 8.63364ZM216.21 10.5213C216.209 10.4437 216.207 10.366 216.205 10.2107C216.031 9.12639 215.006 8.44614 213.994 8.62011C211.969 8.96805 209.867 9.31744 207.766 9.74447C206.676 9.91988 205.99 10.9423 206.242 12.0252C206.415 13.1096 207.441 13.7898 208.53 13.5368C210.554 13.1888 212.577 12.7632 214.601 12.4153C215.535 12.2427 216.225 11.4532 216.21 10.5213ZM202.435 13.1828C202.433 13.0274 202.432 12.9498 202.351 12.7959C202.099 11.713 201.075 11.1104 199.986 11.3635C197.963 11.7891 195.864 12.2938 193.842 12.797C192.831 13.0487 192.146 14.1488 192.397 15.154C192.647 16.1593 193.751 16.8381 194.762 16.5865C196.783 16.0832 198.805 15.5799 200.75 15.1558C201.838 14.9027 202.449 14.037 202.435 13.1828ZM188.829 16.6179C188.827 16.4626 188.824 16.3072 188.744 16.1534C188.415 15.1496 187.391 14.547 186.302 14.8C184.282 15.3809 182.261 15.9619 180.242 16.6204C179.233 16.9497 178.626 18.0484 178.954 19.0522C179.283 20.056 180.385 20.6572 181.395 20.3279C183.337 19.7484 185.356 19.0898 187.3 18.588C188.309 18.2587 188.843 17.4721 188.829 16.6179ZM175.392 20.8267C175.388 20.5937 175.386 20.4384 175.304 20.2069C174.975 19.2031 173.874 18.6796 172.865 19.0088C170.924 19.666 168.906 20.4022 166.966 21.137C165.958 21.544 165.429 22.6412 165.835 23.6436C166.242 24.6459 167.343 25.1694 168.351 24.7625C170.291 24.0277 172.232 23.3706 174.173 22.7134C174.95 22.4661 175.406 21.6809 175.392 20.8267ZM162.278 25.7287C162.274 25.4957 162.192 25.2642 162.11 25.0326C161.704 24.0303 160.604 23.5844 159.596 23.9914C157.657 24.8038 155.717 25.5386 153.78 26.4287C152.772 26.8357 152.322 28.0091 152.729 29.0115C153.135 30.0139 154.313 30.4583 155.321 30.0513C157.182 29.2403 159.12 28.4279 161.06 27.6931C161.834 27.2904 162.29 26.5052 162.278 25.7287ZM149.33 31.249C149.326 31.0161 149.243 30.7069 149.161 30.4753C148.677 29.4744 147.578 29.1062 146.57 29.5132C144.71 30.4018 142.773 31.292 140.914 32.1806C139.907 32.6652 139.535 33.8373 140.018 34.7605C140.503 35.7615 141.68 36.1282 142.609 35.6451C144.468 34.7564 146.327 33.8677 148.187 32.979C148.963 32.7317 149.342 32.0256 149.33 31.249ZM136.705 37.4626C136.7 37.152 136.617 36.8428 136.457 36.6127C135.974 35.6894 134.797 35.3226 133.79 35.8072C131.932 36.7736 130.074 37.7399 128.216 38.7062C127.287 39.1894 126.916 40.3614 127.4 41.3624C127.883 42.2856 129.06 42.6524 130.067 42.1678C131.847 41.2029 133.705 40.2366 135.563 39.2702C136.337 38.8676 136.716 38.1615 136.705 37.4626ZM124.4 44.1363C124.395 43.8257 124.312 43.5165 124.151 43.2088C123.59 42.2869 122.414 41.9978 121.485 42.481C119.706 43.5235 117.85 44.5675 116.072 45.6877C115.144 46.2486 114.851 47.4192 115.412 48.341C115.973 49.2628 117.149 49.5519 118.077 48.9911C119.856 47.9486 121.634 46.906 123.413 45.8635C124.031 45.4637 124.411 44.8353 124.4 44.1363ZM112.339 51.427C112.334 51.1164 112.25 50.7296 112.011 50.4232C111.45 49.5014 110.197 49.2914 109.348 49.8508C107.57 50.971 105.793 52.0912 104.094 53.2876C103.167 53.8485 102.952 55.0953 103.514 56.0171C104.075 56.939 105.327 57.149 106.255 56.5881C107.954 55.4694 109.732 54.3491 111.431 53.2304C112.047 52.6753 112.349 52.0483 112.339 51.427ZM100.676 59.1765C100.67 58.7882 100.586 58.4014 100.346 58.095C99.7084 57.2523 98.5328 56.9632 97.6062 57.6017C95.9081 58.7981 94.1318 59.996 92.5117 61.191C91.6632 61.828 91.449 63.0748 92.0871 63.9176C92.7251 64.7603 93.8994 64.9718 94.826 64.3333C96.4461 63.1383 98.2223 61.9404 99.9205 60.744C100.384 60.4248 100.686 59.7978 100.676 59.1765ZM89.2544 67.3876C89.2482 66.9993 89.0859 66.6139 88.8455 66.2299C88.2075 65.3872 86.9551 65.1772 86.1078 65.8919C84.4109 67.166 82.792 68.4386 81.1731 69.7113C80.3246 70.3483 80.1885 71.5937 80.8265 72.4364C81.4645 73.2792 82.7157 73.4115 83.5642 72.7745C85.1831 71.5018 86.802 70.2292 88.4989 68.9551C89.0402 68.6344 89.2644 68.0089 89.2544 67.3876ZM78.3098 76.1337C78.3023 75.6678 78.14 75.2823 77.8216 74.8998C77.1055 74.0585 75.9336 74.0024 75.0852 74.6394C73.4675 75.9897 71.8498 77.34 70.3102 78.6889C69.463 79.4036 69.4049 80.6475 70.1197 81.4112C70.8358 82.2525 72.0857 82.3072 72.8549 81.5939C74.3945 80.2451 75.9341 78.8962 77.5518 77.5459C78.0943 77.3029 78.3197 76.755 78.3098 76.1337Z" fill="#FF778D"/>
<path d="M500.549 172.998C500.543 172.609 500.46 172.299 500.219 171.914C499.659 171.068 499.019 170.146 498.459 169.3C497.819 168.378 496.643 168.166 495.716 168.806C494.789 169.446 494.573 170.617 495.213 171.539C495.773 172.385 496.334 173.231 496.972 174.076C497.534 174.999 498.788 175.21 499.715 174.57C500.257 174.249 500.559 173.62 500.549 172.998Z" fill="#FF778D"/>
</g>
<path d="M488.551 148.422C488.574 148.377 481.074 137.206 476.636 130.764C472.492 124.75 478.055 117.047 476.299 115.133C473.19 111.732 465.825 124.075 462.469 125.291C456.951 127.318 431.071 114.525 429.9 120.921C427.31 135.111 450.734 136.215 455.487 139.818C460.239 143.422 466.884 145.584 471.771 159.707C472.627 162.162 488.056 149.481 488.551 148.422Z" fill="#EFAEA6"/>
<path d="M674.911 361.089C674.618 365.008 674.213 369.265 673.65 373.905C671.6 391.384 667.253 450.305 668.312 487.739C669.37 524.993 666.082 612.114 666.082 625.471C654.775 630.426 647.77 628.894 631.598 625.471C631.598 625.471 628.738 553.575 625.539 490.622C622.949 439.516 622.206 444.629 612.814 379.559C612.701 379.851 610.426 386.203 607.093 395.956C599.975 416.768 588.06 453.166 582.339 479.496C573.443 520.578 578.082 627.7 574.366 631.394C563.262 637.926 544.477 638.557 539.477 629.48C539.477 629.48 537.36 497.019 541.301 476.275C543.982 462.175 566.573 323.926 571.618 286.807C571.618 286.807 671.127 265.117 674.168 299.105C674.573 303.744 674.708 307.866 674.641 311.763C674.573 317.033 674.843 321.921 675.136 327.304C675.609 336.066 676.06 346.089 674.911 361.089Z" fill="#262E33"/>
<path opacity="0.35" d="M674.866 358.522C674.033 358.342 644.572 351.021 636.734 323.115C636.734 323.115 664.483 326.178 675.136 327.327C675.609 336.066 675.879 352.846 674.866 358.522Z" fill="#262E33"/>
<path d="M628.895 151.125L649.91 148.557C651.509 139.39 644.617 118.579 644.414 110.132C644.189 100.853 634.323 90.8296 634.323 90.8296L624.661 108.758L624.728 109.366L624.841 110.425C624.841 110.425 624.098 119.434 622.454 126.912C621.868 129.615 621.575 132.521 620.607 134.232C618.377 138.129 617.881 143.467 612.521 149.12C608.489 153.332 628.895 151.125 628.895 151.125Z" fill="#EFAEA6"/>
<path opacity="0.11" d="M622.454 126.89C633.175 132.115 640.968 120.065 638.49 116.281C636.846 113.781 630.45 107.52 630.45 107.52L624.751 109.366L624.864 110.425C624.841 110.425 624.346 119.502 622.454 126.89Z" fill="#262E33"/>
<path d="M612.701 118.241C624.075 122.453 639.819 119.232 643.22 113.916C646.216 109.231 648.514 95.3795 649.392 92.2712C649.505 91.8433 649.572 91.618 649.572 91.618L622.251 82.7888C621.913 83.6672 621.553 84.5006 621.215 85.2889C614.976 99.5238 608.737 100.29 614.075 102.519C618.4 104.321 607.994 116.507 612.701 118.241Z" fill="#EFAEA6"/>
<path d="M633.535 94.0506C629.751 93.2848 629.346 94.1632 627.229 92.0235C625.111 89.9063 630.697 87.699 626.238 85.3115C621.755 82.924 616.665 80.8969 618.017 75.0633C619.976 66.617 626.53 70.1982 630.517 72.5857C633.085 74.1173 635.833 68.0585 641.261 70.1531C645.54 71.7974 644.166 74.2749 647.905 75.9192C650.158 76.9102 656.036 74.4101 658.717 78.5544C663.694 86.2349 655.856 91.055 659.572 98.7355C663.897 107.677 643.986 117.115 642.815 114.795C641.418 112.069 646.757 106.056 645.225 103.713C642.905 100.2 641.599 102.857 638.13 104.569C634.414 106.394 629.188 104.862 634.256 100.627C639.324 96.3705 636.959 94.7263 633.535 94.0506Z" fill="#262E33"/>
<path d="M648.446 130.742C640.27 127.138 637.297 141.08 628.603 140.449C624.008 140.111 625.314 138.287 623.49 135.877C622.364 134.39 621.35 132.746 618.94 134.571C569.906 171.622 597.34 288.023 590.763 294.87C585.402 300.456 619.188 319.601 642.567 317.529C674.618 314.714 677.862 280.861 677.952 274.306C678.042 267.752 674.731 155.765 674.731 155.765C674.731 155.765 660.338 145.112 648.446 130.742Z" fill="#FBFBFF"/>
<path d="M483.641 135.066C485.961 138.219 525.13 184.19 531.661 183.537C552.338 181.465 583.083 139.503 618.94 134.593C618.94 134.593 618.872 142.026 613.534 160.653C606.462 185.248 617.859 205.249 610.381 235.183C600.696 273.901 608.759 318.34 600.268 325.84C596.281 329.354 571.956 322.8 566.911 310.006C563.667 301.83 575.898 248.99 579.073 237.188C580.312 232.593 582.429 226.467 584.411 220.092C586.867 212.164 585.763 203.718 582.227 200.046C577.429 195.091 546.144 220.498 528.103 218.448C513.755 216.826 465.803 154.301 463.483 151.283C461.073 148.197 479.902 129.953 483.641 135.066Z" fill="#0069A8"/>
<path d="M634.706 220.025C633.49 236.962 636.103 262.009 638.107 276.063C641.711 301.402 629.684 313.317 637.95 325.21C647.928 339.535 680.384 348.949 693.065 340.503C700.25 335.705 685.249 302.19 683.38 277.527C683.312 276.649 683.245 275.77 683.177 274.892C682.456 264.711 682.073 255.679 683.019 250.184C683.65 246.535 684.213 243.539 684.731 240.881C684.866 240.206 685.001 239.575 685.114 238.944C685.429 237.368 685.722 235.881 686.015 234.462C687.029 229.417 687.907 224.8 688.898 217.344C689.371 213.696 689.889 209.371 690.452 203.965C692.141 187.523 690.903 164.482 684.664 155.63C669.821 134.57 648.446 130.764 648.446 130.764C646.103 140.674 637.274 183.987 634.706 220.025Z" fill="#0069A8"/>
<path d="M655.833 175.383C691.376 260.297 695.542 250.386 694.777 263.27C694.011 276.153 651.284 337.012 650.473 337.868C649.639 338.724 671.555 356.179 674.213 353.161C676.893 350.143 727.774 277.279 728.629 260.477C729.575 241.963 689.416 163.445 684.483 155.585C679.551 147.724 654.099 140.787 652.477 153.265C650.878 165.72 655.833 175.383 655.833 175.383Z" fill="#0069A8"/>
<path opacity="0.25" d="M673.357 216.601C673.357 216.601 668.604 255.927 683.2 274.869C682.479 264.689 682.096 255.657 683.042 250.161C683.673 246.512 684.236 243.517 684.754 240.859C684.889 240.183 685.024 239.553 685.137 238.922L673.357 216.601Z" fill="#262E33"/>
<path opacity="0.18" d="M629.121 145.112C629.999 144.684 635.945 161.779 646.238 168.559C649.076 170.428 652.207 171.892 655.586 172.545C665.474 174.482 693.831 172.725 693.831 172.725C693.831 172.725 691.308 167.41 687.074 161.171C677.591 162.793 663.199 163.919 658.063 162.635C654.257 161.689 650.766 160.09 647.59 158.175C641.621 154.549 636.756 149.706 633.152 145.585C631.305 143.49 631.395 140.674 628.895 140.224C625.584 139.661 627.972 145.675 629.121 145.112Z" fill="#262E33"/>
<path d="M624.548 139.638C624.864 138.084 626.305 135.697 629.594 136.282C632.071 136.733 632.139 137.769 633.963 139.864C639.459 146.148 647.86 154.099 658.739 156.824C669.618 159.549 696.826 148.535 712.683 154.324C728.539 160.135 731.49 175.473 754.554 182.501C777.618 189.528 804.376 183.064 811.178 185.204C817.98 187.366 821.99 189.461 821.426 192.208C820.863 194.934 816.764 199.033 811.606 200.294C806.448 201.578 762.978 198.56 751.806 195.452C733.585 190.384 719.935 171.442 708.111 168.716C696.286 166.013 670.181 169.37 656.261 166.667C640.743 163.626 630.54 143.67 629.413 144.211C628.287 144.751 627.229 145.292 625.314 144.504C623.985 143.985 624.233 141.193 624.548 139.638Z" fill="#FFD957"/>
<path opacity="0.25" d="M684.326 285.928C681.826 291.492 652.162 335.367 652.162 335.367L683.29 277.369L684.326 285.928Z" fill="#262E33"/>
<path opacity="0.25" d="M694.552 329.016L681.713 343.634L680.992 343.431L693.718 324.736L694.552 329.016Z" fill="#262E33"/>
<path d="M460.014 297.393C471.478 298.181 482.425 297.145 493.664 294.51C495.398 294.105 497.223 293.564 498.394 292.078C500.173 289.803 499.633 285.996 497.718 283.856C495.804 281.739 492.943 281.109 490.286 281.401C488.596 281.582 486.839 282.1 485.195 281.582C483.146 280.906 481.794 278.766 480.42 276.919C479.046 275.072 477.177 273.225 475.06 273.518C473.483 273.743 472.222 275.095 470.803 275.951C469.384 276.807 467.334 276.897 466.523 275.32C464.789 271.964 467.221 262.752 458.302 262.752C445.419 262.752 447.513 272.009 445.982 273.969C443.639 276.942 439.45 276.289 436.049 275.275C432.648 274.261 428.594 273.315 425.958 275.973C423.683 278.293 423.436 282.528 421.026 284.622C418.458 286.875 414.787 285.681 411.656 284.667C408.525 283.654 404.493 283.293 402.692 286.357C401.182 288.924 402.309 292.663 404.471 294.555C406.633 296.447 409.494 296.898 412.196 297.078C429.832 298.317 445.847 296.425 460.014 297.393Z" fill="#FBFBFF"/>
<path d="M728.72 55.1975C722.526 55.1975 709.823 66.1664 727.999 67.9233C746.153 69.6801 773.361 68.8693 784.375 68.9143C802.349 68.9819 806.809 68.2386 806.651 60.8959C806.561 56.639 804.264 53.8911 794.804 52.7874C784.938 51.6387 789.984 40.6698 777.956 41.0076C767.708 41.3004 766.672 55.6254 757.28 52.1117C747.91 48.5981 749.869 58.1706 743.022 59.9274C735.477 61.8644 734.914 55.1975 728.72 55.1975Z" fill="#FBFBFF"/>
</svg>
