<svg width="157" height="40" viewBox="0 0 157 40" fill="none" xmlns="http://www.w3.org/2000/svg">
<path d="M31.25 15.625C31.25 22.2188 27.1563 27.875 21.3438 30.1562C20.5938 30.4688 19.8125 30.6875 19 30.875C17.9062 31.125 16.7812 31.25 15.625 31.25H15.5938C14.6875 31.25 13.8125 31.1875 12.9688 31.0312C11.625 30.8125 10.3125 30.4062 9.125 29.8438H1.09375V21.375C0.375 19.5938 0 17.6562 0 15.625C0 7 7 0 15.625 0C20.8438 0 25.4375 2.53125 28.2812 6.46875C27.0625 6.5625 25.875 6.78125 24.75 7.09375C22.4687 4.65625 19.2188 3.125 15.625 3.125C8.71875 3.125 3.125 8.71875 3.125 15.625C3.125 16.2188 3.15625 16.7812 3.25 17.3438C3.40625 18.5312 3.75 19.6875 4.21875 20.75V26.7188H9.875C10.5625 27.0625 11.2812 27.375 12.0312 27.5938C12.5625 27.75 13.0937 27.875 13.625 27.9688C13.9375 28.0312 14.2188 28.0625 14.5312 28.0938C14.9062 28.125 15.2812 28.1562 15.6562 28.1562C16.375 28.1562 17.0625 28.0938 17.75 27.9688C18.5312 27.8438 19.2812 27.625 20 27.375C24.75 25.5938 28.1562 21.0312 28.1562 15.6562C28.1562 15.2188 28.125 14.8125 28.0938 14.375C28.625 14.2812 29.1562 14.25 29.7188 14.25C30.2188 14.25 30.7188 14.2812 31.2188 14.3438C31.2188 14.75 31.25 15.1875 31.25 15.625Z" fill="#FBFBFF"/>
<path d="M45.3125 24.375C45.3125 26.6875 44.8125 28.875 43.9062 30.8438V38.9062H35.4375C33.6562 39.625 31.7188 40 29.6875 40C24.4688 40 19.875 37.4375 17.0312 33.5312C18.25 33.4375 19.4375 33.2188 20.5625 32.9062C22.8438 35.3438 26.0938 36.875 29.6875 36.875C30.2812 36.875 30.8438 36.8438 31.4062 36.75C32.5938 36.5938 33.75 36.25 34.8125 35.7812H40.7812V30.125C41.375 28.9688 41.8125 27.7188 42.0312 26.4062C42.1562 25.75 42.1875 25.0625 42.1875 24.375C42.1875 18.7188 38.4375 13.9688 33.3125 12.4063C32.5 12.1563 31.6875 12 30.8125 11.9375C30.4375 11.9063 30.0625 11.875 29.6875 11.875C28.9688 11.875 28.2813 11.9375 27.5938 12.0625C26.8125 12.1875 26.0625 12.4062 25.3438 12.6562C20.5937 14.4375 17.1875 19 17.1875 24.375C17.1875 24.8125 17.2188 25.2188 17.25 25.6562C16.7188 25.75 16.1875 25.7812 15.625 25.7812C15.125 25.7812 14.625 25.75 14.125 25.6562C14.0938 25.2188 14.0625 24.7812 14.0625 24.375C14.0625 17.75 18.1562 12.125 23.9687 9.84375C24.7187 9.5625 25.5 9.3125 26.3125 9.125C27.4062 8.875 28.5312 8.75 29.6875 8.75H29.7188C30.625 8.75 31.5 8.8125 32.3438 8.96875C39.6875 10.2188 45.3125 16.6562 45.3125 24.375Z" fill="#FBFBFF"/>
<path d="M63.5313 27.3438H56.3125L55.1563 30.75H50.2188L57.2188 11.4375H62.6562L69.6562 30.75H64.6875L63.5313 27.3438ZM62.3438 23.7188L59.9375 16.6563L57.5625 23.7188H62.3438Z" fill="#FBFBFF"/>
<path d="M72.3125 18.9062C72.9062 17.7188 73.7187 16.8125 74.75 16.1563C75.7812 15.5 76.9375 15.1875 78.1875 15.1875C79.1875 15.1875 80.125 15.4062 80.9375 15.8125C81.7812 16.25 82.4375 16.8125 82.9062 17.5312V10.4062H87.5937V30.75H82.9062V28.5625C82.4687 29.2812 81.8437 29.875 81.0312 30.3125C80.2187 30.75 79.2812 30.9688 78.1875 30.9688C76.9375 30.9688 75.7812 30.6562 74.75 30C73.7187 29.3438 72.9062 28.4375 72.3125 27.2188C71.7187 26.0312 71.4062 24.625 71.4062 23.0625C71.4375 21.4688 71.7187 20.0938 72.3125 18.9062ZM81.9375 20.3125C81.2813 19.625 80.5 19.2812 79.5625 19.2812C78.625 19.2812 77.8438 19.625 77.1875 20.2813C76.5312 20.9375 76.2187 21.875 76.2187 23.0312C76.2187 24.2187 76.5312 25.125 77.1875 25.8125C77.8438 26.5 78.625 26.8438 79.5625 26.8438C80.5 26.8438 81.2813 26.5 81.9375 25.8125C82.5938 25.125 82.9062 24.2187 82.9062 23.0312C82.9375 21.9062 82.5938 20.9688 81.9375 20.3125Z" fill="#FBFBFF"/>
<path d="M98.5312 26.3438L101.844 15.4062H106.844L101.406 30.75H95.5937L90.1562 15.4062H95.1875L98.5312 26.3438Z" fill="#FBFBFF"/>
<path d="M109.75 13.0938C109.219 12.5938 108.969 12 108.969 11.2812C108.969 10.5625 109.219 9.9375 109.75 9.4375C110.281 8.9375 110.938 8.71875 111.781 8.71875C112.594 8.71875 113.25 8.96875 113.781 9.4375C114.312 9.9375 114.562 10.5312 114.562 11.2812C114.562 12 114.312 12.5938 113.781 13.0938C113.25 13.5938 112.594 13.8125 111.781 13.8125C110.938 13.8125 110.281 13.5625 109.75 13.0938ZM114.125 15.4062V30.75H109.438V15.4062H114.125Z" fill="#FBFBFF"/>
<path d="M132.469 24.1875H121.812C121.875 25.1562 122.188 25.875 122.719 26.375C123.25 26.875 123.938 27.125 124.719 27.125C125.906 27.125 126.719 26.625 127.156 25.625H132.156C131.906 26.625 131.438 27.5312 130.781 28.3437C130.125 29.1562 129.281 29.7812 128.25 30.25C127.25 30.7188 126.125 30.9375 124.875 30.9375C123.375 30.9375 122.031 30.625 120.875 29.9688C119.688 29.3125 118.781 28.4062 118.125 27.2187C117.469 26.0312 117.125 24.625 117.125 23.0312C117.125 21.4375 117.438 20.0312 118.094 18.8437C118.75 17.6562 119.656 16.75 120.844 16.0937C122.031 15.4375 123.375 15.125 124.875 15.125C126.375 15.125 127.688 15.4375 128.844 16.0625C130 16.6875 130.906 17.5625 131.563 18.7188C132.219 19.875 132.531 21.2188 132.531 22.75C132.563 23.2813 132.531 23.7188 132.469 24.1875ZM127.75 21.5937C127.75 20.7812 127.469 20.1562 126.938 19.6562C126.375 19.1875 125.688 18.9375 124.875 18.9375C124.094 18.9375 123.438 19.1562 122.875 19.625C122.344 20.0937 122 20.7187 121.875 21.5625H127.75V21.5937Z" fill="#FBFBFF"/>
<path d="M138.281 30.2813C137.25 29.8125 136.406 29.1875 135.813 28.4063C135.219 27.5938 134.875 26.7188 134.781 25.7188H139.438C139.5 26.25 139.75 26.6875 140.188 27C140.625 27.3438 141.156 27.5 141.813 27.5C142.406 27.5 142.844 27.375 143.188 27.1563C143.5 26.9375 143.656 26.625 143.656 26.25C143.656 25.8125 143.438 25.5 142.969 25.2813C142.5 25.0625 141.781 24.8438 140.75 24.5938C139.656 24.3437 138.719 24.0625 138 23.7812C137.281 23.5 136.625 23.0625 136.094 22.4375C135.563 21.8125 135.281 21 135.281 19.9375C135.281 19.0625 135.531 18.25 136 17.5312C136.5 16.8125 137.188 16.25 138.156 15.8125C139.094 15.4063 140.219 15.1875 141.531 15.1875C143.469 15.1875 144.969 15.6563 146.094 16.625C147.188 17.5938 147.844 18.8438 148 20.4063H143.656C143.594 19.875 143.344 19.4688 142.969 19.1563C142.563 18.8438 142.063 18.6875 141.406 18.6875C140.844 18.6875 140.438 18.7813 140.156 19C139.875 19.2188 139.719 19.5 139.719 19.875C139.719 20.3125 139.938 20.6563 140.406 20.875C140.875 21.0938 141.594 21.3125 142.594 21.5313C143.719 21.8125 144.656 22.125 145.375 22.4062C146.094 22.6875 146.719 23.1562 147.25 23.7812C147.781 24.4062 148.063 25.25 148.094 26.3125C148.094 27.2188 147.844 28 147.344 28.7188C146.844 29.4375 146.125 29.9688 145.156 30.375C144.219 30.7812 143.125 30.9688 141.875 30.9688C140.531 30.9688 139.344 30.75 138.281 30.2813Z" fill="#FBFBFF"/>
<path d="M151.719 30.25C151.187 29.75 150.938 29.1563 150.938 28.4375C150.938 27.7188 151.187 27.0938 151.719 26.5938C152.25 26.0938 152.906 25.8438 153.75 25.8438C154.562 25.8438 155.219 26.0938 155.75 26.5938C156.281 27.0938 156.531 27.7188 156.531 28.4375C156.531 29.1563 156.281 29.75 155.75 30.25C155.219 30.75 154.562 30.9688 153.75 30.9688C152.906 30.9688 152.25 30.7188 151.719 30.25Z" fill="#FBFBFF"/>
</svg>
