<svg width="339" height="344" viewBox="0 0 339 344" fill="none" xmlns="http://www.w3.org/2000/svg">
<path d="M310.546 196.073C310.546 196.073 313.085 200.734 314.021 200.466C314.956 200.198 317.014 198.939 318.377 197.225C318.805 196.689 319.447 196.394 320.168 196.207C321.291 195.939 322.6 195.939 323.696 195.858C324.979 195.778 325.915 195.59 325.781 194.706C325.594 193.474 323.483 192.483 328.427 189.214C329.363 188.598 327.332 187.125 325.354 186.723C325.193 186.696 325.033 186.669 324.872 186.642C323.777 186.535 322.6 187.044 321.558 187.794C320.329 188.652 319.286 189.777 318.805 190.5C317.816 191.974 316.48 192.268 314.609 193.286C312.631 194.331 311.909 195.081 310.546 196.073Z" fill="#EFAEA6"/>
<path opacity="0.18" d="M320.195 196.207C321.318 195.939 322.628 195.939 323.723 195.858L325.354 186.723C325.194 186.696 325.033 186.669 324.873 186.642C323.777 186.535 322.601 187.044 321.558 187.794C321.077 191.09 320.516 194.304 320.195 196.207Z" fill="#262E33"/>
<path d="M315.143 324.664L303.516 323.057L301.298 339.157C300.844 342.372 303.089 345.346 306.296 345.801C309.504 346.257 312.47 344.006 312.925 340.792L315.143 324.664Z" fill="#FF778D"/>
<path d="M302.367 331.147L303.517 331.308L306.377 331.71L311.375 332.406L311.615 332.433L313.994 332.755L338.424 156.665L338.371 156.343L336.366 143.993C336.019 141.877 333.159 141.475 332.25 143.43L326.824 155.057L326.744 155.593L302.367 331.147Z" fill="#FFD957"/>
<path d="M338.425 156.665L336.286 139.814C336.099 138.287 334.014 137.992 333.399 139.412L326.771 155.057L326.744 155.272C328.588 156.129 328.374 157.254 329.337 157.281C330.566 157.334 331.422 154.736 332.731 154.923C334.041 155.111 333.239 156.397 334.549 156.584C335.859 156.772 335.965 155.968 336.767 156.075C337.569 156.182 336.607 156.45 338.425 156.665Z" fill="#EFAEA6"/>
<path d="M336.767 143.484L336.019 137.456C335.912 136.572 334.709 136.411 334.361 137.215L332.009 142.787C331.982 142.868 332.009 142.948 332.089 143.002C333.346 143.805 333.827 142.653 334.736 142.868C335.163 142.975 335.885 143.296 336.58 143.645C336.633 143.698 336.767 143.618 336.767 143.484Z" fill="#3B3B4C"/>
<path opacity="0.09" d="M311.401 332.406L311.642 332.433L314.021 332.755L338.424 156.665L336.767 156.075C332.357 175.043 323.483 246.545 320.382 269.022C317.95 286.81 313.753 312.582 311.401 332.406Z" fill="#262E33"/>
<path d="M194.142 140.403C195.024 118.328 191.657 103.942 195.051 100.593C198.446 97.2178 217.049 96.6284 219 99.6288C220.951 102.629 219 153.878 219 153.878L194.142 140.403Z" fill="#262E33"/>
<path opacity="0.28" d="M219.027 153.878L194.142 140.403C194.677 127.303 193.688 116.908 193.528 109.916C200.13 106.246 208.977 102.629 219.374 100.888C220.737 109.434 219.027 153.878 219.027 153.878Z" fill="#262E33"/>
<path d="M244.526 346.123L21.5549 344.274C21.5549 344.274 23.3724 305.322 24.6821 259.618C24.7623 257.154 24.8158 254.689 24.896 252.224C26.4463 197.225 29.333 137.537 29.333 134.536C29.333 128.883 134.163 93.3064 143.973 91.324C153.755 89.3683 234.316 142.386 243.778 155.673C247.493 160.871 247.119 295.624 244.526 346.123Z" fill="#515160"/>
<path d="M-26.717 306.179C-8.59491 304.706 5.59807 312.046 3.64687 289.623C1.69566 267.173 18.909 260.395 17.4389 247.616C15.9688 234.864 14.3384 231.462 3.94087 230.792C-7.09811 230.069 -9.15622 208.449 -0.763382 201.27C15.0066 187.794 19.2297 170.408 5.11695 166.229C-13.6734 160.656 -6.13586 144.475 -20.8367 146.699C-35.5375 148.922 -57.562 163.657 -51.6817 182.302C-45.8014 200.948 -35.5375 215.683 -44.8391 221.068C-54.1408 226.452 -69.7236 233.337 -60.2349 246.089C-50.7195 258.841 -37.2482 254.18 -41.8188 269.423C-46.523 285.176 -60.716 286.435 -54.1407 295.651C-47.9931 304.223 -26.717 306.179 -26.717 306.179Z" fill="#419F81"/>
<g opacity="0.28">
<path opacity="0.28" d="M206.598 194.679C199.515 200.064 67.9291 197.573 62.9575 193.608C58.0127 189.643 60.9529 132.045 62.9575 128.75C70.6019 116.292 197.483 117.739 205.582 127.999C207.854 130.839 213.681 189.295 206.598 194.679Z" fill="#262E33"/>
</g>
<g opacity="0.95">
<path opacity="0.95" d="M80.2782 143.886C75.8412 148.333 76.2154 176.516 79.8238 178.766C83.4322 180.99 187.38 184.714 190.909 178.981C196.575 169.738 194.223 151.307 192.031 144.77C190.668 140.805 86.8802 137.269 80.2782 143.886Z" fill="#FBFBFF"/>
</g>
<g opacity="0.88">
<path opacity="0.88" d="M97.01 229.587L80.1175 230.337C77.8455 230.337 75.8409 227.31 75.8409 224.524V217.049C75.8409 214.263 77.899 211.048 80.1709 211.048L96.9833 210.78C99.2552 210.78 101.099 213.057 101.099 215.844V224.497C101.126 227.31 99.282 229.587 97.01 229.587Z" fill="#262E33"/>
</g>
<g opacity="0.88">
<path opacity="0.88" d="M129.191 228.97L112.299 229.721C110.027 229.721 108.022 226.693 108.022 223.907V216.433C108.022 213.647 110.08 210.432 112.352 210.432L129.165 210.164C131.437 210.164 133.281 212.441 133.281 215.227V223.88C133.308 226.72 131.463 228.97 129.191 228.97Z" fill="#262E33"/>
</g>
<g opacity="0.88">
<path opacity="0.88" d="M159.662 228.97L142.77 229.721C140.498 229.721 138.493 226.693 138.493 223.907V216.433C138.493 213.647 140.551 210.432 142.823 210.432L159.636 210.164C161.908 210.164 163.752 212.441 163.752 215.227V223.88C163.805 226.72 161.961 228.97 159.662 228.97Z" fill="#262E33"/>
</g>
<g opacity="0.88">
<path opacity="0.88" d="M191.496 229.453L174.603 230.203C172.331 230.203 170.327 227.176 170.327 224.39V216.942C170.327 214.156 172.385 210.941 174.657 210.941L191.469 210.673C193.741 210.673 195.585 212.95 195.585 215.736V224.39C195.612 227.202 193.768 229.453 191.496 229.453Z" fill="#262E33"/>
</g>
<g opacity="0.95">
<path opacity="0.95" d="M95.9941 228.22L79.5292 228.944C77.3108 228.944 75.3596 226.05 75.3596 223.371V216.192C75.3596 213.513 77.3642 210.432 79.5827 210.432L95.9941 210.191C98.2126 210.191 100.003 212.361 100.003 215.04V223.345C100.003 226.05 98.2126 228.22 95.9941 228.22Z" fill="#FBFBFF"/>
</g>
<g opacity="0.95">
<path opacity="0.95" d="M128.043 228.22L111.578 228.944C109.359 228.944 107.408 226.05 107.408 223.371V216.192C107.408 213.513 109.413 210.432 111.631 210.432L128.043 210.191C130.261 210.191 132.052 212.361 132.052 215.04V223.345C132.079 226.05 130.261 228.22 128.043 228.22Z" fill="#FBFBFF"/>
</g>
<g opacity="0.95">
<path opacity="0.95" d="M158.861 228.22L142.396 228.944C140.177 228.944 138.226 226.05 138.226 223.371V216.192C138.226 213.513 140.231 210.432 142.449 210.432L158.861 210.191C161.079 210.191 162.87 212.361 162.87 215.04V223.345C162.87 226.05 161.079 228.22 158.861 228.22Z" fill="#FBFBFF"/>
</g>
<g opacity="0.95">
<path opacity="0.95" d="M190.4 228.22L173.935 228.944C171.717 228.944 169.765 226.05 169.765 223.371V216.192C169.765 213.513 171.77 210.432 173.989 210.432L190.4 210.191C192.619 210.191 194.409 212.361 194.409 215.04V223.345C194.436 226.05 192.619 228.22 190.4 228.22Z" fill="#FBFBFF"/>
</g>
<g opacity="0.88">
<path opacity="0.88" d="M97.01 256.109L80.1175 256.859C77.8455 256.859 75.8409 253.832 75.8409 251.045V243.571C75.8409 240.785 77.899 237.57 80.1709 237.57L96.9833 237.302C99.2552 237.302 101.099 239.579 101.099 242.365V251.019C101.126 253.832 99.282 256.109 97.01 256.109Z" fill="#262E33"/>
</g>
<g opacity="0.88">
<path opacity="0.88" d="M129.191 255.493L112.299 256.243C110.027 256.243 108.022 253.215 108.022 250.429V242.955C108.022 240.169 110.08 236.954 112.352 236.954L129.165 236.686C131.437 236.686 133.281 238.963 133.281 241.749V250.402C133.308 253.242 131.463 255.493 129.191 255.493Z" fill="#262E33"/>
</g>
<g opacity="0.88">
<path opacity="0.88" d="M159.662 255.493L142.77 256.243C140.498 256.243 138.493 253.215 138.493 250.429V242.955C138.493 240.169 140.551 236.954 142.823 236.954L159.636 236.686C161.908 236.686 163.752 238.963 163.752 241.749V250.402C163.805 253.242 161.961 255.493 159.662 255.493Z" fill="#262E33"/>
</g>
<g opacity="0.88">
<path opacity="0.88" d="M191.496 255.975L174.603 256.725C172.331 256.725 170.327 253.698 170.327 250.912V243.464C170.327 240.678 172.385 237.463 174.657 237.463L191.469 237.195C193.741 237.195 195.585 239.472 195.585 242.258V250.912C195.612 253.724 193.768 255.975 191.496 255.975Z" fill="#262E33"/>
</g>
<g opacity="0.95">
<path opacity="0.95" d="M95.9941 254.742L79.5292 255.466C77.3108 255.466 75.3596 252.572 75.3596 249.893V242.714C75.3596 240.035 77.3642 236.954 79.5827 236.954L95.9941 236.713C98.2126 236.713 100.003 238.883 100.003 241.562V249.867C100.003 252.572 98.2126 254.742 95.9941 254.742Z" fill="#FBFBFF"/>
</g>
<g opacity="0.95">
<path opacity="0.95" d="M128.043 254.742L111.578 255.466C109.359 255.466 107.408 252.572 107.408 249.893V242.714C107.408 240.035 109.413 236.954 111.631 236.954L128.043 236.713C130.261 236.713 132.052 238.883 132.052 241.562V249.867C132.079 252.572 130.261 254.742 128.043 254.742Z" fill="#FBFBFF"/>
</g>
<g opacity="0.95">
<path opacity="0.95" d="M158.861 254.742L142.396 255.466C140.177 255.466 138.226 252.572 138.226 249.893V242.714C138.226 240.035 140.231 236.954 142.449 236.954L158.861 236.713C161.079 236.713 162.87 238.883 162.87 241.562V249.867C162.87 252.572 161.079 254.742 158.861 254.742Z" fill="#FBFBFF"/>
</g>
<g opacity="0.95">
<path opacity="0.95" d="M190.4 254.742L173.935 255.466C171.717 255.466 169.765 252.572 169.765 249.893V242.714C169.765 240.035 171.77 236.954 173.989 236.954L190.4 236.713C192.619 236.713 194.409 238.883 194.409 241.562V249.867C194.436 252.572 192.619 254.742 190.4 254.742Z" fill="#FBFBFF"/>
</g>
<g opacity="0.88">
<path opacity="0.88" d="M97.01 284.613L80.1175 285.363C77.8455 285.363 75.8409 282.336 75.8409 279.55V272.076C75.8409 269.289 77.899 266.075 80.1709 266.075L96.9833 265.807C99.2552 265.807 101.099 268.084 101.099 270.87V279.523C101.126 282.336 99.282 284.613 97.01 284.613Z" fill="#262E33"/>
</g>
<g opacity="0.88">
<path opacity="0.88" d="M129.191 283.997L112.299 284.747C110.027 284.747 108.022 281.72 108.022 278.934V271.459C108.022 268.673 110.08 265.458 112.352 265.458L129.165 265.19C131.437 265.19 133.281 267.468 133.281 270.254V278.907C133.308 281.747 131.463 283.997 129.191 283.997Z" fill="#262E33"/>
</g>
<g opacity="0.88">
<path opacity="0.88" d="M159.662 283.997L142.77 284.747C140.498 284.747 138.493 281.72 138.493 278.934V271.459C138.493 268.673 140.551 265.458 142.823 265.458L159.636 265.19C161.908 265.19 163.752 267.468 163.752 270.254V278.907C163.805 281.747 161.961 283.997 159.662 283.997Z" fill="#262E33"/>
</g>
<g opacity="0.88">
<path opacity="0.88" d="M191.496 284.506L174.603 285.256C172.331 285.256 170.327 282.229 170.327 279.443V271.968C170.327 269.182 172.385 265.967 174.657 265.967L191.469 265.7C193.741 265.7 195.585 267.977 195.585 270.763V279.416C195.612 282.229 193.768 284.506 191.496 284.506Z" fill="#262E33"/>
</g>
<g opacity="0.95">
<path opacity="0.95" d="M95.9941 283.247L79.5292 283.97C77.3108 283.97 75.3596 281.077 75.3596 278.398V271.218C75.3596 268.539 77.3642 265.458 79.5827 265.458L95.9941 265.217C98.2126 265.217 100.003 267.387 100.003 270.066V278.371C100.003 281.077 98.2126 283.247 95.9941 283.247Z" fill="#FBFBFF"/>
</g>
<g opacity="0.95">
<path opacity="0.95" d="M128.043 283.247L111.578 283.97C109.359 283.97 107.408 281.077 107.408 278.398V271.218C107.408 268.539 109.413 265.458 111.631 265.458L128.043 265.217C130.261 265.217 132.052 267.387 132.052 270.066V278.371C132.079 281.077 130.261 283.247 128.043 283.247Z" fill="#FBFBFF"/>
</g>
<g opacity="0.95">
<path opacity="0.95" d="M158.861 283.247L142.396 283.97C140.177 283.97 138.226 281.077 138.226 278.398V271.218C138.226 268.539 140.231 265.458 142.449 265.458L158.861 265.217C161.079 265.217 162.87 267.387 162.87 270.066V278.371C162.87 281.077 161.079 283.247 158.861 283.247Z" fill="#FBFBFF"/>
</g>
<g opacity="0.95">
<path opacity="0.95" d="M190.4 283.247L173.935 283.97C171.717 283.97 169.765 281.077 169.765 278.398V271.218C169.765 268.539 171.77 265.458 173.989 265.458L190.4 265.217C192.619 265.217 194.409 267.387 194.409 270.066V278.371C194.436 281.077 192.619 283.247 190.4 283.247Z" fill="#FBFBFF"/>
</g>
<g opacity="0.88">
<path opacity="0.88" d="M97.01 309.903L80.1175 310.653C77.8455 310.653 75.8409 307.626 75.8409 304.84V297.365C75.8409 294.579 77.899 291.364 80.1709 291.364L96.9833 291.096C99.2552 291.096 101.099 293.374 101.099 296.16V304.813C101.126 307.626 99.282 309.903 97.01 309.903Z" fill="#262E33"/>
</g>
<g opacity="0.88">
<path opacity="0.88" d="M129.191 309.287L112.299 310.037C110.027 310.037 108.022 307.01 108.022 304.223V296.749C108.022 293.963 110.08 290.748 112.352 290.748L129.165 290.48C131.437 290.48 133.281 292.757 133.281 295.544V304.197C133.308 307.036 131.463 309.287 129.191 309.287Z" fill="#262E33"/>
</g>
<g opacity="0.88">
<path opacity="0.88" d="M159.662 309.287L142.77 310.037C140.498 310.037 138.493 307.01 138.493 304.223V296.749C138.493 293.963 140.551 290.748 142.823 290.748L159.636 290.48C161.908 290.48 163.752 292.757 163.752 295.544V304.197C163.805 307.036 161.961 309.287 159.662 309.287Z" fill="#262E33"/>
</g>
<g opacity="0.95">
<path opacity="0.95" d="M95.9941 308.537L79.5292 309.26C77.3108 309.26 75.3596 306.367 75.3596 303.688V296.508C75.3596 293.829 77.3642 290.748 79.5827 290.748L95.9941 290.507C98.2126 290.507 100.003 292.677 100.003 295.356V303.661C100.003 306.367 98.2126 308.537 95.9941 308.537Z" fill="#FBFBFF"/>
</g>
<g opacity="0.95">
<path opacity="0.95" d="M128.043 308.537L111.578 309.26C109.359 309.26 107.408 306.367 107.408 303.688V296.508C107.408 293.829 109.413 290.748 111.631 290.748L128.043 290.507C130.261 290.507 132.052 292.677 132.052 295.356V303.661C132.079 306.367 130.261 308.537 128.043 308.537Z" fill="#FBFBFF"/>
</g>
<g opacity="0.95">
<path opacity="0.95" d="M158.861 308.537L142.396 309.26C140.177 309.26 138.226 306.367 138.226 303.688V296.508C138.226 293.829 140.231 290.748 142.449 290.748L158.861 290.507C161.079 290.507 162.87 292.677 162.87 295.356V303.661C162.87 306.367 161.079 308.537 158.861 308.537Z" fill="#FBFBFF"/>
</g>
<g opacity="0.88">
<path opacity="0.88" d="M97.01 338.247L80.1175 338.997C77.8455 338.997 75.8409 335.969 75.8409 333.183V325.709C75.8409 322.923 77.899 319.708 80.1709 319.708L96.9833 319.44C99.2552 319.44 101.099 321.717 101.099 324.503V333.157C101.126 335.996 99.282 338.247 97.01 338.247Z" fill="#262E33"/>
</g>
<g opacity="0.88">
<path opacity="0.88" d="M129.191 337.657L112.299 338.407C110.027 338.407 108.022 335.38 108.022 332.594V325.12C108.022 322.333 110.08 319.119 112.352 319.119L129.165 318.851C131.437 318.851 133.281 321.128 133.281 323.914V332.567C133.308 335.38 131.463 337.657 129.191 337.657Z" fill="#262E33"/>
</g>
<g opacity="0.88">
<path opacity="0.88" d="M159.662 337.657L142.77 338.407C140.498 338.407 138.493 335.38 138.493 332.594V325.12C138.493 322.333 140.551 319.119 142.823 319.119L159.636 318.851C161.908 318.851 163.752 321.128 163.752 323.914V332.567C163.805 335.38 161.961 337.657 159.662 337.657Z" fill="#262E33"/>
</g>
<g opacity="0.95">
<path opacity="0.95" d="M95.9941 336.88L79.5292 337.604C77.3108 337.604 75.3596 334.71 75.3596 332.031V324.852C75.3596 322.173 77.3642 319.092 79.5827 319.092L95.9941 318.851C98.2126 318.851 100.003 321.021 100.003 323.7V332.005C100.003 334.71 98.2126 336.88 95.9941 336.88Z" fill="#FBFBFF"/>
</g>
<g opacity="0.95">
<path opacity="0.95" d="M128.043 336.88L111.578 337.604C109.359 337.604 107.408 334.71 107.408 332.031V324.852C107.408 322.173 109.413 319.092 111.631 319.092L128.043 318.851C130.261 318.851 132.052 321.021 132.052 323.7V332.005C132.079 334.71 130.261 336.88 128.043 336.88Z" fill="#FBFBFF"/>
</g>
<g opacity="0.95">
<path opacity="0.95" d="M158.861 336.88L142.396 337.604C140.177 337.604 138.226 334.71 138.226 332.031V324.852C138.226 322.173 140.231 319.092 142.449 319.092L158.861 318.851C161.079 318.851 162.87 321.021 162.87 323.7V332.005C162.87 334.71 161.079 336.88 158.861 336.88Z" fill="#FBFBFF"/>
</g>
<g opacity="0.88">
<path opacity="0.88" d="M189.358 338.568H176.608C174.283 338.568 172.412 336.693 172.412 334.362V296.91C172.412 294.579 174.283 292.704 176.608 292.704H189.358C191.683 292.704 193.554 294.579 193.554 296.91V334.362C193.554 336.693 191.657 338.568 189.358 338.568Z" fill="#262E33"/>
</g>
<g opacity="0.95">
<path opacity="0.95" d="M188.022 337.041H174.043C171.69 337.041 169.793 335.139 169.793 332.781V296.963C169.793 294.606 171.69 292.704 174.043 292.704H188.048C190.401 292.704 192.298 294.606 192.298 296.963V332.781C192.298 335.139 190.374 337.041 188.022 337.041Z" fill="#FBFBFF"/>
</g>
<g opacity="0.88">
<path opacity="0.88" d="M88.4033 216.486C87.6816 216.486 87.1203 216.754 86.7461 217.263C86.3719 217.799 86.158 218.522 86.158 219.487C86.158 220.451 86.3719 221.201 86.7995 221.737C87.2272 222.273 87.8152 222.514 88.5369 222.514C88.9111 222.514 89.2586 222.461 89.5259 222.327C89.7932 222.193 90.0604 222.059 90.301 221.898C90.4614 222.059 90.595 222.246 90.6752 222.461C90.7554 222.675 90.8089 222.943 90.8089 223.237C90.8089 223.693 90.595 224.095 90.1674 224.416C89.7397 224.738 89.0982 224.898 88.2162 224.898C87.5747 224.898 86.9867 224.791 86.4521 224.577C85.8908 224.363 85.4097 224.041 85.0087 223.586C84.6078 223.13 84.2603 222.595 84.0197 221.898C83.7792 221.228 83.6723 220.425 83.6723 219.46C83.6723 218.576 83.7792 217.826 84.0197 217.156C84.2603 216.486 84.5543 215.924 84.9552 215.468C85.3562 215.013 85.8106 214.665 86.3452 214.424C86.8797 214.182 87.4411 214.075 88.0558 214.075C88.9111 214.075 89.5794 214.236 90.0605 214.584C90.5416 214.933 90.7821 215.361 90.7821 215.87C90.7821 216.165 90.7287 216.406 90.595 216.62C90.4614 216.835 90.3277 216.995 90.1674 217.129C89.9268 216.942 89.6595 216.781 89.3923 216.647C89.0982 216.567 88.7775 216.486 88.4033 216.486Z" fill="#262E33"/>
</g>
<g opacity="0.88">
<path opacity="0.88" d="M118.821 217.103C118.821 218.067 118.58 218.817 118.099 219.353C117.618 219.889 116.976 220.157 116.228 220.157C115.453 220.157 114.811 219.889 114.33 219.353C113.849 218.817 113.609 218.067 113.609 217.103C113.609 216.138 113.849 215.415 114.33 214.852C114.811 214.316 115.426 214.049 116.228 214.049C117.003 214.049 117.618 214.316 118.099 214.852C118.58 215.415 118.821 216.165 118.821 217.103ZM115.56 217.103C115.56 217.478 115.613 217.772 115.747 217.96C115.881 218.147 116.014 218.228 116.201 218.228C116.388 218.228 116.549 218.147 116.656 217.96C116.789 217.772 116.843 217.478 116.843 217.103C116.843 216.728 116.789 216.46 116.656 216.272C116.522 216.085 116.388 216.004 116.201 216.004C116.014 216.004 115.854 216.085 115.747 216.272C115.613 216.46 115.56 216.728 115.56 217.103ZM121.841 214.049C122.215 214.102 122.536 214.236 122.83 214.397C123.124 214.558 123.258 214.799 123.284 215.093C123.284 215.308 123.231 215.522 123.151 215.736C123.071 215.951 122.964 216.192 122.803 216.406L117.19 226.077C116.843 226.024 116.549 225.89 116.335 225.729C116.094 225.568 115.987 225.327 115.961 225.032C115.961 224.818 115.987 224.631 116.014 224.416C116.041 224.229 116.121 223.988 116.255 223.72L121.841 214.049ZM125.61 223.023C125.61 223.988 125.369 224.738 124.888 225.273C124.407 225.809 123.766 226.077 123.017 226.077C122.242 226.077 121.6 225.809 121.119 225.273C120.638 224.738 120.398 223.988 120.398 223.023C120.398 222.059 120.638 221.335 121.119 220.773C121.6 220.237 122.215 219.969 123.017 219.969C123.792 219.969 124.407 220.237 124.888 220.773C125.343 221.335 125.61 222.085 125.61 223.023ZM122.349 223.023C122.349 223.398 122.402 223.693 122.536 223.88C122.67 224.068 122.803 224.148 122.99 224.148C123.177 224.148 123.338 224.068 123.445 223.88C123.578 223.693 123.632 223.398 123.632 223.023C123.632 222.648 123.578 222.38 123.445 222.193C123.311 222.005 123.177 221.925 122.99 221.925C122.803 221.925 122.643 222.005 122.536 222.193C122.402 222.38 122.349 222.675 122.349 223.023Z" fill="#262E33"/>
</g>
<g opacity="0.88">
<path opacity="0.88" d="M179.227 276.576C179.174 276.442 179.093 276.282 179.04 276.04C178.986 275.826 178.933 275.585 178.933 275.317C178.933 274.835 179.013 274.513 179.2 274.299C179.387 274.085 179.628 273.978 179.895 273.978H186.845C186.898 274.112 186.952 274.272 187.032 274.513C187.112 274.728 187.139 274.969 187.139 275.237C187.139 275.719 187.059 276.04 186.872 276.255C186.685 276.469 186.444 276.576 186.15 276.576H179.227Z" fill="#262E33"/>
</g>
<g opacity="0.88">
<path opacity="0.88" d="M178.853 242.151C178.934 241.669 179.121 241.267 179.361 240.946C179.602 240.624 179.923 240.49 180.297 240.49C180.644 240.49 180.938 240.597 181.125 240.812C181.312 241.026 181.526 241.294 181.767 241.669L182.809 243.276L184.547 240.49C185.135 240.49 185.616 240.624 185.963 240.865C186.311 241.106 186.471 241.455 186.471 241.883C186.471 242.044 186.444 242.205 186.418 242.339C186.391 242.473 186.311 242.607 186.257 242.741C186.177 242.875 186.097 243.035 185.963 243.223C185.856 243.41 185.696 243.625 185.536 243.866L184.467 245.286L186.578 248.634C186.525 249.117 186.364 249.518 186.097 249.786C185.83 250.081 185.509 250.215 185.135 250.215C184.734 250.215 184.386 250.054 184.146 249.786C183.905 249.518 183.665 249.197 183.451 248.795L182.569 247.322L180.911 250.161C180.858 250.161 180.805 250.161 180.724 250.161C180.671 250.161 180.617 250.161 180.564 250.161C180.003 250.161 179.602 250.027 179.308 249.76C179.014 249.492 178.88 249.143 178.88 248.768C178.88 248.447 178.934 248.179 179.067 247.938C179.201 247.697 179.415 247.375 179.709 246.973L180.992 245.178L178.853 242.151Z" fill="#262E33"/>
</g>
<g opacity="0.88">
<path opacity="0.88" d="M146.805 327.156C146.725 327.022 146.672 326.834 146.618 326.593C146.565 326.352 146.538 326.138 146.538 325.896C146.538 325.441 146.618 325.093 146.805 324.878C146.966 324.664 147.206 324.557 147.5 324.557H153.167C153.22 324.718 153.274 324.905 153.327 325.12C153.381 325.334 153.407 325.575 153.407 325.816C153.407 326.272 153.327 326.593 153.14 326.807C152.98 327.022 152.739 327.129 152.472 327.129H146.805V327.156ZM146.805 330.987C146.725 330.853 146.672 330.665 146.618 330.424C146.565 330.183 146.538 329.969 146.538 329.727C146.538 329.272 146.618 328.924 146.805 328.709C146.966 328.495 147.206 328.388 147.5 328.388H153.167C153.22 328.549 153.274 328.736 153.327 328.95C153.381 329.165 153.407 329.406 153.407 329.647C153.407 330.102 153.327 330.424 153.14 330.638C152.98 330.853 152.739 330.96 152.472 330.96H146.805V330.987Z" fill="#262E33"/>
</g>
<g opacity="0.88">
<path opacity="0.88" d="M120.104 329.46C120.104 328.924 120.237 328.468 120.531 328.12C120.799 327.772 121.199 327.584 121.681 327.584C122.162 327.584 122.536 327.772 122.83 328.12C123.097 328.468 123.258 328.924 123.258 329.46C123.258 329.995 123.124 330.451 122.83 330.799C122.536 331.147 122.162 331.335 121.681 331.335C121.199 331.335 120.799 331.147 120.531 330.799C120.237 330.451 120.104 329.995 120.104 329.46Z" fill="#262E33"/>
</g>
<g opacity="0.88">
<path opacity="0.88" d="M91.5041 328.174C91.5041 329.058 91.3972 329.861 91.2101 330.558C91.023 331.254 90.7557 331.844 90.4082 332.326C90.0608 332.808 89.6331 333.156 89.152 333.398C88.6709 333.639 88.1363 333.773 87.575 333.773C86.987 333.773 86.4791 333.639 85.9713 333.398C85.4902 333.156 85.0625 332.781 84.715 332.326C84.3676 331.844 84.1003 331.281 83.9132 330.558C83.7261 329.861 83.6191 329.058 83.6191 328.174C83.6191 327.289 83.7261 326.486 83.9132 325.789C84.1003 325.093 84.3676 324.503 84.715 324.048C85.0625 323.566 85.4902 323.217 85.9713 322.976C86.4524 322.735 86.987 322.601 87.575 322.601C88.1363 322.601 88.6709 322.735 89.152 322.976C89.6331 323.217 90.0608 323.592 90.4082 324.048C90.7557 324.53 91.023 325.093 91.2101 325.789C91.4239 326.459 91.5041 327.263 91.5041 328.174ZM89.0183 328.174C89.0183 327.156 88.8847 326.352 88.6441 325.789C88.4036 325.227 88.0294 324.959 87.575 324.959C87.1206 324.959 86.7731 325.227 86.5326 325.789C86.292 326.352 86.1851 327.129 86.1851 328.174C86.1851 329.192 86.292 329.995 86.5326 330.558C86.7731 331.12 87.1206 331.415 87.575 331.415C88.0294 331.415 88.3769 331.12 88.6441 330.558C88.8847 329.995 89.0183 329.192 89.0183 328.174Z" fill="#262E33"/>
</g>
<g opacity="0.88">
<path opacity="0.88" d="M87.1206 297.713L85.5971 298.276C85.4367 298.142 85.3031 297.981 85.1427 297.767C84.9823 297.553 84.9021 297.231 84.9021 296.856C84.9021 296.133 85.2763 295.624 86.0247 295.329L87.7354 294.633H88.2967C88.7243 294.633 89.0718 294.793 89.3391 295.088C89.6064 295.383 89.7133 295.811 89.7133 296.32V305.831C89.6064 305.858 89.446 305.884 89.2055 305.938C88.9916 305.992 88.7511 305.992 88.5372 305.992C88.3234 305.992 88.1096 305.965 87.9225 305.938C87.7354 305.911 87.6017 305.831 87.4681 305.724C87.3344 305.617 87.2543 305.456 87.1741 305.268C87.1206 305.081 87.0672 304.84 87.0672 304.518V297.713H87.1206Z" fill="#262E33"/>
</g>
<g opacity="0.88">
<path opacity="0.88" d="M119.062 294.606C119.623 294.606 120.104 294.686 120.532 294.847C120.959 295.008 121.334 295.249 121.628 295.543C121.922 295.838 122.162 296.186 122.323 296.561C122.483 296.963 122.563 297.392 122.563 297.847C122.563 299.08 121.975 300.232 120.826 301.33L118.901 303.179H122.429C122.483 303.313 122.536 303.473 122.59 303.661C122.643 303.848 122.67 304.063 122.67 304.304C122.67 304.732 122.59 305.027 122.429 305.215C122.269 305.402 122.055 305.483 121.815 305.483H116.736C116.522 305.295 116.362 305.081 116.228 304.813C116.095 304.545 116.041 304.223 116.041 303.848C116.041 303.447 116.121 303.125 116.255 302.83C116.389 302.562 116.549 302.348 116.709 302.187L118.741 300.125C118.981 299.857 119.195 299.642 119.382 299.428C119.543 299.214 119.676 299.053 119.783 298.865C119.89 298.705 119.97 298.544 119.997 298.41C120.051 298.276 120.051 298.142 120.051 298.008C120.051 297.687 119.944 297.419 119.703 297.231C119.463 297.044 119.169 296.963 118.821 296.963C118.42 296.963 118.073 297.044 117.779 297.178C117.458 297.312 117.217 297.472 117.003 297.633C116.843 297.499 116.709 297.312 116.603 297.097C116.496 296.883 116.442 296.642 116.442 296.374C116.442 295.758 116.683 295.329 117.164 295.008C117.592 294.74 118.26 294.606 119.062 294.606Z" fill="#262E33"/>
</g>
<g opacity="0.88">
<path opacity="0.88" d="M150.28 294.606C151.403 294.606 152.258 294.874 152.846 295.436C153.434 295.999 153.728 296.722 153.728 297.66C153.728 298.222 153.595 298.705 153.354 299.08C153.114 299.482 152.82 299.776 152.472 299.964C152.686 300.044 152.873 300.178 153.033 300.312C153.221 300.446 153.354 300.634 153.515 300.848C153.648 301.062 153.755 301.303 153.835 301.571C153.916 301.839 153.942 302.187 153.942 302.562C153.942 303.071 153.862 303.5 153.675 303.902C153.488 304.304 153.247 304.625 152.927 304.92C152.606 305.188 152.232 305.402 151.777 305.563C151.323 305.697 150.842 305.777 150.307 305.777C149.291 305.777 148.516 305.616 148.008 305.268C147.501 304.92 147.233 304.491 147.233 303.982C147.233 303.661 147.287 303.393 147.42 303.179C147.554 302.964 147.714 302.777 147.902 302.643C148.089 302.804 148.356 302.991 148.677 303.152C148.997 303.339 149.425 303.42 149.96 303.42C150.468 303.42 150.815 303.313 151.056 303.098C151.296 302.884 151.403 302.616 151.403 302.268C151.403 301.919 151.296 301.678 151.109 301.491C150.922 301.303 150.601 301.223 150.12 301.223H148.73C148.65 301.089 148.596 300.928 148.543 300.741C148.49 300.553 148.463 300.339 148.463 300.071C148.463 299.803 148.49 299.562 148.516 299.374C148.57 299.187 148.623 299.026 148.703 298.892H150.093C150.788 298.892 151.136 298.571 151.136 297.928C151.136 297.633 151.029 297.392 150.788 297.204C150.574 297.017 150.227 296.937 149.773 296.937C149.372 296.937 149.024 296.99 148.73 297.097C148.436 297.204 148.169 297.338 147.982 297.499C147.821 297.365 147.688 297.178 147.581 296.99C147.474 296.776 147.42 296.535 147.42 296.267C147.42 295.677 147.688 295.249 148.196 294.981C148.757 294.74 149.425 294.606 150.28 294.606Z" fill="#262E33"/>
</g>
<g opacity="0.88">
<path opacity="0.88" d="M87.3342 269.691C87.5213 269.611 87.7351 269.557 87.9757 269.504C88.2162 269.45 88.4301 269.423 88.6172 269.423C88.831 269.423 89.0715 269.45 89.2586 269.504C89.4725 269.557 89.6596 269.638 89.8199 269.772C89.9803 269.906 90.114 270.066 90.2209 270.281C90.3278 270.495 90.3545 270.763 90.3545 271.058V275.719H91.6642C91.7177 275.853 91.7711 276.014 91.8513 276.228C91.9048 276.442 91.9315 276.657 91.9315 276.898C91.9315 277.353 91.8513 277.648 91.691 277.835C91.5306 278.023 91.3167 278.103 91.0495 278.103H90.3545V280.166C90.2476 280.193 90.0872 280.22 89.8734 280.273C89.6596 280.327 89.4457 280.327 89.2586 280.327C89.0448 280.327 88.8577 280.327 88.6973 280.3C88.5369 280.273 88.4033 280.22 88.2697 280.139C88.1628 280.059 88.0826 279.925 88.0024 279.764C87.9489 279.603 87.9222 279.389 87.9222 279.094V278.103H84.2336C84.0198 277.969 83.806 277.755 83.6456 277.487C83.4853 277.219 83.4051 276.871 83.4051 276.469C83.4051 276.255 83.4318 276.014 83.4852 275.746C83.5387 275.478 83.6189 275.237 83.7258 275.049L87.3342 269.691ZM88.0826 272.451H88.0291L86.0779 275.746H88.0826V272.451Z" fill="#262E33"/>
</g>
<g opacity="0.88">
<path opacity="0.88" d="M119.195 280.488C118.74 280.488 118.339 280.434 117.965 280.354C117.591 280.273 117.27 280.139 117.03 279.979C116.762 279.818 116.549 279.604 116.415 279.362C116.281 279.121 116.201 278.853 116.201 278.532C116.201 278.21 116.281 277.943 116.442 277.701C116.602 277.487 116.762 277.3 116.976 277.166C117.244 277.407 117.538 277.621 117.858 277.809C118.179 277.996 118.58 278.076 119.034 278.076C119.489 278.076 119.81 277.943 120.023 277.701C120.211 277.46 120.317 277.166 120.317 276.817C120.317 276.469 120.237 276.201 120.05 275.987C119.89 275.773 119.596 275.665 119.168 275.665C118.901 275.665 118.687 275.692 118.5 275.773C118.313 275.853 118.126 275.933 117.912 276.067C117.431 276.04 117.057 275.88 116.762 275.612C116.495 275.317 116.335 274.888 116.335 274.299C116.335 274.272 116.335 274.219 116.335 274.165C116.335 274.112 116.335 274.004 116.362 273.844L116.549 271.191C116.575 270.682 116.709 270.307 116.95 270.013C117.19 269.718 117.511 269.584 117.939 269.584H122.162C122.215 269.718 122.269 269.879 122.349 270.093C122.402 270.307 122.429 270.522 122.429 270.763C122.429 271.218 122.349 271.513 122.188 271.701C122.028 271.888 121.814 271.968 121.547 271.968H118.74L118.634 273.603C118.821 273.549 119.008 273.495 119.195 273.442C119.382 273.388 119.622 273.361 119.916 273.361C120.424 273.361 120.852 273.442 121.226 273.629C121.6 273.817 121.894 274.058 122.135 274.38C122.376 274.701 122.563 275.049 122.67 275.478C122.776 275.907 122.83 276.335 122.83 276.817C122.83 277.3 122.75 277.755 122.616 278.21C122.482 278.666 122.269 279.041 121.975 279.362C121.681 279.684 121.306 279.952 120.852 280.166C120.398 280.38 119.836 280.488 119.195 280.488Z" fill="#262E33"/>
</g>
<g opacity="0.88">
<path opacity="0.88" d="M153.114 270.87C153.114 271.111 153.06 271.352 152.98 271.567C152.9 271.781 152.766 271.968 152.659 272.076C152.392 271.942 152.125 271.834 151.831 271.754C151.537 271.674 151.269 271.647 151.029 271.647C150.441 271.647 149.986 271.834 149.666 272.21C149.345 272.585 149.131 273.094 149.024 273.79C149.211 273.629 149.479 273.469 149.799 273.335C150.12 273.201 150.441 273.12 150.788 273.12C151.697 273.12 152.392 273.442 152.927 274.058C153.461 274.674 153.729 275.558 153.729 276.71C153.729 277.219 153.648 277.701 153.515 278.13C153.381 278.586 153.141 278.987 152.847 279.336C152.552 279.684 152.178 279.952 151.751 280.166C151.323 280.38 150.815 280.461 150.227 280.461C149.078 280.461 148.169 280.005 147.5 279.068C146.832 278.157 146.511 276.844 146.511 275.13C146.511 274.165 146.618 273.308 146.805 272.585C146.993 271.861 147.287 271.245 147.661 270.763C148.035 270.281 148.463 269.906 148.971 269.664C149.478 269.423 150.04 269.289 150.655 269.289C151.43 269.289 152.045 269.423 152.446 269.664C152.9 269.959 153.114 270.361 153.114 270.87ZM150.227 275.424C150.04 275.424 149.853 275.478 149.639 275.558C149.425 275.639 149.265 275.773 149.131 275.933V276.362C149.131 276.978 149.238 277.434 149.452 277.701C149.666 277.969 149.933 278.103 150.254 278.103C150.574 278.103 150.815 277.969 150.975 277.728C151.136 277.46 151.216 277.139 151.216 276.737C151.216 276.335 151.136 276.014 150.949 275.773C150.815 275.531 150.548 275.424 150.227 275.424Z" fill="#262E33"/>
</g>
<g opacity="0.88">
<path opacity="0.88" d="M149.131 248.822C149.746 248.822 150.254 248.634 150.628 248.232C151.002 247.857 151.189 247.322 151.189 246.652C151.082 246.759 150.895 246.866 150.601 247.027C150.307 247.161 149.933 247.241 149.505 247.241C149.051 247.241 148.65 247.161 148.276 247.027C147.901 246.866 147.581 246.652 147.34 246.357C147.073 246.062 146.859 245.687 146.725 245.259C146.592 244.83 146.511 244.321 146.511 243.759C146.511 243.25 146.592 242.794 146.725 242.339C146.859 241.883 147.1 241.481 147.394 241.16C147.688 240.812 148.062 240.544 148.489 240.329C148.917 240.115 149.425 240.035 150.013 240.035C151.163 240.035 152.071 240.49 152.74 241.428C153.408 242.339 153.729 243.651 153.729 245.366C153.729 246.33 153.622 247.188 153.408 247.911C153.194 248.634 152.927 249.25 152.552 249.759C152.178 250.242 151.751 250.617 151.243 250.858C150.735 251.099 150.174 251.233 149.559 251.233C148.784 251.233 148.169 251.099 147.714 250.858C147.287 250.59 147.046 250.215 147.046 249.679C147.046 249.438 147.1 249.197 147.18 248.983C147.26 248.768 147.394 248.581 147.5 248.474C147.768 248.607 148.035 248.715 148.329 248.795C148.623 248.795 148.89 248.822 149.131 248.822ZM150.067 245.018C150.254 245.018 150.441 244.964 150.628 244.884C150.815 244.803 150.975 244.669 151.109 244.509V244.294C151.109 243.625 151.002 243.142 150.815 242.848C150.628 242.553 150.361 242.392 149.986 242.392C149.666 242.392 149.425 242.499 149.238 242.741C149.051 242.982 148.971 243.303 148.971 243.705C148.971 244.107 149.078 244.428 149.291 244.669C149.479 244.884 149.746 245.018 150.067 245.018Z" fill="#262E33"/>
</g>
<g opacity="0.88">
<path opacity="0.88" d="M116.255 243.142C116.255 242.687 116.335 242.258 116.496 241.857C116.656 241.481 116.897 241.133 117.191 240.865C117.485 240.597 117.832 240.383 118.233 240.222C118.634 240.062 119.088 240.008 119.569 240.008C120.051 240.008 120.505 240.088 120.906 240.222C121.307 240.356 121.681 240.571 121.948 240.812C122.242 241.08 122.483 241.374 122.643 241.749C122.804 242.124 122.884 242.553 122.884 243.008C122.884 243.517 122.804 243.973 122.617 244.348C122.429 244.723 122.189 245.045 121.895 245.312C122.269 245.607 122.563 245.982 122.804 246.384C123.044 246.786 123.151 247.348 123.151 248.045C123.151 248.5 123.071 248.929 122.911 249.331C122.75 249.733 122.51 250.054 122.189 250.322C121.868 250.59 121.494 250.804 121.066 250.965C120.639 251.126 120.131 251.179 119.596 251.179C119.062 251.179 118.554 251.099 118.126 250.965C117.698 250.804 117.324 250.59 117.004 250.322C116.683 250.054 116.469 249.706 116.282 249.331C116.121 248.956 116.015 248.527 116.015 248.045C116.015 247.429 116.121 246.893 116.362 246.464C116.603 246.036 116.87 245.714 117.164 245.473C116.897 245.205 116.683 244.911 116.496 244.562C116.362 244.214 116.255 243.732 116.255 243.142ZM118.554 247.777C118.554 248.125 118.661 248.42 118.848 248.634C119.035 248.849 119.302 248.956 119.623 248.956C119.944 248.956 120.184 248.849 120.398 248.634C120.585 248.42 120.692 248.125 120.692 247.777C120.692 247.429 120.612 247.161 120.425 246.92C120.264 246.705 120.024 246.518 119.73 246.384C119.302 246.491 118.981 246.679 118.821 246.92C118.661 247.188 118.554 247.456 118.554 247.777ZM120.505 243.25C120.505 242.928 120.425 242.687 120.264 242.499C120.104 242.312 119.89 242.232 119.596 242.232C119.302 242.232 119.088 242.312 118.928 242.499C118.768 242.687 118.687 242.928 118.687 243.223C118.687 243.517 118.768 243.759 118.928 243.946C119.088 244.134 119.275 244.294 119.489 244.402C119.837 244.321 120.077 244.16 120.238 243.946C120.425 243.759 120.505 243.517 120.505 243.25Z" fill="#262E33"/>
</g>
<g opacity="0.88">
<path opacity="0.88" d="M89.4192 240.276C89.5796 240.41 89.7399 240.571 89.8736 240.812C90.0072 241.026 90.0607 241.321 90.0607 241.669C90.0607 241.857 90.0339 242.044 90.0072 242.232C89.9805 242.419 89.927 242.607 89.8736 242.794L86.8265 251.019C86.6928 251.019 86.5592 251.045 86.4255 251.045C86.2919 251.045 86.185 251.045 86.0781 251.045C85.6504 251.045 85.2762 250.938 85.0089 250.751C84.7416 250.563 84.608 250.215 84.608 249.733C84.608 249.492 84.6615 249.224 84.7416 248.929C84.8486 248.634 84.9822 248.313 85.1426 247.911L87.2809 242.687H83.6992C83.6458 242.553 83.5923 242.392 83.5121 242.178C83.4587 241.964 83.4319 241.749 83.4319 241.508C83.4319 241.053 83.5121 240.758 83.6725 240.571C83.8329 240.383 84.0467 240.303 84.314 240.303H89.4192V240.276Z" fill="#262E33"/>
</g>
<g opacity="0.88">
<path opacity="0.88" d="M183.157 320.994C183.05 321.048 182.863 321.101 182.596 321.155C182.328 321.181 182.061 321.208 181.794 321.208C181.259 321.208 180.885 321.101 180.618 320.914C180.351 320.699 180.217 320.271 180.217 319.601V317.109H177.33C177.25 316.949 177.17 316.734 177.116 316.44C177.063 316.172 177.036 315.904 177.036 315.609C177.036 315.073 177.143 314.672 177.33 314.404C177.544 314.163 177.811 314.029 178.159 314.029H180.217V310.198C180.351 310.144 180.538 310.09 180.805 310.037C181.072 309.983 181.313 309.956 181.58 309.956C182.088 309.956 182.489 310.064 182.756 310.278C183.023 310.492 183.157 310.948 183.157 311.617V314.002H185.99C186.044 314.189 186.124 314.404 186.177 314.672C186.258 314.939 186.284 315.207 186.284 315.502C186.284 316.038 186.177 316.413 185.99 316.681C185.776 316.922 185.509 317.056 185.188 317.056H183.157V320.994Z" fill="#262E33"/>
</g>
<g opacity="0.88">
<path opacity="0.88" d="M189.224 218.898C189.331 219.246 189.384 219.594 189.358 219.942C189.331 220.291 189.17 220.532 188.93 220.692C188.743 220.8 188.529 220.853 188.262 220.907C188.021 220.934 187.754 220.96 187.46 220.96L175.753 220.907C175.646 220.585 175.619 220.264 175.672 219.969C175.726 219.674 175.886 219.46 176.154 219.273C176.341 219.165 176.554 219.085 176.742 219.005C176.929 218.924 177.196 218.898 177.49 218.871L189.224 218.898ZM182.595 226.693C181.686 227.176 180.885 227.336 180.136 227.202C179.388 227.042 178.853 226.64 178.479 225.97C178.105 225.3 178.051 224.604 178.345 223.907C178.613 223.211 179.201 222.621 180.109 222.139C180.991 221.657 181.82 221.496 182.542 221.657C183.263 221.818 183.825 222.219 184.199 222.889C184.573 223.559 184.6 224.229 184.333 224.925C184.065 225.622 183.477 226.211 182.595 226.693ZM181.045 223.827C180.671 224.014 180.457 224.229 180.323 224.416C180.216 224.631 180.19 224.791 180.27 224.952C180.35 225.113 180.51 225.193 180.751 225.22C180.991 225.247 181.285 225.14 181.633 224.952C181.98 224.764 182.221 224.577 182.328 224.363C182.435 224.175 182.461 223.988 182.355 223.827C182.274 223.666 182.114 223.586 181.873 223.559C181.686 223.559 181.392 223.639 181.045 223.827ZM184.921 217.772C184.012 218.255 183.21 218.415 182.462 218.281C181.713 218.121 181.179 217.719 180.804 217.049C180.43 216.379 180.377 215.683 180.671 214.986C180.938 214.29 181.526 213.7 182.435 213.218C183.317 212.736 184.145 212.575 184.867 212.736C185.589 212.897 186.15 213.299 186.524 213.968C186.898 214.638 186.925 215.308 186.658 216.004C186.391 216.728 185.803 217.317 184.921 217.772ZM183.37 214.933C182.996 215.12 182.782 215.335 182.649 215.522C182.542 215.736 182.515 215.897 182.595 216.058C182.675 216.219 182.836 216.299 183.076 216.326C183.317 216.353 183.611 216.245 183.958 216.058C184.306 215.87 184.546 215.683 184.653 215.468C184.76 215.281 184.787 215.093 184.68 214.933C184.6 214.772 184.439 214.692 184.199 214.665C184.012 214.665 183.718 214.745 183.37 214.933Z" fill="#262E33"/>
</g>
<g opacity="0.88">
<path opacity="0.88" d="M147.661 223.746C147.581 223.8 147.447 223.827 147.233 223.854C147.02 223.88 146.832 223.907 146.619 223.907C146.218 223.907 145.924 223.827 145.71 223.666C145.496 223.505 145.389 223.184 145.389 222.648V220.719H143.171C143.09 220.585 143.037 220.424 143.01 220.21C142.957 219.996 142.957 219.782 142.957 219.594C142.957 219.165 143.037 218.871 143.197 218.683C143.358 218.496 143.572 218.388 143.839 218.388H145.416V215.442C145.523 215.415 145.656 215.361 145.87 215.334C146.057 215.281 146.271 215.281 146.458 215.281C146.859 215.281 147.153 215.361 147.367 215.522C147.581 215.683 147.688 216.031 147.688 216.54V218.362H149.853C149.906 218.496 149.96 218.683 150.013 218.871C150.067 219.085 150.093 219.299 150.093 219.514C150.093 219.915 150.013 220.21 149.853 220.424C149.692 220.612 149.479 220.719 149.238 220.719H147.688V223.746H147.661Z" fill="#262E33"/>
<path opacity="0.88" d="M152.552 226.479C152.419 226.506 152.285 226.506 152.152 226.533C152.018 226.533 151.911 226.533 151.804 226.533C151.403 226.533 151.082 226.425 150.869 226.211C150.655 225.997 150.548 225.675 150.548 225.193C150.548 224.872 150.575 224.55 150.655 224.229C150.735 223.907 150.788 223.613 150.869 223.371L153.461 212.28C153.595 212.254 153.755 212.254 153.862 212.227C153.996 212.227 154.103 212.227 154.21 212.227C154.611 212.227 154.905 212.334 155.145 212.521C155.386 212.709 155.493 213.03 155.493 213.486C155.493 213.834 155.466 214.156 155.386 214.45C155.305 214.745 155.225 215.067 155.172 215.361L152.552 226.479Z" fill="#262E33"/>
<path opacity="0.88" d="M156.241 221.362C156.161 221.228 156.107 221.068 156.054 220.853C156 220.639 155.974 220.425 155.974 220.183C155.974 219.755 156.054 219.433 156.214 219.246C156.375 219.058 156.588 218.951 156.856 218.951H159.983C160.037 219.085 160.09 219.246 160.17 219.46C160.224 219.674 160.277 219.889 160.277 220.13C160.277 220.559 160.197 220.88 160.037 221.068C159.876 221.255 159.662 221.362 159.395 221.362H156.241Z" fill="#262E33"/>
</g>
<path d="M268.315 165.586C268.315 165.586 267.967 168.318 266.764 170.622C265.936 172.229 264.68 173.623 262.835 173.756C258.345 174.078 143.946 91.324 143.946 91.324C143.946 91.324 33.636 141.716 29.7069 142.68C28.4774 143.002 26.3658 142.493 24.0137 141.555C18.8818 139.492 12.7074 135.34 12.7074 132.848C12.7074 129.258 140.658 83.7692 143.598 83.4478C146.592 83.1263 253.961 157.388 268.315 165.586Z" fill="#FF778D"/>
<path opacity="0.28" d="M266.764 170.622C265.936 172.229 264.679 173.623 262.835 173.756C258.345 174.078 143.946 91.3239 143.946 91.3239C143.946 91.3239 33.6361 141.716 29.7069 142.68C28.4774 143.002 26.3658 142.493 24.0137 141.555C54.5647 122.695 139.776 86.984 143.171 87.6002C146.431 88.1895 248.509 155.057 266.764 170.622Z" fill="#262E33"/>
<path d="M262.996 195.242C263.691 197.519 263.664 203.734 264.92 206.038L270.827 204.833C270.827 204.833 276.52 203.574 275.077 202.797C273.126 201.752 273.928 202.341 272.992 201.484C272.431 200.975 271.683 199.85 270.961 198.618C269.999 196.93 269.063 195.028 268.609 194.09C268.422 193.715 268.341 193.501 268.341 193.501L268.235 193.045L264.038 189.107C264.011 189.161 262.221 192.724 262.996 195.242Z" fill="#EFAEA6"/>
<path opacity="0.14" d="M270.934 198.644C269.972 196.957 269.036 195.055 268.582 194.117L267.085 194.144C267.085 194.144 265.321 194.653 265.107 195.483C264.76 196.742 268.502 201.002 270.934 198.644Z" fill="#262E33"/>
<path d="M259.013 320.699C261.178 319.735 266.31 316.574 266.31 316.574L263.209 310.707L255.565 315.529L255.271 320.78L259.013 320.699Z" fill="#FBFBFF"/>
<path d="M260.964 320.19C261.605 320.458 260.937 322.28 260.215 323.003C258.532 324.664 261.98 331.228 262.461 332.46C262.701 333.103 260.349 335.728 258.665 332.781C257.222 330.236 252.544 322.092 250.967 319.279C250.647 318.69 250.727 317.967 251.181 317.511C252.812 315.904 257.249 313.278 257.756 314.002C258.131 315.234 258.505 319.145 260.964 320.19Z" fill="#3B3B4C"/>
<path d="M278.739 339.345C278.632 336.961 277.536 331.04 277.536 331.04L270.934 331.817L272.645 340.711L277.402 342.881L278.739 339.345Z" fill="#FBFBFF"/>
<path d="M278.873 336.746C279.594 336.773 279.487 337.416 279.781 338.407C280.45 340.658 288.922 341.783 290.259 341.944C290.954 342.024 292.157 345.346 288.762 345.453C285.849 345.533 276.467 345.855 273.26 345.935C272.591 345.962 272.003 345.533 271.816 344.917C271.175 342.721 270.774 337.229 271.683 337.121C272.885 337.363 275.612 336.666 278.873 336.746Z" fill="#3B3B4C"/>
<path d="M257.142 263.208C257.383 264.253 257.677 265.405 258.024 266.637C259.334 271.299 263.049 287.105 264.359 297.312C265.669 307.465 270.293 330.987 270.854 334.603C274.168 335.461 276.013 334.737 280.316 333.103C280.316 333.103 278.017 313.466 276.2 296.24C274.73 282.256 275.157 283.622 274.943 265.539C274.997 265.619 275.879 267.227 277.215 269.745C280.049 275.076 284.726 282.39 285.608 289.757C286.036 293.293 259.361 309.394 258.398 310.144C257.436 310.894 262.889 319.065 263.851 319.065C264.813 319.065 298.384 298.303 299.079 292.543C299.721 287.292 285.234 248.42 282.267 238.561C282.267 238.561 254.068 236.981 254.683 246.357C254.763 247.643 254.897 248.768 255.084 249.813C255.325 251.233 255.458 252.573 255.619 254.046C255.859 256.457 256.18 259.19 257.142 263.208Z" fill="#3B3B4C"/>
<path opacity="0.46" d="M271.736 260.851C271.789 260.824 271.816 260.797 271.816 260.797C271.789 260.797 271.736 260.851 271.736 260.851Z" fill="#262E33"/>
<path opacity="0.79" d="M274.943 265.539C274.997 265.619 276.707 268.78 278.044 271.272L275.291 260.77C275.291 260.77 275.424 261.386 274.943 265.539Z" fill="#262E33"/>
<path opacity="0.35" d="M256.527 260.475C256.741 260.395 266.898 256.511 267.513 251.072C267.513 251.072 258.505 253.296 255.618 254.073C255.859 256.457 256.233 259.136 256.527 260.475Z" fill="#262E33"/>
<path d="M263.69 199.314C265.962 198.296 266.791 202.127 269.197 201.94C270.479 201.832 270.105 201.35 270.613 200.68C270.934 200.279 271.201 199.823 271.869 200.305C285.501 210.378 278.017 242.446 279.834 244.321C281.331 245.848 271.976 251.179 265.481 250.644C256.581 249.92 255.645 240.624 255.618 238.829C255.592 237.034 256.394 206.226 256.394 206.226C256.394 206.226 260.403 203.306 263.69 199.314Z" fill="#FBFBFF"/>
<path d="M277.215 247.429C277.616 249.733 278.204 251.367 279.193 252.037C280.984 253.216 283.176 253.135 285.367 250.028C285.501 249.84 285.608 249.679 285.715 249.465C288.495 244.187 283.897 231.569 283.042 228.435C282.695 227.176 282.106 225.488 281.545 223.747C280.85 221.577 280.316 215.308 280.93 214.049C283.283 209.387 292.825 213.111 301.164 211.745C305.441 211.048 318.511 199.341 319.66 198.216C321.264 196.608 315.357 191.116 314.502 191.813C312.951 193.072 301.458 202.449 299.4 203.226C295.979 204.511 282.401 199.421 271.869 200.332C271.869 200.332 271.869 200.707 272.003 201.565C272.11 202.261 272.297 203.279 272.645 204.672C272.832 205.476 273.099 206.414 273.42 207.485C275.398 214.236 272.27 219.755 274.355 227.979C275.264 231.516 275.772 235.159 276.146 238.508C276.52 241.91 276.787 245.018 277.215 247.429Z" fill="#0069A8"/>
<path d="M262.808 256.805C263.102 257.18 263.797 257.073 263.503 257.422C263.182 257.77 259.2 260.315 259.2 260.315C259.2 260.315 258.852 260.824 258.237 260.181C257.623 259.538 257.489 258.788 257.489 258.788L262.808 256.805Z" fill="#E79E9C"/>
<path d="M252.09 219.541C252.251 221.014 252.411 222.22 252.545 223.211C252.812 225.247 253.079 226.533 253.373 227.899C253.48 228.462 253.614 229.024 253.748 229.667C253.881 230.283 254.015 230.98 254.148 231.784C254.175 231.917 254.202 232.051 254.229 232.212C254.469 233.632 254.416 235.882 254.255 238.481C254.229 238.883 254.202 239.312 254.175 239.74C253.667 246.518 252.759 254.796 254.95 255.707C259.066 257.448 264.065 256.725 266.818 252.76C269.089 249.465 265.748 246.223 266.737 239.258C267.272 235.4 267.967 228.488 267.619 223.854C266.871 213.941 264.385 202.074 263.717 199.341C263.717 199.341 257.783 200.439 253.694 206.253C251.93 208.691 251.609 215.013 252.09 219.541Z" fill="#0069A8"/>
<path d="M261.686 211.611C251.903 235.025 249.819 232.319 250.059 235.855C250.3 239.392 263.183 256.859 263.183 256.859C263.183 256.859 257.516 261.172 256.768 260.341C256.02 259.511 241.373 241.562 241.586 236.177C241.88 228.569 252.358 208.396 253.721 206.199C255.084 204.029 262.14 202.074 262.595 205.503C263.049 208.932 261.686 211.611 261.686 211.611Z" fill="#0069A8"/>
<path opacity="0.24" d="M253.587 228.703C253.721 229.426 253.881 230.257 254.068 231.248C254.095 231.408 254.122 231.596 254.148 231.757C254.175 231.891 254.202 232.025 254.229 232.185C254.469 233.605 254.416 235.856 254.255 238.454C258.211 233.177 256.875 222.487 256.875 222.487L253.587 228.703Z" fill="#262E33"/>
<path opacity="0.24" d="M253.881 243.223C254.469 244.723 262.515 255.921 262.515 255.921L254.068 240.999L253.881 243.223Z" fill="#262E33"/>
<path opacity="0.24" d="M269.01 202.663C268.796 202.529 266.925 206.708 264.118 208.182C263.343 208.584 262.514 208.878 261.606 208.985C258.986 209.253 254.87 210.512 251.556 210.271C252.625 208.048 253.106 206.949 254.282 205.262C256.714 205.878 259.815 206.655 261.151 206.467C262.167 206.306 263.102 205.985 263.958 205.583C265.588 204.806 266.925 203.708 267.94 202.743C268.448 202.261 268.502 201.538 269.143 201.484C270.025 201.377 269.304 202.824 269.01 202.663Z" fill="#262E33"/>
<path d="M270.292 201.779C270.239 201.377 269.891 200.734 269.036 200.814C268.368 200.868 268.341 201.136 267.833 201.618C266.283 203.092 263.931 204.913 261.017 205.342C258.104 205.797 251.181 202.395 246.905 203.52C242.628 204.645 241.586 208.45 235.411 209.709C229.237 210.968 222.341 208.744 220.523 209.146C218.706 209.548 217.61 209.977 217.717 210.673C217.824 211.37 218.813 212.495 220.149 212.923C221.486 213.352 232.926 213.566 235.919 213.031C240.784 212.147 244.713 207.673 247.867 207.244C251.021 206.815 257.81 208.262 261.498 207.887C265.615 207.458 268.662 202.663 268.956 202.824C269.25 202.984 269.517 203.145 270.025 202.984C270.346 202.877 270.346 202.181 270.292 201.779Z" fill="#FFD957"/>
<path d="M270.961 185.678C271.683 187.66 274.971 190.929 273.608 191.304C272.218 191.679 275.158 195.483 273.714 195.939C270.186 197.037 265.482 195.912 264.546 194.331C263.611 192.751 262.541 187.928 262.541 187.928L270.961 185.678Z" fill="#EFAEA6"/>
<path d="M267.834 188.625C268.983 188.437 269.09 188.705 269.785 188.116C270.48 187.527 268.796 186.83 270.213 186.187C271.603 185.544 273.206 185.008 272.886 183.321C272.431 180.856 270.4 181.82 269.144 182.463C268.342 182.865 267.62 181.097 265.936 181.633C264.6 182.061 264.974 182.785 263.825 183.24C263.13 183.508 261.392 182.704 260.51 183.883C258.853 186.053 261.152 187.553 259.896 189.723C258.425 192.268 264.306 195.242 264.707 194.572C265.188 193.795 263.664 192 264.172 191.331C264.947 190.34 265.295 191.116 266.31 191.652C267.406 192.215 269.01 191.84 267.567 190.554C266.043 189.241 266.765 188.786 267.834 188.625Z" fill="#262E33"/>
<path d="M277.937 312.501L268.128 319.735L267.62 316.949L277.777 310.519L277.937 312.501Z" fill="#262E33"/>
<path d="M276.467 298.303L265.588 305.59L265.428 304.599L276.2 296.32L276.467 298.303Z" fill="#262E33"/>
<path fill-rule="evenodd" clip-rule="evenodd" d="M314.221 94.7209C314.889 97.1052 315.236 99.3824 311.494 102.651C308.581 105.196 305.454 103.481 302.273 105.142C297.943 107.446 298.477 111.036 292.864 111.491C288 111.893 286.904 104.472 279.821 107.393C274.475 109.589 268.434 107.634 268.621 102.49C268.809 97.3196 263.436 96.4087 266.67 91.3722C269.985 86.2285 275.384 90.4345 277.977 89.229C281.959 87.3805 282.44 83.5763 288.347 83.8442C295.885 84.1925 295.083 88.7468 302.006 88.4789C308.26 88.2378 313.071 90.6488 314.221 94.7209Z" fill="#FBFBFF"/>
<path d="M-33.7471 37.878C-21.0509 38.7353 -8.94279 37.6101 3.51281 34.7972C5.41055 34.3686 7.44193 33.7792 8.75164 32.1718C10.7028 29.7339 10.1148 25.6351 8.00324 23.3579C5.89167 21.0808 2.71095 20.411 -0.229218 20.7325C-2.10023 20.9468 -4.05142 21.4826 -5.86898 20.92C-8.14092 20.1967 -9.63775 17.9196 -11.1613 15.9103C-12.6848 13.9279 -14.7429 11.9454 -17.0951 12.2669C-18.8592 12.508 -20.2491 13.9547 -21.7993 14.8655C-23.3496 15.7764 -25.6216 15.8836 -26.5303 14.1958C-28.4548 10.6059 -25.7552 0.747253 -35.6448 0.747253C-49.918 0.747253 -47.5926 10.6863 -49.3032 12.7759C-51.8959 15.9639 -56.5467 15.2674 -60.3155 14.1958C-64.0842 13.1242 -68.5747 12.0794 -71.4881 14.9459C-74.0006 17.4106 -74.2679 21.9648 -76.9408 24.2152C-79.8008 26.6263 -83.8635 25.3404 -87.3115 24.2688C-90.7595 23.1972 -95.2233 22.7953 -97.2279 26.0637C-98.9118 28.8231 -97.6556 32.8148 -95.25 34.8508C-92.8444 36.86 -89.6904 37.3691 -86.6968 37.5566C-67.158 38.8693 -49.4102 36.8332 -33.7471 37.878Z" fill="#FBFBFF"/>
</svg>
