<svg width="352" height="298" viewBox="0 0 352 298" fill="none" xmlns="http://www.w3.org/2000/svg">
<path d="M236.716 308.337L235.554 307.942C235.01 307.744 234.714 307.152 234.887 306.584L264.282 213.462C264.455 212.894 265.048 212.573 265.592 212.77L266.754 213.165C267.298 213.363 267.595 213.956 267.422 214.524L238.051 307.645C237.854 308.213 237.285 308.534 236.716 308.337Z" fill="#7E4F54"/>
<path d="M260.499 230.624V230.896C260.499 231.316 260.573 231.785 260.796 232.056C260.82 232.081 260.845 232.106 260.87 232.131C260.895 232.155 260.919 232.18 260.944 232.18C261.117 232.303 261.142 232.254 261.339 232.254H284.554C284.603 232.254 284.628 232.254 284.677 232.254C284.925 232.205 284.974 232.032 285.147 231.76C285.172 231.735 285.172 231.711 285.197 231.686C285.32 231.464 285.394 231.217 285.394 230.945V230.674C285.394 229.933 285.197 229.316 284.578 229.316H261.364C260.721 229.291 260.499 229.883 260.499 230.624Z" fill="#6B3E45"/>
<path opacity="0.24" d="M260.771 232.057C260.795 232.081 260.845 232.106 260.87 232.106C261.018 232.18 261.166 232.229 261.339 232.229H284.554C284.603 232.229 284.628 232.229 284.678 232.229C284.925 232.18 284.974 232.007 285.147 231.736C285.172 231.711 285.172 231.686 285.197 231.661C278.942 230.402 263.688 231.217 260.795 232.057C260.795 232.057 260.795 232.057 260.771 232.057Z" fill="#1F1F3B"/>
<path d="M254.887 248.774V249.046C254.887 249.466 254.961 249.935 255.184 250.207C255.208 250.231 255.233 250.256 255.258 250.281C255.283 250.305 255.307 250.33 255.332 250.33C255.505 250.454 255.53 250.404 255.728 250.404H278.942C278.991 250.404 279.016 250.404 279.066 250.404C279.313 250.355 279.362 250.182 279.535 249.91C279.56 249.886 279.56 249.861 279.585 249.836C279.708 249.614 279.783 249.367 279.783 249.095V248.824C279.783 248.083 279.585 247.466 278.967 247.466H255.752C255.11 247.416 254.887 248.034 254.887 248.774Z" fill="#6B3E45"/>
<path opacity="0.24" d="M255.159 250.207C255.184 250.231 255.233 250.256 255.258 250.256C255.406 250.33 255.555 250.38 255.728 250.38H278.942C278.992 250.38 279.016 250.38 279.066 250.38C279.313 250.33 279.362 250.157 279.535 249.886C279.56 249.861 279.56 249.836 279.585 249.812C273.33 248.552 258.076 249.367 255.184 250.207C255.184 250.207 255.184 250.207 255.159 250.207Z" fill="#1F1F3B"/>
<path d="M249.349 266.431V266.702C249.349 267.122 249.423 267.592 249.646 267.863C249.67 267.888 249.695 267.913 249.72 267.937C249.744 267.962 249.769 267.987 249.794 267.987C249.967 268.11 249.992 268.061 250.189 268.061H273.404C273.453 268.061 273.478 268.061 273.528 268.061C273.775 268.011 273.824 267.838 273.997 267.567C274.022 267.542 274.022 267.517 274.047 267.493C274.17 267.27 274.245 267.024 274.245 266.752V266.48C274.245 265.739 274.047 265.122 273.429 265.122H250.214C249.547 265.097 249.349 265.69 249.349 266.431Z" fill="#6B3E45"/>
<path opacity="0.24" d="M249.621 267.863C249.646 267.888 249.695 267.912 249.72 267.912C249.868 267.987 250.017 268.036 250.19 268.036H273.404C273.454 268.036 273.478 268.036 273.528 268.036C273.775 267.987 273.825 267.814 273.998 267.542C274.022 267.517 274.022 267.493 274.047 267.468C267.792 266.209 252.538 267.023 249.646 267.863H249.621Z" fill="#1F1F3B"/>
<path d="M243.243 286.038V286.31C243.243 286.729 243.317 287.199 243.539 287.47C243.564 287.495 243.589 287.52 243.614 287.544C243.638 287.569 243.663 287.594 243.688 287.594C243.861 287.717 243.886 287.668 244.083 287.668H267.298C267.347 287.668 267.372 287.668 267.422 287.668C267.669 287.618 267.718 287.446 267.891 287.174C267.916 287.149 267.916 287.125 267.941 287.1C268.064 286.878 268.139 286.631 268.139 286.359V286.087C268.139 285.347 267.941 284.729 267.323 284.729H244.108C243.441 284.68 243.243 285.297 243.243 286.038Z" fill="#6B3E45"/>
<path opacity="0.24" d="M243.515 287.47C243.54 287.495 243.589 287.52 243.614 287.52C243.762 287.594 243.911 287.643 244.084 287.643H267.298C267.347 287.643 267.372 287.643 267.422 287.643C267.669 287.594 267.718 287.421 267.891 287.149C267.916 287.125 267.916 287.1 267.941 287.075C261.686 285.816 246.432 286.631 243.54 287.47H243.515Z" fill="#1F1F3B"/>
<path d="M261.908 308.608L260.746 308.238C260.202 308.065 259.881 307.448 260.054 306.88L287.867 213.24C288.04 212.672 288.608 212.351 289.177 212.523L290.339 212.894C290.883 213.067 291.204 213.684 291.031 214.252L263.219 307.892C263.046 308.46 262.452 308.781 261.908 308.608Z" fill="#7E4F54"/>
<g opacity="0.35">
<path opacity="0.35" d="M236.716 308.337L235.554 307.942C235.01 307.744 234.714 307.152 234.887 306.584L264.282 213.462C264.455 212.894 265.048 212.573 265.592 212.77L266.754 213.165C267.298 213.363 267.595 213.956 267.422 214.524L238.051 307.645C237.854 308.213 237.285 308.534 236.716 308.337Z" fill="#32323F"/>
<g opacity="0.35">
<path opacity="0.35" d="M260.499 230.624V230.896C260.499 231.316 260.573 231.785 260.796 232.056C260.82 232.081 260.845 232.106 260.87 232.131C260.895 232.155 260.919 232.18 260.944 232.18C261.117 232.303 261.142 232.254 261.339 232.254H284.554C284.603 232.254 284.628 232.254 284.677 232.254C284.925 232.205 284.974 232.032 285.147 231.76C285.172 231.735 285.172 231.711 285.197 231.686C285.32 231.464 285.394 231.217 285.394 230.945V230.674C285.394 229.933 285.197 229.316 284.578 229.316H261.364C260.721 229.291 260.499 229.883 260.499 230.624Z" fill="#32323F"/>
<path opacity="0.24" d="M260.771 232.057C260.795 232.081 260.845 232.106 260.87 232.106C261.018 232.18 261.166 232.229 261.339 232.229H284.554C284.603 232.229 284.628 232.229 284.678 232.229C284.925 232.18 284.974 232.007 285.147 231.736C285.172 231.711 285.172 231.686 285.197 231.661C278.942 230.402 263.688 231.217 260.795 232.057C260.795 232.057 260.795 232.057 260.771 232.057Z" fill="#32323F"/>
</g>
<g opacity="0.35">
<path opacity="0.35" d="M254.887 248.774V249.046C254.887 249.466 254.961 249.935 255.184 250.207C255.208 250.231 255.233 250.256 255.258 250.281C255.283 250.305 255.307 250.33 255.332 250.33C255.505 250.454 255.53 250.404 255.728 250.404H278.942C278.991 250.404 279.016 250.404 279.066 250.404C279.313 250.355 279.362 250.182 279.535 249.91C279.56 249.886 279.56 249.861 279.585 249.836C279.708 249.614 279.783 249.367 279.783 249.095V248.824C279.783 248.083 279.585 247.466 278.967 247.466H255.752C255.11 247.416 254.887 248.034 254.887 248.774Z" fill="#32323F"/>
<path opacity="0.24" d="M255.159 250.207C255.184 250.231 255.233 250.256 255.258 250.256C255.406 250.33 255.555 250.38 255.728 250.38H278.942C278.992 250.38 279.016 250.38 279.066 250.38C279.313 250.33 279.362 250.157 279.535 249.886C279.56 249.861 279.56 249.836 279.585 249.812C273.33 248.552 258.076 249.367 255.184 250.207C255.184 250.207 255.184 250.207 255.159 250.207Z" fill="#32323F"/>
</g>
<g opacity="0.35">
<path opacity="0.35" d="M249.349 266.431V266.702C249.349 267.122 249.423 267.592 249.646 267.863C249.67 267.888 249.695 267.913 249.72 267.937C249.744 267.962 249.769 267.987 249.794 267.987C249.967 268.11 249.992 268.061 250.189 268.061H273.404C273.453 268.061 273.478 268.061 273.528 268.061C273.775 268.011 273.824 267.838 273.997 267.567C274.022 267.542 274.022 267.517 274.047 267.493C274.17 267.27 274.245 267.024 274.245 266.752V266.48C274.245 265.739 274.047 265.122 273.429 265.122H250.214C249.547 265.097 249.349 265.69 249.349 266.431Z" fill="#32323F"/>
<path opacity="0.24" d="M249.621 267.863C249.646 267.888 249.695 267.912 249.72 267.912C249.868 267.987 250.017 268.036 250.19 268.036H273.404C273.454 268.036 273.478 268.036 273.528 268.036C273.775 267.987 273.825 267.814 273.998 267.542C274.022 267.517 274.022 267.493 274.047 267.468C267.792 266.209 252.538 267.023 249.646 267.863H249.621Z" fill="#32323F"/>
</g>
<g opacity="0.35">
<path opacity="0.35" d="M243.243 286.038V286.31C243.243 286.729 243.317 287.199 243.539 287.47C243.564 287.495 243.589 287.52 243.614 287.544C243.638 287.569 243.663 287.594 243.688 287.594C243.861 287.717 243.886 287.668 244.083 287.668H267.298C267.347 287.668 267.372 287.668 267.422 287.668C267.669 287.618 267.718 287.446 267.891 287.174C267.916 287.149 267.916 287.125 267.941 287.1C268.064 286.878 268.139 286.631 268.139 286.359V286.087C268.139 285.347 267.941 284.729 267.323 284.729H244.108C243.441 284.68 243.243 285.297 243.243 286.038Z" fill="#32323F"/>
<path opacity="0.24" d="M243.515 287.47C243.54 287.495 243.589 287.52 243.614 287.52C243.762 287.594 243.911 287.643 244.084 287.643H267.298C267.347 287.643 267.372 287.643 267.422 287.643C267.669 287.594 267.718 287.421 267.891 287.149C267.916 287.125 267.916 287.1 267.941 287.075C261.686 285.816 246.432 286.631 243.54 287.47H243.515Z" fill="#32323F"/>
</g>
<path opacity="0.35" d="M261.908 308.608L260.746 308.238C260.202 308.065 259.881 307.448 260.054 306.88L287.867 213.24C288.04 212.672 288.608 212.351 289.177 212.523L290.339 212.894C290.883 213.067 291.204 213.684 291.031 214.252L263.219 307.892C263.046 308.46 262.452 308.781 261.908 308.608Z" fill="#32323F"/>
</g>
<path d="M320.401 308.732L321.563 308.337C322.107 308.139 322.404 307.522 322.231 306.929L292.836 211.338C292.663 210.745 292.069 210.449 291.525 210.622L290.363 211.017C289.82 211.215 289.523 211.832 289.696 212.425L319.091 308.016C319.264 308.609 319.857 308.93 320.401 308.732Z" fill="#7E4F54"/>
<path d="M296.618 228.945V229.241C296.618 229.686 296.544 230.155 296.322 230.427C296.297 230.451 296.272 230.476 296.247 230.501C296.223 230.525 296.198 230.55 296.173 230.55C296 230.674 295.976 230.624 295.778 230.624H272.563C272.514 230.624 272.489 230.624 272.44 230.624C272.193 230.575 272.143 230.402 271.97 230.106C271.945 230.081 271.945 230.056 271.921 230.031C271.797 229.809 271.723 229.562 271.723 229.291V228.994C271.723 228.229 271.921 227.611 272.539 227.611H295.753C296.421 227.562 296.618 228.179 296.618 228.945Z" fill="#6B3E45"/>
<path opacity="0.24" d="M296.346 230.427C296.322 230.451 296.272 230.476 296.247 230.476C296.099 230.55 295.951 230.599 295.778 230.599H272.563C272.513 230.599 272.489 230.599 272.439 230.599C272.192 230.55 272.143 230.377 271.97 230.081C271.945 230.056 271.945 230.031 271.92 230.007C278.175 228.723 293.429 229.562 296.322 230.427H296.346Z" fill="#1F1F3B"/>
<path d="M302.23 247.564V247.861C302.23 248.305 302.156 248.774 301.934 249.046C301.909 249.071 301.884 249.095 301.859 249.12C301.835 249.145 301.81 249.17 301.785 249.17C301.612 249.293 301.587 249.244 301.39 249.244H278.175C278.126 249.244 278.101 249.244 278.052 249.244C277.805 249.194 277.755 249.021 277.582 248.725C277.557 248.7 277.557 248.676 277.533 248.651C277.409 248.429 277.335 248.182 277.335 247.91V247.614C277.335 246.848 277.533 246.231 278.151 246.231H301.365C302.032 246.182 302.23 246.799 302.23 247.564Z" fill="#6B3E45"/>
<path opacity="0.24" d="M301.958 249.046C301.934 249.071 301.884 249.096 301.859 249.096C301.711 249.17 301.563 249.219 301.39 249.219H278.175C278.126 249.219 278.101 249.219 278.052 249.219C277.804 249.17 277.755 248.997 277.582 248.7C277.557 248.676 277.557 248.651 277.532 248.626C283.787 247.342 299.041 248.182 301.934 249.046C301.934 249.021 301.958 249.046 301.958 249.046Z" fill="#1F1F3B"/>
<path d="M307.793 265.715V266.011C307.793 266.456 307.719 266.925 307.496 267.196C307.471 267.221 307.447 267.246 307.422 267.271C307.397 267.295 307.373 267.32 307.348 267.32C307.175 267.443 307.15 267.394 306.952 267.394H283.738C283.689 267.394 283.664 267.394 283.615 267.394C283.367 267.345 283.318 267.172 283.145 266.875C283.12 266.851 283.12 266.826 283.095 266.801C282.972 266.579 282.898 266.332 282.898 266.06V265.764C282.898 264.999 283.095 264.381 283.713 264.381H306.928C307.57 264.332 307.793 264.949 307.793 265.715Z" fill="#6B3E45"/>
<path opacity="0.24" d="M307.521 267.172C307.496 267.196 307.447 267.221 307.422 267.221C307.274 267.295 307.125 267.345 306.952 267.345H283.738C283.689 267.345 283.664 267.345 283.614 267.345C283.367 267.295 283.318 267.122 283.145 266.826C283.12 266.801 283.12 266.777 283.095 266.752C289.35 265.468 304.604 266.307 307.496 267.172C307.496 267.172 307.496 267.172 307.521 267.172Z" fill="#1F1F3B"/>
<path d="M313.899 285.816V286.112C313.899 286.557 313.825 287.026 313.603 287.298C313.578 287.322 313.553 287.347 313.529 287.372C313.504 287.396 313.479 287.421 313.454 287.421C313.281 287.544 313.257 287.495 313.059 287.495H289.844C289.795 287.495 289.77 287.495 289.721 287.495C289.473 287.446 289.424 287.273 289.251 286.977C289.226 286.952 289.226 286.927 289.201 286.902C289.078 286.68 289.004 286.433 289.004 286.162V285.865C289.004 285.1 289.201 284.482 289.82 284.482H313.034C313.702 284.458 313.899 285.075 313.899 285.816Z" fill="#6B3E45"/>
<path opacity="0.24" d="M313.628 287.297C313.603 287.322 313.554 287.347 313.529 287.347C313.381 287.421 313.232 287.47 313.059 287.47H289.845C289.795 287.47 289.771 287.47 289.721 287.47C289.474 287.421 289.424 287.248 289.251 286.952C289.227 286.927 289.227 286.902 289.202 286.878C295.457 285.594 310.711 286.433 313.603 287.297C313.603 287.297 313.603 287.297 313.628 287.297Z" fill="#1F1F3B"/>
<path d="M295.209 309.004L296.371 308.609C296.915 308.436 297.237 307.794 297.064 307.226L269.251 211.091C269.078 210.498 268.509 210.177 267.94 210.35L266.778 210.745C266.235 210.918 265.913 211.56 266.086 212.128L293.899 308.263C294.097 308.856 294.666 309.177 295.209 309.004Z" fill="#7E4F54"/>
<path d="M297.236 212.227V212.696C297.236 213.388 297.138 214.153 296.767 214.598C296.742 214.647 296.693 214.672 296.668 214.697C296.643 214.721 296.594 214.771 296.569 214.795C296.322 214.968 296.272 214.894 295.976 214.894H261.043C260.969 214.894 260.919 214.894 260.87 214.894C260.474 214.82 260.449 214.548 260.177 214.079C260.153 214.03 260.128 214.005 260.103 213.956C259.93 213.61 259.831 213.19 259.831 212.746V212.301C259.831 211.091 260.128 210.079 261.067 210.079H296C296.915 210.029 297.236 211.017 297.236 212.227Z" fill="#6B3E45"/>
<path opacity="0.24" d="M296.817 214.598C296.767 214.622 296.718 214.672 296.668 214.696C296.446 214.82 296.223 214.894 295.951 214.894H261.043C260.969 214.894 260.919 214.894 260.87 214.869C260.499 214.795 260.45 214.524 260.178 214.054C260.153 214.005 260.128 213.98 260.104 213.931C269.523 211.881 292.465 213.215 296.817 214.598C296.817 214.598 296.792 214.598 296.817 214.598Z" fill="#1F1F3B"/>
<path opacity="0.4" d="M282.502 210.326C280.945 211.708 266.779 212.844 259.955 213.314V212.869C259.955 211.486 260.277 210.326 261.364 210.326H282.502Z" fill="#32323F"/>
<path d="M215.232 109.796C211.623 109.944 209.324 108.289 207.667 107.845C206.011 107.375 200.72 108.19 200.794 104.783C200.893 100.93 204.626 104.116 206.11 103.202C207.222 102.535 206.382 100.955 207.099 101.029C208.211 101.152 208.038 102.461 208.607 103.177C209.398 104.116 213.106 104.659 214.787 104.98C217.779 105.573 215.232 109.796 215.232 109.796Z" fill="#EFAEA6"/>
<path d="M263.095 204.819C262.724 202.868 262.378 197.88 262.378 197.88L267.644 197.213L268.064 204.695L264.801 207.387L263.095 204.819Z" fill="#FBFBFF"/>
<path d="M262.6 204.028C262.032 203.979 262.328 204.448 262.229 205.313C262.032 207.263 255.085 208.226 254.071 208.523C253.552 208.671 253.057 211.56 255.727 211.19C258.051 210.869 265.493 209.881 268.014 209.535C268.534 209.461 268.954 209.041 269.028 208.523C269.226 206.646 268.731 203.856 268.014 203.88C266.902 203.683 264.974 204.275 262.6 204.028Z" fill="#1F1F39"/>
<path d="M309.845 186.668C307.991 185.928 303.566 183.483 303.566 183.483L305.865 178.766L312.466 182.495L312.985 186.668H309.845Z" fill="#FBFBFF"/>
<path d="M308.905 186.644C308.535 187.088 309.128 187.088 309.795 187.632C311.328 188.866 308.386 195.114 308.09 196.126C307.941 196.645 310.117 198.621 311.254 196.2C312.243 194.101 315.457 187.409 316.545 185.137C316.767 184.668 316.644 184.076 316.223 183.755C314.74 182.569 312.095 181.458 311.724 182.075C310.957 182.89 310.413 184.816 308.905 186.644Z" fill="#1F1F39"/>
<path d="M305.519 185.705C305.519 185.705 289.474 178.717 281.785 169.555C276.47 162.32 273.157 153.479 269.399 146.244C269.399 146.244 266.927 165.58 266.111 172.173C265.295 178.766 269.053 200.102 269.078 201.189C269.102 202.275 261.34 203.263 261.265 202.127C261.191 200.991 258.051 176.075 257.458 171.728C256.89 167.382 255.381 136.761 256.049 127.97L259.485 127.921C259.485 127.921 276.223 125.822 276.717 126.908C276.964 127.452 277.211 128.02 277.434 128.612C277.459 128.662 277.459 128.711 277.483 128.736C278.546 131.378 279.61 134.514 280.623 137.848C283.936 148.639 286.878 161.357 288.188 164.518C290.018 168.889 305.642 176.643 309.598 179.68C310.29 179.729 308.56 182.446 305.519 185.705Z" fill="#3B3B4C"/>
<path opacity="0.57" d="M268.361 152.664C268.979 148.96 269.424 146.244 269.424 146.244C268.336 144.071 267.273 141.453 267.273 141.453C267.273 141.453 267.569 148.639 268.361 152.664Z" fill="#1F1F39"/>
<path opacity="0.28" d="M280.673 137.873C277.137 137.157 270.907 136.391 268.064 131.798L277.483 128.612C277.508 128.662 277.508 128.711 277.533 128.736C278.596 131.378 279.659 134.539 280.673 137.873Z" fill="#1F1F39"/>
<path d="M245.789 101.572C247.816 100.362 247.47 98.8066 247.47 98.8066C247.495 96.9792 246.358 93.522 245.32 92.0897C244.182 90.5093 244.083 90.6821 244.083 90.6821L242.205 93.5467L241.315 94.9049C241.315 94.9049 241.809 95.5222 242.081 96.8557C242.279 97.7694 242.6 97.4237 242.353 99.0288C242.155 100.214 244.182 100.609 245.789 101.572Z" fill="#EFAEA6"/>
<path opacity="0.14" d="M241.315 94.8803C241.315 94.8803 241.834 95.7199 242.106 97.0287C244.998 96.9793 245.542 94.4852 244.602 94.1148C244.034 93.8678 242.18 93.5468 242.18 93.5468L241.315 94.8803Z" fill="#1F1F39"/>
<path d="M238.768 88.756C238.669 90.2624 237.037 93.1763 238.076 93.1516C239.114 93.1269 237.829 96.3371 238.916 96.3618C241.562 96.4112 244.578 94.732 244.899 93.4479C245.221 92.1638 244.998 88.6326 244.998 88.6326L238.768 88.756Z" fill="#EFAEA6"/>
<path d="M241.487 90.1883C240.647 90.2871 240.622 90.4846 240.054 90.213C239.46 89.9413 240.474 89.1264 239.386 88.9536C238.298 88.7807 237.112 88.7313 236.988 87.4966C236.815 85.694 238.397 85.9656 239.386 86.1631C240.029 86.2866 240.152 84.9037 241.438 84.9531C242.427 84.9778 242.328 85.5705 243.218 85.6446C243.762 85.694 244.776 84.805 245.616 85.4223C247.174 86.6076 245.888 88.0646 247.198 89.324C248.706 90.7809 245.27 93.9912 244.85 93.6208C244.38 93.1763 245.047 91.6452 244.578 91.2748C243.861 90.7315 243.762 91.3489 243.169 91.9169C242.526 92.5342 241.339 92.5836 242.106 91.3983C242.847 90.2377 242.254 90.0895 241.487 90.1883Z" fill="#23233D"/>
<path d="M247.668 95.7446C245.641 96.115 246.11 100.115 244.726 100.93C243.885 101.424 244.108 100.387 243.564 100.066C242.179 99.2511 242.179 98.7079 241.957 99.4487C238.001 112.166 256.79 133.576 256.79 133.576C256.79 133.576 265.987 134.514 267.767 129.526C269.943 123.353 272.934 122.982 272.094 121.797C268.262 116.488 268.262 116.586 253.601 98.5103C253.601 98.535 251.525 96.9299 247.668 95.7446Z" fill="#FBFBFF"/>
<path d="M242.007 99.3745C236.345 102.585 230.115 105.178 226.382 105.523C222.674 105.869 212.538 103.696 211.079 103.498C209.719 103.301 210.362 108.857 211.301 109.598C212.908 110.857 222.451 113.105 226.877 112.882C230.461 112.709 237.062 111.252 239.263 112.956C241.117 114.389 246.63 122.167 247.545 124.711C248.459 127.254 252.019 130.613 254.541 137.28C255.604 140.071 261.167 135.28 261.76 133.7C262.749 131.008 256.593 126.563 252.761 120.513C249.102 114.759 245.863 111.894 244.034 106.536C242.6 102.511 242.007 99.3745 242.007 99.3745Z" fill="#0B75AA"/>
<path opacity="0.1" d="M242.007 99.3745C236.345 102.585 230.115 105.178 226.382 105.523C222.674 105.869 212.538 103.696 211.079 103.498C209.719 103.301 210.362 108.857 211.301 109.598C212.908 110.857 222.451 113.105 226.877 112.882C230.461 112.709 237.062 111.252 239.263 112.956C241.117 114.389 246.63 122.167 247.545 124.711C248.459 127.254 252.019 130.613 254.541 137.28C255.604 140.071 261.167 135.28 261.76 133.7C262.749 131.008 256.593 126.563 252.761 120.513C249.102 114.759 245.863 111.894 244.034 106.536C242.6 102.511 242.007 99.3745 242.007 99.3745Z" fill="#1F1F39"/>
<path d="M279.931 127.279C279.313 128.637 278.497 129.674 277.582 130.464C277.409 130.613 277.236 130.761 277.063 130.884C274.22 132.934 270.611 132.786 268.41 131.921C267.842 131.699 267.421 131.502 267.1 131.329C266.729 131.107 266.482 130.909 266.284 130.662C266.037 130.366 265.864 129.995 265.617 129.526C265.295 128.909 264.875 128.119 263.985 126.983C263.762 126.686 263.49 126.365 263.194 125.995C262.971 125.748 262.749 125.476 262.502 125.205C262.427 125.106 262.329 125.007 262.254 124.933C261.092 123.698 259.065 122.044 257.112 120.29C255.925 119.204 254.763 118.068 253.898 116.981C253.824 116.883 253.725 116.784 253.651 116.66C253.428 116.364 253.206 116.043 253.033 115.747C252.983 115.673 252.934 115.599 252.909 115.5C252.81 115.302 252.687 115.105 252.588 114.907C251.896 113.574 251.327 112.141 250.833 110.635C250.412 109.351 250.091 108.042 249.794 106.758C249.671 106.19 249.547 105.647 249.448 105.104C249.374 104.733 249.3 104.387 249.25 104.017C249.201 103.696 249.151 103.4 249.077 103.103C249.003 102.708 248.954 102.338 248.88 101.967C248.41 99.0288 248.138 96.6581 247.792 95.7939V95.7692C247.792 95.7692 248.014 95.5469 253.231 97.5718C253.898 97.8435 254.788 98.3374 255.752 98.9794C256.197 99.2757 256.667 99.6215 257.112 99.9672C257.532 100.288 257.953 100.634 258.348 101.004C258.62 101.251 258.867 101.474 259.115 101.745C260.104 102.733 260.994 103.795 261.562 104.857C264.306 109.87 264.875 111.45 267.1 114.339C269.374 117.327 271.55 121.031 275.876 123.55C276.766 124.118 280.945 125.081 279.931 127.279Z" fill="#0B75AA"/>
<path opacity="0.17" d="M255.975 104.733C254.195 108.536 255.629 115.5 257.087 120.266C255.901 119.179 254.739 118.043 253.873 116.957C253.799 116.858 253.7 116.759 253.626 116.636C253.404 116.339 253.181 116.018 253.008 115.722C252.959 115.648 252.909 115.574 252.885 115.475C252.192 114.216 251.278 111.894 250.808 110.61L255.975 104.733Z" fill="#1F1F39"/>
<path d="M226.901 200.868C226.901 203.337 226.876 205.831 226.876 208.325C226.876 208.498 226.876 208.646 226.876 208.819C226.629 241.959 225.146 277.593 224.33 300.929C224.256 303.373 222.253 305.299 220.102 307.127L127.838 306.954H127.764L100.223 307.127L89.6912 307.3L0.962221 308.633L-8.28399 308.781C-8.28399 308.781 -8.28399 305.744 -8.30871 300.41C-8.33343 290.187 -8.38287 271.493 -8.45704 249.565C-8.48176 241.391 -8.5065 232.773 -8.53122 223.981C-8.53122 221.586 -8.55594 219.141 -8.55594 216.721C-8.67955 175.334 -8.82788 131.452 -8.92677 111.944C-8.92677 111.425 -8.92677 110.931 -8.92677 110.438V110.215C-8.92677 109.697 -8.92677 109.203 -8.92677 108.709C-8.9515 104.708 -8.97621 102.239 -9.00094 101.696C-9.09983 98.3621 29.047 83.5949 61.5323 71.8652C61.5323 71.8652 61.5323 71.8652 61.557 71.8652C63.8315 71.0503 66.0565 70.2354 68.2568 69.4699C86.0323 63.1234 101.039 58.0858 105.341 56.9499C105.316 58.2093 105.316 59.5181 105.291 60.8269C105.291 61.7406 105.266 62.6789 105.266 63.6173C105.217 68.5315 105.168 73.7419 105.118 79.1747C105.069 85.4223 104.994 91.9663 104.945 98.7078H104.896C97.5035 98.6584 93.6468 99.7696 87.6145 101.646C84.9939 102.461 82.5217 103.449 80.272 104.56C79.9506 104.733 79.6045 104.881 79.2831 105.054C79.2831 105.054 79.283 105.054 79.2583 105.054C71.0999 109.376 66.0071 115.574 65.9576 122.464C65.9082 129.106 70.556 135.132 78.0964 139.527C85.6367 143.923 93.004 146.639 104.549 146.713C104.426 165.012 104.327 182.643 104.302 197.287C104.302 199.016 105.687 200.398 107.393 200.398C119.605 200.448 131.868 200.448 143.66 200.448C143.858 177.384 154.662 158.764 167.814 158.838C172.388 158.863 176.665 161.135 180.274 165.086C182.796 167.827 184.996 171.358 186.752 175.507C189.694 182.421 191.449 190.99 191.498 200.275C192.833 200.275 194.094 200.25 195.306 200.275C195.874 200.275 196.418 200.275 196.987 200.275C207.494 200.349 219.138 200.67 226.901 200.868Z" fill="#515160"/>
<path d="M105.34 49.0724C105.365 49.0724 105.39 49.0724 105.414 49.0724C105.39 50.3565 105.39 51.6653 105.365 53.0235C105.34 54.2829 105.34 55.5917 105.316 56.9005C105.291 58.1599 105.291 59.4687 105.266 60.7775C105.068 60.8763 104.722 61.0244 104.277 61.2467C92.5835 66.7782 2.61839 109.499 -4.50168 112.24C-4.5264 112.265 -4.55113 112.265 -4.60058 112.265C-4.65002 112.29 -4.69946 112.314 -4.74891 112.314C-4.79835 112.339 -4.82308 112.339 -4.8478 112.339C-5.19392 112.438 -5.6142 112.487 -6.08393 112.462C-6.1581 112.462 -6.23227 112.462 -6.30644 112.438C-6.33116 112.438 -6.33115 112.438 -6.33115 112.438C-6.40532 112.438 -6.47949 112.413 -6.55366 112.413C-7.09756 112.364 -7.66617 112.24 -8.30895 112.067C-8.50673 112.018 -8.72923 111.944 -8.95173 111.894C-8.95173 111.894 -8.95174 111.894 -8.97646 111.894H-9.00118C-9.22368 111.82 -9.47091 111.746 -9.71814 111.672C-9.7923 111.648 -9.84175 111.623 -9.91591 111.598C-9.99008 111.573 -10.0643 111.549 -10.1384 111.524C-10.262 111.475 -10.3609 111.45 -10.4598 111.401C-15.5526 109.474 -21.758 105.474 -21.8322 102.98C-21.9063 100.263 47.3908 71.7911 83.7081 57.3697C96.0694 52.4802 104.599 49.1959 105.34 49.0724Z" fill="#FF778D"/>
<path d="M127.739 307.028L100.297 307.448L87.3671 307.423C87.3671 307.423 87.3424 307.325 87.3177 307.127C87.1693 305.917 87.1941 301.324 86.8727 294.78C86.1557 280.531 86.0568 260.825 95.13 249.268C109.024 231.513 124.006 249.17 125.712 253.96C130.36 266.9 128.06 284.779 127.764 306.757C127.764 306.831 127.764 306.929 127.739 307.028Z" fill="#262E33"/>
<path opacity="0.28" d="M68.257 69.4205C86.0819 60.9504 100.792 54.4558 105.39 53.0236C105.365 54.283 105.365 55.5917 105.341 56.9005C105.316 58.1599 105.316 59.4687 105.291 60.7775C105.291 61.6912 105.267 62.6296 105.267 63.568C105.069 63.4445 104.97 63.3951 104.97 63.3951C104.97 63.3951 3.11322 109.4 -4.47658 112.265C-4.5013 112.29 -4.52603 112.29 -4.57548 112.29C-4.62492 112.314 -4.67436 112.339 -4.7238 112.339C-4.77325 112.364 -4.79798 112.364 -4.8227 112.364C-5.16882 112.463 -5.5891 112.512 -6.05883 112.487C-6.13299 112.487 -6.20715 112.487 -6.28132 112.463C-6.30604 112.463 -6.30605 112.463 -6.30605 112.463C-6.38022 112.463 -6.45438 112.438 -6.52854 112.438C-7.07244 112.388 -7.64106 112.265 -8.28385 112.092C-8.48163 112.043 -8.70412 111.969 -8.92663 111.919C-8.92663 111.919 -8.92662 111.919 -8.95134 111.919H-8.97607C-9.19858 111.845 -9.44579 111.771 -9.69302 111.697C-9.76719 111.672 -9.81664 111.648 -9.89081 111.623C-9.96498 111.598 -10.0391 111.574 -10.1133 111.549C-10.2369 111.499 -10.3358 111.475 -10.4347 111.425C-9.94024 111.104 -9.4458 110.759 -8.92663 110.413C8.35439 99.0042 41.7545 82.0146 68.257 69.4205Z" fill="#262E33"/>
<path d="M188.606 230.18L179.533 230.451C178.964 230.476 178.519 230.945 178.544 231.488L178.791 239.712C178.816 240.181 179.137 240.576 179.607 240.675L188.754 242.551C189.397 242.675 189.99 242.181 189.965 241.514L189.644 231.118C189.644 230.599 189.174 230.155 188.606 230.18Z" fill="#FBFBFF"/>
<path d="M190.238 249.663L190.51 258.208C190.534 258.775 190.089 259.245 189.521 259.245L180.447 259.516C179.879 259.541 179.409 259.096 179.409 258.529L179.137 249.984C179.112 249.416 179.557 248.947 180.126 248.947L189.199 248.676C189.743 248.676 190.213 249.095 190.238 249.663Z" fill="#FBFBFF"/>
<path d="M173.748 230.649L174.045 240.057C174.069 240.576 173.674 241.021 173.179 241.095L165.441 242.181C164.848 242.255 164.304 241.811 164.279 241.193L163.983 231.76C163.958 231.291 164.279 230.871 164.724 230.748L172.438 228.624C173.08 228.451 173.698 228.92 173.723 229.562L173.748 230.649Z" fill="#FBFBFF"/>
<path d="M174.341 250.281L174.663 260.825C174.687 261.393 174.242 261.862 173.674 261.862L165.787 262.109C165.268 262.134 164.848 261.764 164.749 261.27L163.142 251.836C163.043 251.268 163.439 250.75 164.007 250.651L173.179 249.293C173.797 249.219 174.341 249.688 174.341 250.281Z" fill="#FBFBFF"/>
<path d="M57.5768 147.306C58.0466 152.22 57.9724 155.677 57.8982 157.233C57.8735 157.752 57.478 158.196 56.9588 158.27L46.9709 159.727C46.3034 159.826 45.7101 159.332 45.7101 158.665L45.364 147.775C45.3392 147.158 45.8337 146.639 46.427 146.639L56.4396 146.318C57.0082 146.293 57.5027 146.738 57.5768 147.306Z" fill="#FBFBFF"/>
<path d="M39.3069 146.738C35.8211 146.565 31.816 146.886 30.1102 147.059C29.6157 147.108 29.1955 147.479 29.1213 147.973C28.6763 150.739 27.2918 159.53 28.0088 160.443C28.7257 161.332 36.81 160.493 39.7025 160.172C40.2711 160.098 40.6914 159.604 40.6914 159.036L40.3453 147.8C40.3453 147.232 39.9003 146.763 39.3069 146.738Z" fill="#FBFBFF"/>
<path d="M57.2554 165.604C54.1156 165.703 48.8745 165.876 46.7978 165.925C46.2786 165.95 45.8336 166.32 45.7347 166.839C45.1661 169.95 43.5344 180.248 46.3775 180.865C49.715 181.581 58.2443 181.606 58.7882 180.47C59.2332 179.532 58.6152 169.876 58.3927 166.617C58.3432 166.049 57.8487 165.604 57.2554 165.604Z" fill="#FBFBFF"/>
<path d="M39.6282 166.222C36.6862 166.419 32.6813 166.469 30.7529 166.469C30.1349 166.469 29.6157 166.987 29.6404 167.604L30.0607 180.692C30.0854 181.408 30.7777 181.927 31.4699 181.729L38.9607 179.63C39.4057 179.507 39.7271 179.112 39.7765 178.667L40.8148 167.432C40.8643 166.765 40.3204 166.172 39.6282 166.222Z" fill="#FBFBFF"/>
<path d="M106.305 197.88L106.478 235.415C106.478 235.415 149.718 232.55 149.248 260.85C148.926 279.914 112.115 281.247 106.725 280.358C105.093 280.087 106.008 307.423 106.008 307.423" stroke="#FBFBFF" stroke-width="2" stroke-miterlimit="10" stroke-linejoin="round"/>
<path d="M105.069 199.287L66.3286 200.176C66.3286 200.176 69.1964 244.65 40.2464 244.181C20.765 243.86 18.8861 207.189 19.8009 201.707C20.0728 200.028 -10.5583 200.621 -10.5583 200.621" stroke="#FBFBFF" stroke-width="2" stroke-miterlimit="10" stroke-linecap="round" stroke-linejoin="round"/>
<path opacity="0.57" d="M105.118 79.1252C105.069 85.3728 104.994 91.9168 104.945 98.6583H104.896C97.5035 98.6089 93.6468 99.7202 87.6145 101.597C84.9939 102.412 82.5217 103.4 80.2719 104.511C79.9505 104.684 79.6044 104.832 79.283 105.005C79.283 104.98 79.283 104.955 79.283 104.931C77.8985 93.2503 84.9198 83.2244 105.118 79.1252Z" fill="#1F1F39"/>
<path opacity="0.57" d="M226.901 200.868C226.901 203.337 226.926 208.622 226.901 211.116C220.103 209.387 200.547 202.744 192.117 200.324C192.685 200.324 196.443 200.25 197.012 200.25C207.494 200.349 219.138 200.67 226.901 200.868Z" fill="#1F1F39"/>
<path d="M192.438 114.562C196.74 93.3245 195.133 78.829 199.434 76.1374C203.736 73.4704 224.577 76.088 226.308 79.3229C228.038 82.5579 218.174 131.872 218.174 131.872L192.438 114.562Z" fill="#3B3B4C"/>
<path opacity="0.47" d="M218.199 131.897L192.462 114.562C195.009 101.968 195.479 91.7194 196.344 84.9285C204.28 82.5085 214.663 80.5329 226.53 80.6317C226.753 89.1018 218.199 131.897 218.199 131.897Z" fill="#1F1F39"/>
<path d="M226.431 205.362C218.841 203.732 207.469 201.263 197.16 199.287C195.454 198.966 194.638 198.522 192.735 198.176C193.822 188.743 193.278 180.396 191.647 173.062C190.658 168.667 189.15 164.79 187.197 161.629C184.378 157.085 177.753 153.801 173.253 152.936C160.323 150.467 144.155 165.95 139.73 188.595C128.135 186.446 121.064 185.261 109.074 182.989C107.392 182.668 106.28 181.038 106.601 179.359C109.321 164.962 112.634 147.652 116.12 129.674C104.772 127.477 98.0474 123.476 91.4465 117.772C84.8455 112.067 81.3844 105.277 82.6453 98.7573C83.9555 91.991 90.1114 86.83 98.9126 84.0642C101.632 83.1999 104.599 82.5826 107.739 82.2121C114.018 81.4713 118.023 81.0762 125.267 82.4838H125.316C127.739 70.112 130.063 58.3822 132.09 48.0601C132.263 47.1217 132.461 46.2327 132.634 45.319C132.881 44.0349 133.129 42.7508 133.376 41.5161C133.598 41.4914 133.796 41.4914 133.944 41.4914C138.518 41.2939 157.851 57.9871 178.247 76.977C180.423 79.0019 182.623 81.0515 184.799 83.1258C184.823 83.1505 184.873 83.1999 184.922 83.2246C188.458 86.5583 191.993 89.9414 195.454 93.2258C197.135 94.8309 198.792 96.436 200.423 98.0164C208.137 105.474 215.232 112.438 220.844 118.019C226.159 123.279 230.164 127.304 232.117 129.329C232.414 129.625 232.686 130.02 232.933 130.465C233.774 131.996 234.293 134.391 234.54 137.478C234.614 138.441 234.664 139.478 234.689 140.589C234.689 140.614 234.689 140.614 234.689 140.639C235.084 154.541 231.45 178.791 226.431 205.362Z" fill="#515160"/>
<path d="M243.366 134.539C243.366 134.539 242.6 137.206 241.067 139.354C240.548 140.095 239.93 140.762 239.213 141.231C239.04 141.355 238.842 141.453 238.669 141.552C238.1 141.824 237.457 141.947 236.79 141.898C236.765 141.898 236.716 141.898 236.691 141.873C236.666 141.873 236.642 141.849 236.617 141.849C236.271 141.725 235.628 141.305 234.738 140.638C231.845 138.465 226.258 133.551 219.163 127.081C212.018 120.587 203.34 112.487 194.267 103.918C169.124 80.2119 140.99 53.0483 134.365 46.6772C133.425 45.7635 132.906 45.2696 132.906 45.2696C132.906 45.2696 132.807 45.2943 132.609 45.3437C132.857 44.0596 133.104 42.7755 133.351 41.5408C133.598 40.232 133.87 38.9726 134.093 37.7379C134.365 36.4044 134.612 35.1203 134.859 33.8609C136.169 34.3301 145.984 43.2694 159.211 55.6659C169.99 65.7658 183.068 78.1622 195.726 90.1636C204.873 98.8313 213.798 107.301 221.487 114.512C232.018 124.414 240.202 131.946 243.366 134.539Z" fill="#FF778D"/>
<path opacity="0.28" d="M241.067 139.33C240.548 140.071 239.93 140.737 239.213 141.207C239.04 141.33 238.842 141.429 238.669 141.528C238.1 141.799 237.457 141.923 236.79 141.873C236.765 141.873 236.716 141.873 236.691 141.849C236.666 141.849 236.642 141.824 236.617 141.824C236.271 141.701 235.628 141.305 234.738 140.663C231.821 138.54 226.233 133.798 219.064 127.526C211.894 121.229 203.192 113.426 194.094 105.153C166.504 80.1131 135.23 50.9987 132.115 48.1094C132.288 47.1711 132.486 46.2821 132.659 45.3684C132.906 44.0843 133.153 42.8002 133.4 41.5655C133.648 40.2567 133.92 38.9973 134.142 37.7625C134.884 37.6638 135.354 37.6638 135.551 37.7132C137.109 38.2564 160.323 59.7404 184.823 83.1505C184.848 83.1752 184.897 83.2246 184.947 83.2493C188.433 86.583 191.968 89.9661 195.454 93.3493C204.478 102.066 213.279 110.66 220.844 118.192C225.418 122.76 229.546 126.933 232.958 130.489C236.468 134.144 239.262 137.182 241.067 139.33Z" fill="#1F1F39"/>
<path opacity="0.17" d="M227.099 118.883C227.371 119.945 227.618 121.007 227.865 122.068C225.072 122.192 216.369 122.538 215.652 122.315C214.812 122.044 214.169 121.328 211.746 121.624C209.323 121.92 206.678 122.192 205.615 121.056L227.099 118.883Z" fill="#1F1F39"/>
<path d="M220.374 119.698C217.061 121.13 214.317 120.414 212.611 120.587C210.906 120.76 206.258 123.427 205.096 120.192C203.81 116.562 208.433 118.191 209.496 116.809C210.288 115.771 208.928 114.611 209.645 114.413C210.733 114.142 211.029 115.426 211.845 115.87C212.908 116.463 216.592 115.623 218.273 115.327C221.24 114.833 220.374 119.698 220.374 119.698Z" fill="#EFAEA6"/>
<path d="M251.698 97.5718C239.708 108.684 237.038 112.24 233.873 112.956C230.709 113.672 214.936 115.253 214.095 115.327C213.279 115.401 215.331 121.599 216.246 121.426C217.161 121.254 231.574 120.636 235.332 120.192C240.573 119.55 255.382 107.474 255.382 107.474C255.382 107.474 257.78 105.202 256.049 101.152C254.343 97.0779 251.698 97.5718 251.698 97.5718Z" fill="#0B75AA"/>
<path d="M-16.9861 31.4162C-28.6057 32.1076 -39.7061 31.1939 -51.1031 28.848C-52.8584 28.4775 -54.7126 28.0084 -55.8993 26.6749C-57.7041 24.6499 -57.1602 21.2421 -55.2071 19.3654C-53.2787 17.4886 -50.3615 16.9207 -47.6667 17.1676C-45.9362 17.3405 -44.1809 17.8097 -42.5245 17.3158C-40.4478 16.7231 -39.0633 14.8217 -37.6788 13.1672C-36.2944 11.5126 -34.3908 9.88283 -32.2646 10.1298C-30.6577 10.3273 -29.3968 11.5373 -27.9629 12.3029C-26.529 13.0684 -24.4523 13.1425 -23.6365 11.7349C-21.8812 8.7469 -24.3534 0.57312 -15.305 0.57312C-2.25151 0.57312 -4.37765 8.82098 -2.79541 10.5496C-0.422054 13.1919 3.83021 12.6239 7.29136 11.7102C10.7525 10.8212 14.8564 9.9569 17.5265 12.3275C19.8257 14.3772 20.0729 18.1554 22.5204 20.0321C25.141 22.0324 28.8494 20.9705 32.0138 20.0568C35.1783 19.1678 39.2576 18.8221 41.1117 21.5632C42.6445 23.8597 41.5073 27.1688 39.307 28.848C37.1067 30.5272 34.2142 30.9223 31.47 31.0951C13.5956 32.2311 -2.64707 30.5519 -16.9861 31.4162Z" fill="#FBFBFF"/>
<path d="M334.864 140.169C330.34 140.169 321.019 148.195 334.32 149.504C347.621 150.812 367.597 150.195 375.656 150.22C388.833 150.269 392.097 149.726 391.998 144.343C391.948 141.231 390.243 139.206 383.32 138.391C376.101 137.552 379.785 129.526 370.959 129.748C363.443 129.946 362.677 140.466 355.804 137.897C348.931 135.329 350.365 142.342 345.346 143.626C339.833 145.059 339.388 140.169 334.864 140.169Z" fill="#FBFBFF"/>
<path opacity="0.18" d="M245.245 101.375C245.369 101.202 248.261 103.869 250.907 104.116C251.648 104.19 252.39 104.14 253.107 103.918C255.208 103.276 259.016 101.597 259.016 101.597C259.016 101.597 257.582 99.893 256.247 99.572C254.59 100.856 253.676 101.473 252.563 101.77C251.747 101.967 250.907 102.041 250.091 101.992C248.583 101.918 247.149 101.473 246.036 101.054C245.468 100.831 245.196 100.288 244.677 100.461C244.034 100.708 245.097 101.597 245.245 101.375Z" fill="#1F1F39"/>
<path d="M243.984 101.103C243.885 100.782 243.91 100.165 244.602 99.9424C245.122 99.7695 245.245 99.9671 245.814 100.189C247.52 100.831 249.942 101.498 252.316 100.905C254.689 100.313 258.793 95.3987 262.452 94.8801C266.111 94.3615 268.237 97.0038 273.404 95.9913C278.571 94.9789 283.046 90.9784 284.579 90.7068C286.112 90.4351 287.101 90.4105 287.274 91.0031C287.447 91.5958 287.076 92.7811 286.211 93.5713C285.345 94.3368 276.668 98.2385 274.195 98.7818C270.166 99.6708 265.592 97.4483 263.045 98.1397C260.499 98.8311 255.802 102.165 252.86 103.079C249.572 104.091 245.542 101.301 245.394 101.523C245.245 101.745 245.097 101.943 244.627 101.992C244.306 101.992 244.083 101.424 243.984 101.103Z" fill="#FFD957"/>
</svg>
