<svg width="352" height="340" viewBox="0 0 352 340" fill="none" xmlns="http://www.w3.org/2000/svg">
<path d="M327.354 110.082C325.729 109.042 324.646 100.302 324.646 100.302C320.458 104.651 280.583 155.884 199.938 157.237C194.208 157.341 194.042 148.018 199.813 148.018C243.229 148.018 261.333 138.133 267.417 135.324C295.187 122.547 320.187 96.3688 320.187 96.3688C320.187 96.3688 317.083 95.037 312.146 94.9537C311.125 94.9329 326.479 87.6912 330.875 90.4381C333.458 93.5803 328.979 111.123 327.354 110.082Z" fill="#FF778D"/>
<path opacity="0.75" fill-rule="evenodd" clip-rule="evenodd" d="M187.62 76.2241C188.172 76.2211 188.622 76.6665 188.625 77.2188L189.125 171.527C189.128 172.08 188.683 172.53 188.13 172.533C187.578 172.536 187.128 172.09 187.125 171.538L186.625 77.2294C186.622 76.6771 187.067 76.227 187.62 76.2241Z" fill="#262E33"/>
<path opacity="0.75" fill-rule="evenodd" clip-rule="evenodd" d="M317.958 161.457C317.96 162.01 317.514 162.459 316.962 162.461L176.316 162.96C175.764 162.962 175.314 162.516 175.313 161.964C175.311 161.412 175.757 160.962 176.309 160.96L316.955 160.461C317.507 160.459 317.956 160.905 317.958 161.457Z" fill="#262E33"/>
<path d="M219.021 197.461C219 197.42 225.938 187.098 230.042 181.147C233.875 175.591 228.729 168.474 230.354 166.705C233.229 163.563 240.042 174.966 243.146 176.09C248.25 177.963 272.187 166.143 273.271 172.053C275.667 185.163 254 186.183 249.604 189.512C245.208 192.842 239.062 194.839 234.542 207.887C233.75 210.155 219.479 198.439 219.021 197.461Z" fill="#EFAEA6"/>
<path d="M46.6457 393.945C46.9165 397.565 47.2915 401.498 47.8124 405.785C49.7082 421.933 53.729 476.371 52.7499 510.956C51.7707 545.375 54.8124 625.866 54.8124 638.206C65.2707 642.785 71.7498 641.369 86.7082 638.206C86.7082 638.206 89.354 571.783 92.3123 513.62C94.7082 466.403 95.3957 471.127 104.083 411.008C104.187 411.279 106.292 417.147 109.375 426.158C115.958 445.386 126.979 479.014 132.271 503.34C140.5 541.297 136.208 640.267 139.646 643.679C149.916 649.714 167.291 650.297 171.916 641.911C171.916 641.911 173.875 519.53 170.229 500.364C167.75 487.338 146.854 359.609 142.187 325.315C142.187 325.315 50.1457 305.275 47.3332 336.677C46.9582 340.964 46.8332 344.772 46.8957 348.372C46.9582 353.241 46.7082 357.757 46.4374 362.73C45.9999 370.825 45.5832 380.085 46.6457 393.945Z" fill="#262E33"/>
<path d="M89.2084 199.958L69.7709 197.586C68.2917 189.117 74.6668 169.889 74.8543 162.085C75.0626 153.512 84.1876 144.251 84.1876 144.251L93.1251 160.816L93.0626 161.378L92.9584 162.356C92.9584 162.356 93.6459 170.68 95.1668 177.588C95.7084 180.085 95.9793 182.77 96.8751 184.351C98.9376 187.951 99.3959 192.883 104.354 198.106C108.083 201.998 89.2084 199.958 89.2084 199.958Z" fill="#EFAEA6"/>
<path opacity="0.11" d="M95.1666 177.567C85.25 182.395 78.0417 171.262 80.3333 167.766C81.8541 165.456 87.7708 159.671 87.7708 159.671L93.0416 161.378L92.9375 162.356C92.9583 162.356 93.4166 170.742 95.1666 177.567Z" fill="#262E33"/>
<path d="M104.187 169.577C93.6666 173.468 79.1041 170.492 75.9583 165.581C73.1874 161.253 71.0624 148.455 70.2499 145.583C70.1458 145.188 70.0833 144.98 70.0833 144.98L95.3541 136.822C95.6666 137.634 95.9999 138.404 96.3124 139.132C102.083 152.284 107.854 152.991 102.917 155.052C98.9166 156.716 108.542 167.974 104.187 169.577Z" fill="#EFAEA6"/>
<path d="M84.9166 147.227C88.4166 146.52 88.7916 147.331 90.7499 145.354C92.7082 143.398 87.5416 141.359 91.6666 139.153C95.8124 136.947 100.521 135.074 99.2708 129.685C97.4583 121.881 91.3957 125.19 87.7082 127.396C85.3332 128.811 82.7915 123.213 77.7707 125.148C73.8124 126.667 75.0832 128.956 71.6249 130.476C69.5415 131.391 64.104 129.081 61.6248 132.91C57.0207 140.006 64.2707 144.459 60.8332 151.556C56.8332 159.817 75.2499 168.536 76.3332 166.393C77.6249 163.875 72.6874 158.319 74.104 156.154C76.2499 152.908 77.4582 155.364 80.6665 156.945C84.1041 158.631 88.9374 157.216 84.2499 153.304C79.5624 149.371 81.7499 147.851 84.9166 147.227Z" fill="#262E33"/>
<path d="M71.1249 181.126C78.6874 177.796 81.4374 190.677 89.4791 190.095C93.7291 189.783 92.5208 188.097 94.2083 185.87C95.2499 184.497 96.1874 182.978 98.4166 184.663C143.771 218.895 118.396 326.439 124.479 332.765C129.437 337.925 98.1874 355.614 76.5624 353.699C46.9166 351.098 43.9165 319.821 43.8332 313.766C43.7499 307.71 46.8124 204.245 46.8124 204.245C46.8124 204.245 60.1249 194.402 71.1249 181.126Z" fill="#FBFBFF"/>
<path d="M223.562 185.121C221.417 188.035 185.187 230.507 179.146 229.903C160.021 227.989 131.583 189.221 98.4167 184.684C98.4167 184.684 98.4792 191.551 103.417 208.761C109.958 231.485 99.4167 249.964 106.333 277.619C115.292 313.391 107.833 354.448 115.688 361.378C119.375 364.624 141.875 358.568 146.542 346.749C149.542 339.195 138.229 290.376 135.292 279.472C134.146 275.226 132.187 269.566 130.354 263.677C128.083 256.352 129.104 248.549 132.375 245.157C136.812 240.579 165.75 264.052 182.437 262.158C195.708 260.66 240.062 202.893 242.208 200.104C244.437 197.253 227.021 180.398 223.562 185.121Z" fill="#0069A8"/>
<path d="M83.8334 263.615C84.9584 279.263 82.5418 302.404 80.6876 315.389C77.3543 338.799 88.4793 349.808 80.8334 360.795C71.6043 374.03 41.5833 382.728 29.8542 374.925C23.2083 370.492 37.0833 339.528 38.8125 316.741C38.875 315.93 38.9375 315.118 39 314.307C39.6667 304.901 40.0208 296.556 39.1458 291.479C38.5625 288.107 38.0417 285.34 37.5625 282.884C37.4375 282.26 37.3125 281.677 37.2083 281.095C36.9167 279.638 36.6458 278.265 36.375 276.954C35.4375 272.292 34.625 268.026 33.7083 261.138C33.2708 257.767 32.7917 253.772 32.2708 248.778C30.7083 233.587 31.8542 212.298 37.625 204.12C51.3542 184.663 71.1251 181.147 71.1251 181.147C73.2917 190.303 81.4584 230.32 83.8334 263.615Z" fill="#0069A8"/>
<path d="M64.2919 222.37C31.4168 300.822 27.5627 291.666 28.271 303.569C28.9793 315.472 68.5002 371.699 69.2502 372.49C70.021 373.281 49.7502 389.408 47.2918 386.62C44.8127 383.831 -2.24988 316.512 -3.04155 300.989C-3.91655 283.883 33.2293 211.341 37.7918 204.079C42.3543 196.816 65.896 190.407 67.396 201.935C68.8752 213.443 64.2919 222.37 64.2919 222.37Z" fill="#0069A8"/>
<path opacity="0.25" d="M48.0833 260.452C48.0833 260.452 52.4792 296.785 38.9792 314.286C39.6458 304.88 40 296.535 39.125 291.458C38.5417 288.087 38.0208 285.319 37.5417 282.863C37.4167 282.239 37.2917 281.657 37.1875 281.074L48.0833 260.452Z" fill="#262E33"/>
<path opacity="0.18" d="M88.9999 194.402C88.1874 194.007 82.6875 209.801 73.1666 216.065C70.5416 217.792 67.6458 219.145 64.5208 219.748C55.375 221.538 29.1459 219.915 29.1459 219.915C29.1459 219.915 31.4792 215.004 35.3959 209.24C44.1667 210.738 57.4792 211.778 62.2292 210.592C65.75 209.718 68.9791 208.241 71.9166 206.472C77.4375 203.122 81.9375 198.647 85.2708 194.839C86.9791 192.904 86.8958 190.303 89.2083 189.887C92.2708 189.366 90.0624 194.923 88.9999 194.402Z" fill="#262E33"/>
<path d="M93.2292 189.346C92.9375 187.91 91.6042 185.704 88.5625 186.245C86.2709 186.661 86.2083 187.618 84.5208 189.554C79.4375 195.36 71.6667 202.705 61.6042 205.223C51.5417 207.741 26.375 197.565 11.7084 202.913C-2.95831 208.282 -5.68748 222.453 -27.0208 228.946C-48.3541 235.439 -73.1041 229.466 -79.3958 231.443C-85.6875 233.441 -89.3958 235.376 -88.875 237.915C-88.3541 240.433 -84.5625 244.22 -79.7916 245.386C-75.0208 246.572 -34.8125 243.783 -24.4791 240.911C-7.62498 236.229 5.00002 218.729 15.9375 216.211C26.875 213.713 51.0209 216.814 63.8959 214.317C78.25 211.508 87.6875 193.07 88.7292 193.57C89.7708 194.069 90.75 194.569 92.5209 193.84C93.75 193.362 93.5209 190.781 93.2292 189.346Z" fill="#FFD957"/>
<path opacity="0.25" d="M37.9374 324.503C40.2499 329.643 67.6873 370.18 67.6873 370.18L38.8957 316.596L37.9374 324.503Z" fill="#262E33"/>
<path d="M245.417 335.095C234.813 335.824 224.688 334.866 214.292 332.432C212.688 332.057 211 331.558 209.917 330.184C208.271 328.083 208.771 324.566 210.542 322.589C212.313 320.633 214.958 320.05 217.417 320.321C218.979 320.487 220.604 320.966 222.125 320.487C224.021 319.863 225.271 317.886 226.542 316.18C227.813 314.473 229.542 312.767 231.5 313.037C232.958 313.245 234.125 314.494 235.438 315.285C236.75 316.075 238.646 316.159 239.396 314.702C241 311.601 238.75 303.09 247 303.09C258.917 303.09 256.979 311.643 258.396 313.453C260.563 316.2 264.438 315.597 267.583 314.66C270.729 313.724 274.479 312.85 276.917 315.306C279.021 317.449 279.25 321.361 281.479 323.296C283.854 325.377 287.25 324.274 290.146 323.338C293.042 322.402 296.771 322.069 298.438 324.899C299.834 327.271 298.792 330.725 296.792 332.473C294.792 334.221 292.146 334.638 289.646 334.804C273.333 335.949 258.521 334.201 245.417 335.095Z" fill="#FBFBFF"/>
<path d="M-3.12484 111.331C2.60432 111.331 14.3543 121.465 -2.45818 123.088C-19.2498 124.711 -44.4165 123.962 -54.604 124.004C-71.229 124.066 -75.3541 123.379 -75.2082 116.596C-75.1249 112.663 -72.9999 110.124 -64.2499 109.104C-55.1249 108.043 -59.7915 97.9087 -48.6665 98.2208C-39.1874 98.4913 -38.229 111.726 -29.5415 108.48C-20.8749 105.234 -22.6874 114.078 -16.354 115.701C-9.37485 117.49 -8.85401 111.331 -3.12484 111.331Z" fill="#FBFBFF"/>
<path d="M278.854 98.7411C279.271 91.3745 278.042 87.5872 278.708 85.7144C279.375 83.8623 289.771 84.1328 290.708 85.1317C291.646 86.1306 290.708 103.215 290.708 103.215L278.854 98.7411Z" fill="#3B3B4C"/>
<path opacity="0.41" d="M290.708 103.236L278.875 98.7411C279.125 94.3711 278.667 90.9168 278.583 88.5861C281.729 87.3583 285.938 86.1514 290.875 85.5687C291.5 88.3988 290.708 103.236 290.708 103.236Z" fill="#262E33"/>
<path d="M297.604 161.045L227.021 160.92C227.021 160.92 226.729 148.268 227.125 134.554C227.146 133.826 227.167 133.077 227.188 132.328C227.646 115.805 228.146 98.0128 228.146 97.1179C228.146 95.4116 260.792 85.0692 263.75 84.4658C266.708 83.8831 293.646 103.527 297.583 106.461C301.521 109.416 298.583 145.729 297.604 161.045Z" fill="#515160"/>
<path d="M301.208 106.753C301.208 106.753 301.104 107.564 300.75 108.272C300.5 108.75 300.125 109.167 299.563 109.208C298.208 109.312 263.75 84.4658 263.75 84.4658C263.75 84.4658 230.521 99.5943 229.333 99.8856C228.958 99.9689 228.333 99.8232 227.625 99.5527C226.083 98.9284 224.229 97.6798 224.229 96.9515C224.229 95.8694 262.771 82.2184 263.667 82.1143C264.542 82.0103 296.896 104.297 301.208 106.753Z" fill="#419F81"/>
<path d="M287 118.344H283.625C283.417 118.344 283.25 118.51 283.25 118.718V121.777C283.25 121.944 283.375 122.11 283.542 122.152L286.917 122.963C287.146 123.026 287.375 122.838 287.375 122.589V118.739C287.375 118.51 287.208 118.344 287 118.344Z" fill="#FBFBFF"/>
<path d="M287.375 125.585V128.769C287.375 128.977 287.208 129.144 287 129.144H283.625C283.417 129.144 283.25 128.977 283.25 128.769V125.585C283.25 125.377 283.417 125.211 283.625 125.211H287C287.208 125.211 287.375 125.377 287.375 125.585Z" fill="#FBFBFF"/>
<path d="M281.479 118.344V121.84C281.479 122.027 281.333 122.193 281.146 122.214L278.271 122.526C278.042 122.547 277.854 122.381 277.854 122.152V118.656C277.854 118.489 277.979 118.323 278.146 118.281L281.021 117.574C281.25 117.511 281.479 117.699 281.479 117.948V118.344Z" fill="#FBFBFF"/>
<path d="M281.479 125.627V129.539C281.479 129.747 281.312 129.914 281.104 129.914H278.167C277.979 129.914 277.812 129.768 277.792 129.581L277.292 126.064C277.271 125.856 277.417 125.669 277.625 125.627L281.042 125.232C281.271 125.232 281.479 125.398 281.479 125.627Z" fill="#FBFBFF"/>
<path d="M251.625 117.137C251.729 118.885 251.667 120.113 251.625 120.674C251.604 120.862 251.458 121.007 251.271 121.028L247.709 121.424C247.479 121.444 247.271 121.257 247.271 121.028V117.158C247.271 116.949 247.438 116.762 247.667 116.762H251.229C251.438 116.783 251.625 116.929 251.625 117.137Z" fill="#FBFBFF"/>
<path d="M245.146 116.741C243.917 116.637 242.479 116.72 241.875 116.762C241.687 116.783 241.542 116.908 241.521 117.074C241.333 118.052 240.75 121.174 241 121.486C241.25 121.798 244.125 121.611 245.167 121.528C245.375 121.507 245.521 121.34 245.521 121.132V117.137C245.5 116.929 245.354 116.762 245.146 116.741Z" fill="#FBFBFF"/>
<path d="M251.313 123.65C250.188 123.65 248.333 123.65 247.604 123.65C247.417 123.65 247.25 123.775 247.208 123.962C246.979 125.065 246.271 128.707 247.271 128.956C248.458 129.248 251.479 129.352 251.688 128.956C251.854 128.623 251.75 125.19 251.708 124.025C251.708 123.816 251.521 123.65 251.313 123.65Z" fill="#FBFBFF"/>
<path d="M245.042 123.671C244 123.712 242.563 123.671 241.875 123.65C241.646 123.65 241.479 123.816 241.479 124.045V128.707C241.479 128.956 241.729 129.144 241.958 129.081L244.646 128.415C244.813 128.374 244.917 128.249 244.938 128.082L245.438 124.108C245.479 123.879 245.292 123.671 245.042 123.671Z" fill="#FBFBFF"/>
<path d="M267.854 161.107C268.146 154.344 269.146 147.914 267.854 143.877C267.375 142.399 263.583 136.947 259.167 142.254C254.75 147.56 256.208 160.899 256.208 160.899L267.854 161.107Z" fill="#FBFBFF"/>
<path opacity="0.28" d="M300.75 108.272C300.5 108.75 300.125 109.167 299.562 109.208C298.208 109.312 263.75 84.4658 263.75 84.4658C263.75 84.4658 230.521 99.5943 229.333 99.8856C228.958 99.9688 228.333 99.8232 227.625 99.5527C236.833 93.8925 262.5 83.1756 263.521 83.3629C264.5 83.5294 295.25 103.61 300.75 108.272Z" fill="#262E33"/>
<path d="M211.125 144.293C216.937 143.815 221.479 146.166 220.854 139.008C220.229 131.849 225.75 129.664 225.271 125.606C224.792 121.528 224.271 120.445 220.958 120.237C217.417 120.008 216.771 113.1 219.458 110.811C224.5 106.503 225.875 100.968 221.333 99.6151C215.312 97.8463 217.729 92.6647 213.021 93.3723C208.312 94.0798 201.25 98.7827 203.146 104.734C205.021 110.686 208.312 115.389 205.333 117.116C202.354 118.843 197.354 121.028 200.396 125.107C203.437 129.185 207.75 127.687 206.292 132.557C204.771 137.592 200.229 137.988 202.333 140.922C204.292 143.648 211.125 144.293 211.125 144.293Z" fill="#419F81"/>
<path d="M208.729 160.046C210.979 156.487 212.646 135.054 212.646 130.975C212.646 126.896 211.542 112.038 212.646 111.164C213.75 110.29 214.208 129.081 214.208 132.224C214.208 135.366 214.208 160.462 214.208 160.462C214.208 160.462 206.688 163.271 208.729 160.046Z" fill="#603A3E"/>
<path opacity="0.28" d="M217.542 144.272C215.833 144.397 213.583 144.085 211.104 144.293C211.104 144.293 204.292 143.669 202.312 140.922C200.208 137.988 204.75 137.572 206.271 132.556C207.729 127.687 203.417 129.185 200.375 125.107C197.333 121.028 202.333 118.843 205.312 117.116C208.292 115.389 205 110.686 203.125 104.734C203.104 104.693 203.104 104.651 203.083 104.589C210.604 111.289 217.917 125.814 217.542 144.272Z" fill="#262E33"/>
<path opacity="0.75" fill-rule="evenodd" clip-rule="evenodd" d="M183.305 80.0044C182.884 79.647 182.832 79.0159 183.19 78.5949L183.951 79.2415C183.19 78.5949 183.189 78.5949 183.19 78.5949L183.199 78.5834L183.226 78.5522C183.249 78.525 183.283 78.4854 183.326 78.4353C183.412 78.335 183.536 78.1921 183.685 78.0208C183.984 77.6788 184.39 77.2209 184.815 76.7613C185.236 76.3051 185.689 75.8328 186.08 75.4691C186.273 75.2893 186.47 75.1173 186.654 74.9841C186.744 74.9181 186.853 74.8458 186.971 74.7861C187.064 74.739 187.279 74.6378 187.552 74.6378C187.851 74.6378 188.08 74.7594 188.174 74.8132C188.295 74.882 188.404 74.9643 188.492 75.0374C188.67 75.1854 188.86 75.3753 189.042 75.5719C189.413 75.9702 189.839 76.4869 190.234 76.9853C190.633 77.4876 191.012 77.9879 191.291 78.3616C191.431 78.5487 191.546 78.7048 191.627 78.8144C191.667 78.8692 191.698 78.9124 191.72 78.9421L191.745 78.9763L191.753 78.9878L191.754 78.9887C191.754 78.9887 191.754 78.9888 190.944 79.5752L191.754 78.9887C192.078 79.436 191.978 80.0613 191.53 80.3852C191.083 80.7091 190.458 80.609 190.134 80.1617C190.134 80.1617 190.134 80.1617 190.134 80.1617L190.127 80.1516L190.104 80.1199C190.083 80.0919 190.053 80.0506 190.014 79.9977C189.937 79.892 189.825 79.7404 189.689 79.5584C189.416 79.1938 189.049 78.7098 188.667 78.2277C188.282 77.7418 187.894 77.274 187.578 76.9341C187.556 76.9106 187.535 76.8881 187.515 76.8666C187.491 76.8876 187.467 76.9097 187.443 76.9328C187.108 77.2449 186.695 77.6736 186.284 78.1184C185.876 78.5599 185.483 79.003 185.191 79.3368C185.046 79.5034 184.926 79.6421 184.843 79.7389L184.747 79.8508L184.722 79.8798L184.715 79.8886" fill="#262E33"/>
<path opacity="0.75" fill-rule="evenodd" clip-rule="evenodd" d="M314.05 157.463C314.407 157.042 315.039 156.991 315.46 157.348L314.813 158.11C315.46 157.348 315.46 157.348 315.46 157.348L315.471 157.358L315.502 157.385C315.529 157.408 315.569 157.442 315.619 157.485C315.72 157.571 315.862 157.694 316.034 157.844C316.376 158.143 316.834 158.549 317.293 158.973C317.749 159.395 318.222 159.848 318.585 160.238C318.765 160.431 318.937 160.629 319.07 160.812C319.136 160.903 319.209 161.011 319.268 161.129C319.315 161.222 319.417 161.437 319.417 161.711C319.417 162.01 319.295 162.239 319.241 162.333C319.172 162.454 319.09 162.562 319.017 162.65C318.869 162.829 318.679 163.018 318.483 163.201C318.084 163.572 317.568 163.998 317.069 164.393C316.567 164.791 316.067 165.171 315.693 165.45C315.506 165.59 315.35 165.705 315.24 165.785C315.185 165.825 315.142 165.857 315.112 165.879L315.078 165.903L315.067 165.912L315.066 165.912C315.066 165.912 315.066 165.913 314.479 165.103L315.066 165.912C314.618 166.236 313.993 166.136 313.669 165.689C313.345 165.242 313.445 164.616 313.893 164.293C313.893 164.293 313.893 164.293 313.893 164.293L313.903 164.285L313.935 164.262C313.963 164.242 314.004 164.212 314.057 164.173C314.163 164.095 314.314 163.983 314.496 163.847C314.861 163.575 315.345 163.208 315.827 162.826C316.313 162.441 316.78 162.053 317.12 161.737C317.144 161.715 317.166 161.694 317.188 161.673C317.167 161.65 317.145 161.626 317.122 161.601C316.81 161.266 316.381 160.853 315.936 160.442C315.495 160.034 315.052 159.642 314.718 159.35C314.551 159.204 314.412 159.085 314.316 159.001L314.204 158.906L314.175 158.881L314.166 158.873" fill="#262E33"/>
</svg>
