<?xml version="1.0" encoding="utf-8"?>
<!-- Generator: Adobe Illustrator 26.0.3, SVG Export Plug-In . SVG Version: 6.00 Build 0)  -->
<svg version="1.1" id="Layer_1" xmlns="http://www.w3.org/2000/svg" xmlns:xlink="http://www.w3.org/1999/xlink" x="0px" y="0px"
	 viewBox="0 0 500 128" enable-background="new 0 0 500 128" xml:space="preserve">
<g>
	<path d="M99.5,50.5c0,21.1-13.1,39.2-31.7,46.5c-2.4,1-4.9,1.7-7.5,2.3c-3.5,0.8-7.1,1.2-10.8,1.2h-0.1c-2.9,0-5.7-0.2-8.4-0.7
		c-4.3-0.7-8.5-2-12.3-3.8H3V68.9C0.7,63.2-0.5,57-0.5,50.5c0-27.6,22.4-50,50-50c16.7,0,31.4,8.1,40.5,20.7c-3.9,0.3-7.7,1-11.3,2
		C71.4,15.4,61,10.5,49.5,10.5c-22.1,0-40,17.9-40,40c0,1.9,0.1,3.7,0.4,5.5c0.5,3.8,1.6,7.5,3.1,10.9V86h18.1
		c2.2,1.1,4.5,2.1,6.9,2.8c1.7,0.5,3.4,0.9,5.1,1.2c1,0.2,1.9,0.3,2.9,0.4c1.2,0.1,2.4,0.2,3.6,0.2c2.3,0,4.5-0.2,6.7-0.6
		c2.5-0.4,4.9-1.1,7.2-1.9c15.2-5.7,26.1-20.3,26.1-37.5c0-1.4-0.1-2.7-0.2-4.1c1.7-0.3,3.4-0.4,5.2-0.4c1.6,0,3.2,0.1,4.8,0.3
		C99.4,47.7,99.5,49.1,99.5,50.5z"/>
	<path d="M144.5,78.5c0,7.4-1.6,14.4-4.5,20.7V125h-27.1c-5.7,2.3-11.9,3.5-18.4,3.5c-16.7,0-31.4-8.2-40.5-20.7
		c3.9-0.3,7.7-1,11.3-2c7.3,7.8,17.7,12.7,29.2,12.7c1.9,0,3.7-0.1,5.5-0.4c3.8-0.5,7.5-1.6,10.9-3.1H130V96.9
		c1.9-3.7,3.3-7.7,4-11.9c0.4-2.1,0.5-4.3,0.5-6.5c0-18.1-12-33.3-28.4-38.3c-2.6-0.8-5.2-1.3-8-1.5c-1.2-0.1-2.4-0.2-3.6-0.2
		c-2.3,0-4.5,0.2-6.7,0.6c-2.5,0.4-4.9,1.1-7.2,1.9c-15.2,5.7-26.1,20.3-26.1,37.5c0,1.4,0.1,2.7,0.2,4.1C53,82.9,51.3,83,49.5,83
		c-1.6,0-3.2-0.1-4.8-0.4c-0.1-1.4-0.2-2.8-0.2-4.1c0-21.2,13.1-39.2,31.7-46.5c2.4-0.9,4.9-1.7,7.5-2.3c3.5-0.8,7.1-1.2,10.8-1.2
		h0.1c2.9,0,5.7,0.2,8.4,0.7C126.5,33.2,144.5,53.8,144.5,78.5z"/>
</g>
<g>
	<path d="M202.8,88h-23.1l-3.7,10.9h-15.8l22.4-61.8h17.4l22.4,61.8h-15.9L202.8,88z M199,76.4l-7.7-22.6l-7.6,22.6H199z"/>
	<path d="M230.9,61c1.9-3.8,4.5-6.7,7.8-8.8c3.3-2.1,7-3.1,11-3.1c3.2,0,6.2,0.7,8.8,2c2.7,1.4,4.8,3.2,6.3,5.5V33.8h15v65.1h-15v-7
		c-1.4,2.3-3.4,4.2-6,5.6c-2.6,1.4-5.6,2.1-9.1,2.1c-4,0-7.7-1-11-3.1c-3.3-2.1-5.9-5-7.8-8.9c-1.9-3.8-2.9-8.3-2.9-13.3
		C228.1,69.2,229,64.8,230.9,61z M261.7,65.5c-2.1-2.2-4.6-3.3-7.6-3.3s-5.5,1.1-7.6,3.2c-2.1,2.1-3.1,5.1-3.1,8.8
		c0,3.8,1,6.7,3.1,8.9c2.1,2.2,4.6,3.3,7.6,3.3s5.5-1.1,7.6-3.3c2.1-2.2,3.1-5.1,3.1-8.9C264.9,70.6,263.8,67.6,261.7,65.5z"/>
	<path d="M314.8,84.8l10.6-35h16L324,98.9h-18.6L288,49.8h16.1L314.8,84.8z"/>
	<path d="M350.7,42.4c-1.7-1.6-2.5-3.5-2.5-5.8c0-2.3,0.8-4.3,2.5-5.9c1.7-1.6,3.8-2.3,6.5-2.3c2.6,0,4.7,0.8,6.4,2.3
		c1.7,1.6,2.5,3.5,2.5,5.9c0,2.3-0.8,4.2-2.5,5.8c-1.7,1.6-3.8,2.3-6.4,2.3C354.5,44.7,352.4,43.9,350.7,42.4z M364.7,49.8v49.1h-15
		V49.8H364.7z"/>
	<path d="M423.4,77.9h-34.1c0.2,3.1,1.2,5.4,2.9,7c1.7,1.6,3.9,2.4,6.4,2.4c3.8,0,6.4-1.6,7.8-4.8h16c-0.8,3.2-2.3,6.1-4.4,8.7
		c-2.1,2.6-4.8,4.6-8.1,6.1c-3.2,1.5-6.8,2.2-10.8,2.2c-4.8,0-9.1-1-12.8-3.1c-3.8-2.1-6.7-5-8.8-8.8c-2.1-3.8-3.2-8.3-3.2-13.4
		c0-5.1,1-9.6,3.1-13.4c2.1-3.8,5-6.7,8.8-8.8c3.8-2.1,8.1-3.1,12.9-3.1c4.8,0,9,1,12.7,3c3.7,2,6.6,4.8,8.7,8.5
		c2.1,3.7,3.1,8,3.1,12.9C423.7,75,423.6,76.4,423.4,77.9z M408.3,69.6c0-2.6-0.9-4.6-2.6-6.2c-1.8-1.5-4-2.3-6.6-2.3
		c-2.5,0-4.6,0.7-6.4,2.2c-1.7,1.5-2.8,3.5-3.2,6.2H408.3z"/>
	<path d="M442,97.4c-3.3-1.5-6-3.5-7.9-6c-1.9-2.6-3-5.4-3.3-8.6h14.9c0.2,1.7,1,3.1,2.4,4.1c1.4,1.1,3.1,1.6,5.2,1.6
		c1.9,0,3.3-0.4,4.4-1.1c1-0.7,1.5-1.7,1.5-2.9c0-1.4-0.7-2.4-2.2-3.1c-1.5-0.7-3.8-1.4-7.1-2.2c-3.5-0.8-6.5-1.7-8.8-2.6
		c-2.3-0.9-4.4-2.3-6.1-4.3c-1.7-2-2.6-4.6-2.6-8c0-2.8,0.8-5.4,2.3-7.7c1.6-2.3,3.8-4.1,6.9-5.5c3-1.3,6.6-2,10.8-2
		c6.2,0,11,1.5,14.6,4.6c3.5,3.1,5.6,7.1,6.1,12.1h-13.9c-0.2-1.7-1-3-2.2-4c-1.3-1-2.9-1.5-5-1.5c-1.8,0-3.1,0.3-4,1
		c-0.9,0.7-1.4,1.6-1.4,2.8c0,1.4,0.7,2.5,2.2,3.2s3.8,1.4,7,2.1c3.6,0.9,6.6,1.9,8.9,2.8c2.3,0.9,4.3,2.4,6,4.4
		c1.7,2,2.6,4.7,2.7,8.1c0,2.9-0.8,5.4-2.4,7.7c-1.6,2.3-3.9,4-7,5.3c-3,1.3-6.5,1.9-10.5,1.9C449.2,99.6,445.4,98.9,442,97.4z"/>
	<path d="M485,97.3c-1.7-1.6-2.5-3.5-2.5-5.8c0-2.3,0.8-4.3,2.5-5.9s3.8-2.4,6.5-2.4c2.6,0,4.7,0.8,6.4,2.4s2.5,3.6,2.5,5.9
		c0,2.3-0.8,4.2-2.5,5.8c-1.7,1.6-3.8,2.3-6.4,2.3C488.8,99.6,486.7,98.8,485,97.3z"/>
</g>
<text transform="matrix(1 0 0 1 158.9131 -43.8877)" font-family="'Poppins-Bold'" font-size="88px" letter-spacing="1">Advies.</text>
</svg>
