<svg width="152" height="23" viewBox="0 0 152 23" fill="none" xmlns="http://www.w3.org/2000/svg">
<g clip-path="url(#clip0_99_3225)">
<path d="M32.5793 20.338C32.3316 20.4104 32.0446 20.4771 31.7214 20.5437C31.3982 20.6104 31.0599 20.6654 30.7064 20.7147C30.353 20.7611 29.9906 20.8016 29.625 20.8306C29.2595 20.8596 28.9061 20.8741 28.5708 20.8741C27.7643 20.8741 27.0424 20.7611 26.408 20.535C25.7737 20.309 25.239 19.9845 24.8041 19.5614C24.3691 19.1384 24.0368 18.6255 23.8072 18.0227C23.5777 17.42 23.4629 16.7449 23.4629 15.9944C23.4629 15.2323 23.5626 14.5426 23.7619 13.9312C23.9613 13.3169 24.2452 12.7953 24.6198 12.3664C24.9944 11.9376 25.4505 11.6101 25.9882 11.3841C26.5289 11.1581 27.1451 11.0451 27.8429 11.0451C28.2265 11.0451 28.5739 11.0799 28.8759 11.1523C29.181 11.2248 29.4891 11.3262 29.7972 11.4566V7.19985L32.5732 6.771V20.338H32.5793ZM26.2993 15.8698C26.2993 16.6927 26.4926 17.3534 26.8762 17.8547C27.2599 18.356 27.8338 18.6052 28.592 18.6052C28.8397 18.6052 29.0692 18.5965 29.2807 18.5791C29.4921 18.5617 29.6643 18.5414 29.8033 18.5153V13.6704C29.6281 13.5632 29.4015 13.4734 29.1236 13.4038C28.8427 13.3314 28.5618 13.2966 28.2748 13.2966C26.9578 13.2966 26.2993 14.1543 26.2993 15.8698Z" fill="#FDFDFD"/>
<path d="M38.7082 10.99C39.5268 10.99 40.2125 11.0798 40.7592 11.2595C41.306 11.4391 41.744 11.6941 42.0732 12.0274C42.4025 12.3606 42.6351 12.7663 42.771 13.2444C42.9069 13.7225 42.9764 14.2528 42.9764 14.8352V20.3756C42.5777 20.4596 42.0249 20.5582 41.318 20.6712C40.6112 20.7842 39.7533 20.8421 38.7475 20.8421C38.1131 20.8421 37.5392 20.7871 37.0227 20.6799C36.5061 20.5727 36.0621 20.3959 35.6905 20.1525C35.319 19.9091 35.032 19.5903 34.8327 19.1963C34.6333 18.8022 34.5336 18.3211 34.5336 17.7474C34.5336 17.1997 34.6484 16.7332 34.878 16.3536C35.1076 15.9711 35.4157 15.6698 35.7993 15.4408C36.1829 15.2148 36.6239 15.0497 37.1223 14.9482C37.6177 14.8468 38.1343 14.7976 38.6689 14.7976C39.0284 14.7976 39.3486 14.812 39.6295 14.841C39.9104 14.87 40.137 14.9106 40.3091 14.9569V14.7077C40.3091 14.2557 40.1672 13.8906 39.8802 13.6182C39.5932 13.3429 39.0979 13.2067 38.388 13.2067C37.9168 13.2067 37.4486 13.2386 36.9894 13.3052C36.5303 13.3719 36.1316 13.4646 35.7963 13.5834L35.4429 11.4391C35.6029 11.3928 35.8053 11.3406 36.047 11.2885C36.2886 11.2334 36.5545 11.187 36.8384 11.1465C37.1254 11.1059 37.4244 11.0682 37.7416 11.0393C38.0648 11.0045 38.385 10.99 38.7082 10.99ZM38.9317 18.7819C39.2036 18.7819 39.4664 18.7761 39.7141 18.7645C39.9618 18.7529 40.1611 18.7355 40.3091 18.7094V16.6897C40.1974 16.6666 40.0282 16.6434 39.8047 16.6173C39.5812 16.5941 39.3758 16.5825 39.1885 16.5825C38.9287 16.5825 38.681 16.597 38.4514 16.626C38.2219 16.655 38.0195 16.7129 37.8473 16.797C37.6721 16.881 37.5362 16.994 37.4365 17.136C37.3368 17.278 37.2885 17.4576 37.2885 17.6721C37.2885 18.0893 37.4335 18.3791 37.7265 18.5385C38.0225 18.7036 38.4242 18.7819 38.9317 18.7819Z" fill="#FDFDFD"/>
<path d="M45.399 8.89785L48.1749 8.46899V11.2392H51.5098V13.4559H48.1749V16.7622C48.1749 17.3214 48.2776 17.7706 48.4831 18.1038C48.6885 18.4371 49.1023 18.6051 49.7215 18.6051C50.0206 18.6051 50.3257 18.579 50.6428 18.524C50.96 18.4718 51.247 18.3965 51.5098 18.3009L51.9024 20.3756C51.5671 20.506 51.1956 20.619 50.7848 20.7146C50.374 20.8103 49.8726 20.8566 49.2745 20.8566C48.5163 20.8566 47.888 20.7581 47.3926 20.5611C46.8942 20.364 46.4985 20.0916 46.1994 19.7381C45.9004 19.3875 45.692 18.9615 45.5742 18.4602C45.4563 17.9589 45.3959 17.4055 45.3959 16.797L45.399 8.89785Z" fill="#FDFDFD"/>
<path d="M56.9138 10.99C57.7324 10.99 58.418 11.0798 58.9648 11.2595C59.5115 11.4391 59.9495 11.6941 60.2788 12.0274C60.608 12.3606 60.8406 12.7663 60.9766 13.2444C61.1125 13.7225 61.182 14.2528 61.182 14.8352V20.3756C60.7832 20.4596 60.2304 20.5582 59.5236 20.6712C58.8168 20.7842 57.9589 20.8421 56.953 20.8421C56.3187 20.8421 55.7448 20.7871 55.2282 20.6799C54.7117 20.5727 54.2677 20.3959 53.8961 20.1525C53.5246 19.9091 53.2376 19.5903 53.0382 19.1963C52.8389 18.8022 52.7392 18.3211 52.7392 17.7474C52.7392 17.1997 52.854 16.7332 53.0836 16.3536C53.3131 15.9711 53.6212 15.6698 54.0049 15.4408C54.3885 15.2148 54.8295 15.0497 55.3279 14.9482C55.8233 14.8468 56.3398 14.7976 56.8745 14.7976C57.2339 14.7976 57.5541 14.812 57.8351 14.841C58.116 14.87 58.3425 14.9106 58.5147 14.9569V14.7077C58.5147 14.2557 58.3727 13.8906 58.0858 13.6182C57.7988 13.3429 57.3034 13.2067 56.5936 13.2067C56.1223 13.2067 55.6541 13.2386 55.195 13.3052C54.7359 13.3719 54.3371 13.4646 54.0018 13.5834L53.6484 11.4391C53.8085 11.3928 54.0109 11.3406 54.2525 11.2885C54.4942 11.2334 54.76 11.187 55.044 11.1465C55.3309 11.1059 55.63 11.0682 55.9471 11.0393C56.2704 11.0045 56.5905 10.99 56.9138 10.99ZM57.1373 18.7819C57.4091 18.7819 57.6719 18.7761 57.9196 18.7645C58.1673 18.7529 58.3667 18.7355 58.5147 18.7094V16.6897C58.4029 16.6666 58.2338 16.6434 58.0103 16.6173C57.7867 16.5941 57.5813 16.5825 57.394 16.5825C57.1343 16.5825 56.8866 16.597 56.657 16.626C56.4274 16.655 56.225 16.7129 56.0529 16.797C55.8777 16.881 55.7417 16.994 55.6421 17.136C55.5424 17.278 55.494 17.4576 55.494 17.6721C55.494 18.0893 55.639 18.3791 55.932 18.5385C56.2281 18.7036 56.6298 18.7819 57.1373 18.7819Z" fill="#FDFDFD"/>
<path d="M67.5372 6.771C68.0598 6.771 68.4857 6.80866 68.8149 6.8869C69.1442 6.96514 69.3587 7.03179 69.4583 7.09264L69.2167 8.09524C69.0808 8.03439 68.8784 7.97354 68.6126 7.90689C68.3467 7.84024 68.0084 7.80837 67.5976 7.80837C66.7397 7.80837 66.1296 8.017 65.761 8.43427C65.3955 8.85154 65.2113 9.51801 65.2113 10.4366V11.4015H69.0868V12.3838H65.2113V20.6423H64V10.3989C64 9.19637 64.29 8.28939 64.8669 7.68087C65.4409 7.07525 66.332 6.771 67.5372 6.771Z" fill="#FDFDFD"/>
<path d="M73.9292 11.1841C74.5635 11.1841 75.1012 11.271 75.5422 11.442C75.9832 11.6158 76.3397 11.8534 76.6145 12.1577C76.8864 12.462 77.0858 12.8213 77.2096 13.2385C77.3335 13.6558 77.3969 14.1079 77.3969 14.5976V20.4248C77.273 20.4596 77.0918 20.5002 76.8562 20.5407C76.6206 20.5813 76.3457 20.6277 76.0376 20.674C75.7265 20.7204 75.3821 20.761 75.0045 20.7899C74.627 20.8189 74.2373 20.8334 73.8386 20.8334C73.3281 20.8334 72.8599 20.7783 72.4309 20.6711C72.002 20.5639 71.6305 20.393 71.3133 20.1611C70.9961 19.9293 70.7484 19.6309 70.5672 19.2686C70.3859 18.9064 70.2983 18.4602 70.2983 17.9357C70.2983 17.4344 70.398 17.0055 70.5974 16.6491C70.7968 16.2927 71.0747 15.9971 71.4371 15.7653C71.7966 15.5335 72.2255 15.3626 72.7239 15.2553C73.2193 15.1481 73.76 15.096 74.346 15.096C74.5212 15.096 74.7025 15.1047 74.8958 15.122C75.0891 15.1394 75.2734 15.1626 75.4546 15.1945C75.6359 15.2235 75.7899 15.2553 75.9198 15.2843C76.0497 15.3133 76.1403 15.3423 76.1886 15.3655V14.7946C76.1886 14.473 76.1645 14.16 76.1131 13.8558C76.0648 13.5515 75.956 13.2791 75.7869 13.0328C75.6177 12.7894 75.3821 12.5924 75.0801 12.4417C74.775 12.2939 74.3762 12.2186 73.8778 12.2186C73.171 12.2186 72.6424 12.2678 72.295 12.3605C71.9476 12.4562 71.6909 12.5344 71.5308 12.5924L71.3616 11.5724C71.5731 11.4768 71.8993 11.3869 72.3403 11.3058C72.7753 11.2275 73.3069 11.1841 73.9292 11.1841ZM74.0409 19.8018C74.5122 19.8018 74.926 19.7873 75.2794 19.7584C75.6328 19.7294 75.9349 19.6888 76.1826 19.6424V16.3883C76.0467 16.3275 75.8292 16.2666 75.5301 16.2C75.2311 16.1333 74.8233 16.1015 74.3007 16.1015C74.0017 16.1015 73.6905 16.1218 73.3704 16.1652C73.0471 16.2058 72.7481 16.2956 72.4762 16.4318C72.2014 16.568 71.9778 16.7563 71.8057 16.994C71.6305 17.2316 71.5459 17.5474 71.5459 17.9415C71.5459 18.2863 71.6033 18.579 71.7241 18.8166C71.8419 19.0542 72.0111 19.2455 72.2285 19.3875C72.446 19.5294 72.7058 19.6338 73.0109 19.7004C73.3099 19.7699 73.6543 19.8018 74.0409 19.8018Z" fill="#FDFDFD"/>
<path d="M80.4868 11.7232C80.8463 11.6276 81.3326 11.5204 81.9398 11.4016C82.5469 11.2828 83.293 11.2219 84.175 11.2219C84.9091 11.2219 85.5192 11.3233 86.0116 11.5262C86.501 11.729 86.8936 12.0188 87.1866 12.3926C87.4797 12.7693 87.6881 13.2184 87.8119 13.7429C87.9358 14.2674 87.9992 14.844 87.9992 15.4757V20.6423H86.7879V15.8524C86.7879 15.1976 86.7426 14.6441 86.649 14.1892C86.5553 13.7371 86.4013 13.3662 86.1838 13.0793C85.9663 12.7925 85.6793 12.5867 85.3259 12.4621C84.9725 12.3375 84.5285 12.2738 83.9938 12.2738C83.4229 12.2738 82.9275 12.3028 82.5137 12.3636C82.0968 12.4245 81.828 12.4766 81.7041 12.523V20.6394H80.4929V11.7232H80.4868Z" fill="#FDFDFD"/>
<path d="M94.0166 11.1841C94.6509 11.1841 95.1886 11.271 95.6296 11.442C96.0706 11.6158 96.4271 11.8534 96.702 12.1577C96.9768 12.462 97.1732 12.8213 97.297 13.2385C97.4209 13.6558 97.4843 14.1079 97.4843 14.5976V20.4248C97.3605 20.4596 97.1792 20.5002 96.9436 20.5407C96.708 20.5813 96.4331 20.6277 96.125 20.674C95.8139 20.7204 95.4695 20.761 95.0919 20.7899C94.7144 20.8189 94.3247 20.8334 93.926 20.8334C93.4155 20.8334 92.9473 20.7783 92.5183 20.6711C92.0894 20.5639 91.7179 20.393 91.4007 20.1611C91.0835 19.9293 90.8358 19.6309 90.6546 19.2686C90.4733 18.9064 90.3857 18.4602 90.3857 17.9357C90.3857 17.4344 90.4854 17.0055 90.6848 16.6491C90.8842 16.2927 91.1621 15.9971 91.5245 15.7653C91.884 15.5335 92.3129 15.3626 92.8113 15.2553C93.3067 15.1481 93.8474 15.096 94.4334 15.096C94.6086 15.096 94.7899 15.1047 94.9832 15.122C95.1765 15.1394 95.3608 15.1626 95.542 15.1945C95.7233 15.2235 95.8773 15.2553 96.0072 15.2843C96.1371 15.3133 96.2277 15.3423 96.276 15.3655V14.7946C96.276 14.473 96.2519 14.16 96.2005 13.8558C96.1492 13.5515 96.0435 13.2791 95.8743 13.0328C95.7082 12.7894 95.4695 12.5924 95.1675 12.4417C94.8624 12.2939 94.4636 12.2186 93.9652 12.2186C93.2584 12.2186 92.7298 12.2678 92.3824 12.3605C92.035 12.4562 91.7783 12.5344 91.6182 12.5924L91.449 11.5724C91.6605 11.4768 91.9867 11.3869 92.4277 11.3058C92.8627 11.2275 93.3943 11.1841 94.0166 11.1841ZM94.1284 19.8018C94.5996 19.8018 95.0134 19.7873 95.3668 19.7584C95.7202 19.7294 96.0223 19.6888 96.27 19.6424V16.3883C96.1341 16.3275 95.9166 16.2666 95.6175 16.2C95.3185 16.1333 94.9107 16.1015 94.3881 16.1015C94.0891 16.1015 93.778 16.1218 93.4578 16.1652C93.1346 16.2058 92.8355 16.2956 92.5636 16.4318C92.2888 16.568 92.0652 16.7563 91.8931 16.994C91.7179 17.2316 91.6333 17.5474 91.6333 17.9415C91.6333 18.2863 91.6907 18.579 91.8115 18.8166C91.9293 19.0542 92.0985 19.2455 92.316 19.3875C92.5334 19.5294 92.7932 19.6338 93.0983 19.7004C93.3973 19.7699 93.7417 19.8018 94.1284 19.8018Z" fill="#FDFDFD"/>
<path d="M101.71 11.4015H105.55V12.3838H101.71V17.2983C101.71 17.8227 101.756 18.2487 101.849 18.5761C101.943 18.9036 102.076 19.1557 102.251 19.3353C102.426 19.515 102.635 19.6338 102.885 19.6918C103.133 19.7526 103.408 19.7816 103.704 19.7816C104.214 19.7816 104.622 19.7236 104.933 19.6106C105.244 19.4976 105.486 19.3933 105.661 19.2977L105.96 20.2626C105.785 20.3698 105.483 20.4915 105.048 20.6277C104.613 20.7639 104.142 20.8335 103.631 20.8335C103.036 20.8335 102.535 20.7581 102.13 20.6103C101.725 20.4625 101.402 20.2365 101.161 19.9323C100.919 19.628 100.747 19.2513 100.647 18.7964C100.547 18.3443 100.499 17.8083 100.499 17.1882V8.68343L101.71 8.46899V11.4015Z" fill="#FDFDFD"/>
<path d="M109.277 8.611C109.277 8.88628 109.189 9.1036 109.017 9.26298C108.842 9.42525 108.631 9.50349 108.383 9.50349C108.135 9.50349 107.924 9.42235 107.749 9.26298C107.573 9.1036 107.489 8.88628 107.489 8.611C107.489 8.33572 107.576 8.11839 107.749 7.95901C107.924 7.79674 108.132 7.71851 108.383 7.71851C108.631 7.71851 108.842 7.79964 109.017 7.95901C109.189 8.11839 109.277 8.33861 109.277 8.611ZM108.996 20.6422H107.785V11.4015H108.996V20.6422Z" fill="#FDFDFD"/>
<path d="M116.191 20.8393C115.445 20.8393 114.787 20.7263 114.216 20.5002C113.645 20.2742 113.171 19.9497 112.79 19.5266C112.412 19.1035 112.122 18.5964 111.923 18.0082C111.724 17.4171 111.624 16.7651 111.624 16.0523C111.624 15.325 111.727 14.6643 111.932 14.0674C112.138 13.4704 112.434 12.9575 112.817 12.5287C113.201 12.0998 113.669 11.7695 114.216 11.5377C114.762 11.3058 115.379 11.1899 116.061 11.1899C116.584 11.1899 117.07 11.2305 117.523 11.3145C117.976 11.3986 118.327 11.5058 118.578 11.6362L118.26 12.6359C118.013 12.5171 117.732 12.4215 117.421 12.349C117.11 12.2766 116.693 12.2418 116.173 12.2418C115.104 12.2418 114.294 12.5721 113.742 13.2328C113.189 13.8935 112.911 14.8323 112.911 16.0494C112.911 16.597 112.974 17.1012 113.098 17.5591C113.222 18.0169 113.424 18.411 113.702 18.7384C113.983 19.0659 114.343 19.3238 114.784 19.5063C115.225 19.6918 115.762 19.7845 116.397 19.7845C116.919 19.7845 117.357 19.7265 117.711 19.6135C118.064 19.5005 118.324 19.402 118.484 19.318L118.744 20.3206C118.52 20.4394 118.17 20.5553 117.69 20.6683C117.212 20.7813 116.711 20.8393 116.191 20.8393Z" fill="#FDFDFD"/>
<path d="M122.749 19.8194C123.444 19.8194 124.018 19.7093 124.474 19.4891C124.927 19.2689 125.153 18.898 125.153 18.3706C125.153 18.1214 125.114 17.9069 125.033 17.7273C124.951 17.5476 124.818 17.3883 124.631 17.2434C124.444 17.1014 124.199 16.9623 123.894 16.8319C123.589 16.7015 123.214 16.545 122.767 16.3683C122.408 16.2263 122.066 16.0785 121.743 15.9307C121.42 15.7829 121.133 15.6091 120.885 15.412C120.637 15.215 120.438 14.9803 120.29 14.705C120.142 14.4297 120.067 14.0965 120.067 13.7024C120.067 12.9519 120.363 12.3434 120.952 11.8797C121.541 11.4161 122.353 11.1814 123.383 11.1814C124.042 11.1814 124.585 11.2365 125.014 11.3437C125.443 11.4509 125.745 11.5465 125.918 11.6305L125.637 12.6679C125.489 12.5955 125.235 12.4998 124.882 12.381C124.528 12.2622 124.009 12.2014 123.326 12.2014C123.051 12.2014 122.794 12.2275 122.553 12.2825C122.311 12.3376 122.096 12.4187 121.909 12.5346C121.722 12.6476 121.574 12.7925 121.462 12.9635C121.35 13.1344 121.296 13.3489 121.296 13.5981C121.296 13.8502 121.344 14.0646 121.444 14.2443C121.544 14.4239 121.689 14.5833 121.882 14.7195C122.075 14.8557 122.311 14.9861 122.589 15.1049C122.867 15.2237 123.187 15.3541 123.549 15.4961C123.921 15.638 124.28 15.7829 124.622 15.9307C124.963 16.0785 125.265 16.2582 125.525 16.4668C125.785 16.6754 125.996 16.9246 126.159 17.2173C126.319 17.51 126.401 17.8751 126.401 18.3155C126.401 19.1501 126.075 19.7817 125.422 20.2106C124.77 20.6395 123.879 20.8539 122.749 20.8539C121.903 20.8539 121.257 20.7844 120.81 20.6482C120.363 20.512 120.064 20.4077 119.916 20.3352L120.233 19.2804C120.269 19.3036 120.351 19.3442 120.474 19.3964C120.598 19.4485 120.767 19.5094 120.979 19.576C121.19 19.6427 121.441 19.6977 121.734 19.747C122.027 19.7962 122.365 19.8194 122.749 19.8194Z" fill="#FDFDFD"/>
<path d="M130.464 19.8744C130.464 20.1497 130.373 20.3815 130.195 20.5727C130.014 20.764 129.763 20.8596 129.44 20.8596C129.117 20.8596 128.866 20.764 128.685 20.5727C128.504 20.3815 128.416 20.1497 128.416 19.8744C128.416 19.5991 128.507 19.3673 128.685 19.176C128.866 18.9848 129.117 18.8892 129.44 18.8892C129.763 18.8892 130.014 18.9848 130.195 19.176C130.373 19.3673 130.464 19.5991 130.464 19.8744Z" fill="#FDFDFD"/>
<path d="M133.334 11.7232C133.693 11.6276 134.179 11.5204 134.786 11.4016C135.394 11.2828 136.14 11.2219 137.022 11.2219C137.756 11.2219 138.366 11.3233 138.858 11.5262C139.348 11.729 139.74 12.0188 140.033 12.3926C140.326 12.7693 140.535 13.2184 140.659 13.7429C140.783 14.2674 140.846 14.844 140.846 15.4757V20.6423H139.635V15.8524C139.635 15.1976 139.589 14.6441 139.496 14.1892C139.402 13.7371 139.248 13.3662 139.031 13.0793C138.813 12.7925 138.526 12.5867 138.173 12.4621C137.819 12.3375 137.375 12.2738 136.841 12.2738C136.27 12.2738 135.774 12.3028 135.36 12.3636C134.944 12.4245 134.675 12.4766 134.551 12.523V20.6394H133.34V11.7232H133.334Z" fill="#FDFDFD"/>
<path d="M146.377 20.8045C145.966 20.7929 145.61 20.7408 145.304 20.6538C144.999 20.564 144.746 20.4278 144.54 20.2424C144.335 20.0569 144.181 19.8193 144.075 19.5266C143.969 19.234 143.918 18.8689 143.918 18.4284V6.98542L145.129 6.771V18.3907C145.129 18.6776 145.156 18.9065 145.214 19.0804C145.271 19.2543 145.353 19.3904 145.465 19.4919C145.576 19.5933 145.721 19.6686 145.903 19.715C146.084 19.7643 146.298 19.8048 146.546 19.8396L146.377 20.8045Z" fill="#FDFDFD"/>
<path d="M152.058 18.6312C152.058 18.9644 152.001 19.26 151.889 19.5179C151.778 19.7758 151.626 19.996 151.439 20.1757C151.252 20.3553 151.034 20.4915 150.787 20.5871C150.539 20.6828 150.279 20.7291 150.01 20.7291C149.742 20.7291 149.482 20.6828 149.234 20.5871C148.986 20.4915 148.769 20.3553 148.582 20.1757C148.394 19.996 148.243 19.7758 148.132 19.5179C148.02 19.26 147.962 18.9644 147.962 18.6312C147.962 18.3038 148.02 18.0082 148.132 17.7474C148.243 17.4866 148.394 17.2664 148.582 17.0896C148.769 16.9129 148.986 16.7767 149.234 16.681C149.482 16.5854 149.742 16.5391 150.01 16.5391C150.279 16.5391 150.539 16.5854 150.787 16.681C151.034 16.7767 151.252 16.9129 151.439 17.0896C151.626 17.2664 151.778 17.4866 151.889 17.7474C152.001 18.0082 152.058 18.3038 152.058 18.6312ZM151.702 18.6312C151.702 18.3646 151.66 18.1212 151.575 17.901C151.491 17.6808 151.373 17.4924 151.225 17.3359C151.077 17.1795 150.898 17.0578 150.69 16.9737C150.482 16.8897 150.255 16.8462 150.01 16.8462C149.766 16.8462 149.539 16.8897 149.331 16.9737C149.122 17.0578 148.944 17.1795 148.796 17.3359C148.648 17.4924 148.53 17.6808 148.446 17.901C148.361 18.1212 148.319 18.3646 148.319 18.6312C148.319 18.8978 148.361 19.1412 148.446 19.3614C148.53 19.5816 148.648 19.77 148.796 19.9265C148.944 20.0829 149.122 20.2046 149.331 20.2916C149.539 20.3785 149.766 20.422 150.01 20.422C150.255 20.422 150.482 20.3785 150.69 20.2916C150.898 20.2046 151.077 20.0829 151.225 19.9265C151.373 19.77 151.491 19.5816 151.575 19.3614C151.66 19.1412 151.702 18.8978 151.702 18.6312ZM150.663 19.7787C150.557 19.5961 150.448 19.4252 150.337 19.26C150.225 19.0948 150.125 18.9644 150.041 18.8688C150.013 18.8717 149.986 18.8746 149.962 18.8746C149.938 18.8746 149.917 18.8746 149.896 18.8746H149.515V19.7787H149.183V17.5359C149.276 17.5156 149.379 17.5011 149.494 17.4895C149.609 17.4779 149.717 17.4721 149.817 17.4721C150.158 17.4721 150.421 17.533 150.599 17.6518C150.778 17.7706 150.868 17.9531 150.868 18.1965C150.868 18.3356 150.829 18.4602 150.747 18.5703C150.666 18.6805 150.548 18.7616 150.391 18.8167C150.424 18.8514 150.467 18.9036 150.521 18.976C150.575 19.0485 150.633 19.1267 150.693 19.2165C150.753 19.3064 150.814 19.3991 150.874 19.5005C150.935 19.6019 150.986 19.6947 151.031 19.7787H150.663ZM149.515 18.6138H149.817C149.917 18.6138 150.01 18.608 150.095 18.5964C150.18 18.5848 150.252 18.5617 150.315 18.5298C150.379 18.4979 150.427 18.4544 150.46 18.3994C150.494 18.3443 150.512 18.2748 150.512 18.1907C150.512 18.1096 150.494 18.0401 150.454 17.985C150.415 17.93 150.367 17.8836 150.303 17.8488C150.24 17.814 150.171 17.788 150.089 17.7735C150.007 17.759 149.923 17.7503 149.835 17.7503C149.775 17.7503 149.717 17.7503 149.663 17.7532C149.609 17.7561 149.56 17.759 149.515 17.7619V18.6138Z" fill="#FDFDFD"/>
<path d="M21.4548 4.40054V-0.0966797C20.0653 -0.093782 18.7966 0.146727 17.6759 0.590074C17.6699 0.592972 17.6608 0.595869 17.6548 0.598767V13.7949V13.7978C18.1018 12.2968 19.3887 11.3318 21.1286 11.326V7.00847C19.878 7.01136 18.7301 7.22289 17.7031 7.59959C17.972 5.68422 19.4128 4.40634 21.4548 4.40054Z" fill="#FDFDFD"/>
<path d="M12.601 8.44872C11.6646 7.19692 9.98814 6.39136 7.87971 6.39136C4.36366 6.39136 -0.0585938 8.86599 -0.0585938 14.7454C-0.0585938 19.5643 3.62662 23.0966 8.84935 23.0966C9.44744 23.0966 10.0214 23.0502 10.5741 22.9633V18.2458C10.0697 18.4747 9.48973 18.6022 8.84935 18.6022C6.57177 18.6022 5.03123 17.0288 5.03123 14.7483C5.03123 12.4678 6.57177 10.8944 8.84935 10.8944C10.8188 10.8944 12.2748 12.1607 12.6282 13.963V8.49508L12.601 8.44872Z" fill="#FDFDFD"/>
<path d="M14.4469 2.917C13.3896 4.21806 12.7281 5.90162 12.6284 7.88075V7.88365V8.49506V13.963V14.3165V22.4417V22.4446C13.3534 22.1577 14.0149 21.7868 14.6009 21.3347C15.5041 20.6422 16.2653 19.6773 16.803 18.5964C17.3406 17.5127 17.6548 16.313 17.6548 15.1482V13.7978V13.7949V0.598846V0.595947C16.365 1.10884 15.2745 1.89701 14.4469 2.917Z" fill="#FDFDFD"/>
</g>
<defs>
<clipPath id="clip0_99_3225">
<rect width="152" height="23" fill="white"/>
</clipPath>
</defs>
</svg>
