<svg width="816" height="302" viewBox="0 0 816 302" fill="none" xmlns="http://www.w3.org/2000/svg">
<g opacity="0.3">
<path d="M2.84412 58.1396H2.70869C2.57326 58.1396 2.43782 58.2748 2.30239 58.2748C2.16695 58.2748 2.03152 58.4101 1.89608 58.4101C1.76065 58.4101 1.76065 58.5453 1.62521 58.5453C1.48978 58.5453 1.48978 58.6806 1.35434 58.6806C1.21891 58.6806 1.21891 58.8158 1.08348 58.8158C0.948041 58.9511 0.948041 58.9511 0.812607 59.0863C0.677172 59.2216 0.677172 59.2216 0.541738 59.3569C0.270869 59.6274 0.135434 59.8979 0.135434 60.3036C0.135434 60.4389 0.135434 60.4389 0 60.5741C0 60.7094 0 60.7094 0 60.8446C0 61.1151 0 61.2504 0 61.5209C0 61.6562 0 61.9267 0 62.0619C0 62.1972 0.135434 62.4677 0.135434 62.6029L32.2334 152.005C32.6397 153.087 33.5878 154.034 34.8067 154.169C36.0256 154.439 37.2445 153.898 38.0571 152.952L56.7471 130.364L72.8638 131.852C74.2181 131.987 75.437 131.311 76.1142 130.094C76.3851 129.553 76.5205 129.012 76.5205 128.471C76.5205 127.795 76.2496 126.983 75.8433 126.442L68.1236 116.569L80.4481 101.691C80.9898 101.015 81.2607 100.338 81.2607 99.5269C81.2607 99.2564 81.2607 99.1211 81.2607 98.8506C80.9898 97.9038 80.4481 96.9571 79.5001 96.5513L5.01108 58.5453C4.87564 58.5453 4.74021 58.4101 4.60477 58.4101C4.19847 58.2748 3.79217 58.1396 3.38586 58.1396C3.11499 58.1396 2.97956 58.1396 2.84412 58.1396ZM36.5673 144.16L13.408 79.78L50.7879 126.983L36.5673 144.16ZM65.5503 124.413L61.7581 124.008L63.5188 121.844L65.5503 124.413ZM72.4575 100.609L55.1218 121.573L15.575 71.6648L72.4575 100.609Z" fill="#FF778D"/>
<path d="M1.21876 58.8159C1.21876 58.8159 1.08333 58.8159 1.21876 58.8159C1.08333 58.9513 1.08333 58.8159 1.21876 58.8159Z" fill="#FF778D"/>
<path d="M78.552 130.364C75.0307 134.287 75.9787 139.697 76.385 141.32C76.6559 142.672 77.0622 143.89 77.604 145.107C73.9472 144.025 71.5094 141.32 71.374 141.185C70.1551 139.832 67.9881 139.697 66.6338 140.914C65.2794 142.131 65.144 144.295 66.3629 145.648C67.0401 146.46 73.5409 153.493 82.8859 152.14H83.0213C87.3552 155.927 92.6372 157.956 94.8041 158.768C96.5648 159.444 98.4609 158.497 99.138 156.739C99.2735 156.333 99.2735 156.062 99.2735 155.657C99.2735 154.304 98.3254 152.952 96.9711 152.411C96.023 152.14 93.3144 151.058 90.4702 149.3C93.1789 147.542 95.4813 144.972 96.2939 141.59C97.5128 137.127 96.7002 131.311 92.0954 128.336C88.1678 125.631 82.0733 126.442 78.552 130.364ZM88.7096 134.016C90.7411 135.234 90.3348 138.615 89.9285 139.697C89.2513 142.131 87.2198 143.619 85.0529 144.431C83.9694 143.078 83.2922 141.59 82.8859 139.967C82.615 138.885 82.0733 136.18 83.4276 134.828C84.782 133.611 87.2198 133.07 88.7096 134.016Z" fill="#FF778D"/>
<path d="M115.526 168.776C115.526 169.588 115.255 170.399 114.578 171.075C113.359 172.428 111.192 172.563 109.837 171.346C107.264 168.911 105.91 167.559 105.774 167.559C104.42 166.206 104.42 164.042 105.774 162.825C107.129 161.473 109.296 161.473 110.515 162.825C110.515 162.825 111.869 164.178 114.307 166.477C115.119 166.883 115.526 167.829 115.526 168.776Z" fill="#FF778D"/>
<path d="M853.508 19.3222C853.508 19.9984 853.373 20.6747 852.966 21.2157C850.935 24.1913 848.903 27.3021 846.872 30.1424C845.788 31.6302 843.757 32.0359 842.132 31.0891C840.642 30.0071 840.236 27.9783 841.184 26.3553C843.215 23.3798 845.247 20.4042 847.278 17.4286C848.362 15.9409 850.393 15.3998 852.018 16.4819C852.966 17.1581 853.508 18.2401 853.508 19.3222ZM839.694 39.4748C839.694 40.1511 839.558 40.8273 839.017 41.3683C836.985 44.3439 834.818 47.3195 832.787 50.1598C831.703 51.6475 829.536 52.0533 828.047 50.9713C826.557 49.8892 826.15 47.7252 827.234 46.2374C829.265 43.3971 831.432 40.4216 833.464 37.446C834.547 35.9582 836.714 35.5525 838.204 36.6345C839.288 37.3108 839.694 38.3928 839.694 39.4748ZM825.473 59.2217C825.473 59.8979 825.202 60.5742 824.796 61.2505C822.629 64.226 820.462 67.0663 818.295 69.9066C817.212 71.3944 815.045 71.6649 813.555 70.5829C812.065 69.5009 811.794 67.3368 812.878 65.849C815.045 63.0087 817.212 60.1684 819.379 57.1929C820.462 55.7051 822.629 55.4346 824.119 56.5166C825.067 57.0576 825.473 58.1397 825.473 59.2217ZM810.846 78.5628C810.846 79.2391 810.576 80.0506 810.169 80.5916C807.867 83.4319 805.7 86.2722 803.397 89.1125C802.179 90.6003 800.147 90.8708 798.657 89.6535C797.167 88.4362 796.897 86.4074 798.116 84.9197C800.283 82.0794 802.585 79.239 804.752 76.3987C805.835 74.911 808.002 74.6405 809.492 75.8577C810.44 76.534 810.846 77.616 810.846 78.5628ZM795.678 97.6334C795.678 98.4449 795.407 99.1212 794.865 99.7974C792.563 102.638 790.26 105.343 787.958 108.183C786.739 109.671 784.572 109.806 783.218 108.589C781.728 107.372 781.593 105.208 782.811 103.855C785.114 101.15 787.416 98.3097 789.719 95.6046C790.938 94.1168 793.104 93.9816 794.459 95.1989C795.271 95.6046 795.678 96.5514 795.678 97.6334ZM779.967 116.163C779.967 116.975 779.696 117.786 779.155 118.327C776.717 121.032 774.414 123.737 771.977 126.442C770.758 127.795 768.591 127.93 767.236 126.713C765.882 125.495 765.747 123.331 766.966 121.979C769.403 119.274 771.706 116.569 774.144 113.864C775.363 112.511 777.53 112.241 778.884 113.593C779.561 114.269 779.967 115.216 779.967 116.163ZM763.715 134.287C763.715 135.098 763.444 135.91 762.767 136.586C760.329 139.291 757.756 141.861 755.318 144.431C753.964 145.783 751.932 145.783 750.578 144.566C749.224 143.214 749.224 141.185 750.443 139.832C752.88 137.262 755.318 134.693 757.892 131.988C759.11 130.635 761.277 130.5 762.632 131.852C763.309 132.393 763.715 133.34 763.715 134.287ZM746.786 151.87C746.786 152.681 746.515 153.628 745.838 154.304C743.265 156.874 740.691 159.444 738.118 162.014C736.764 163.366 734.597 163.231 733.378 162.014C732.023 160.661 732.159 158.497 733.378 157.28C735.951 154.845 738.524 152.275 740.962 149.706C742.317 148.353 744.484 148.353 745.702 149.706C746.515 150.111 746.786 150.923 746.786 151.87ZM729.315 168.776C729.315 169.723 728.909 170.535 728.231 171.211C725.658 173.645 722.949 176.215 720.241 178.65C718.886 179.867 716.719 179.867 715.501 178.379C714.282 177.027 714.282 174.863 715.771 173.645C718.345 171.211 721.053 168.776 723.627 166.342C724.981 165.124 727.148 165.124 728.367 166.477C729.044 167.153 729.315 167.965 729.315 168.776ZM711.302 185.142C711.302 186.089 710.896 187.035 710.083 187.712C707.374 190.011 704.53 192.445 701.822 194.745C700.332 195.962 698.3 195.691 697.081 194.339C695.862 192.851 696.133 190.822 697.488 189.605C700.196 187.306 703.04 185.007 705.614 182.572C706.968 181.355 709.135 181.49 710.354 182.843C711.031 183.519 711.302 184.33 711.302 185.142ZM692.612 200.696C692.612 201.643 692.206 202.725 691.393 203.401C688.549 205.7 685.705 207.999 682.861 210.164C681.371 211.246 679.204 210.975 678.121 209.487C677.037 207.999 677.308 205.835 678.798 204.753C681.642 202.589 684.486 200.425 687.33 198.126C688.82 196.909 690.987 197.179 692.07 198.667C692.341 199.208 692.612 199.884 692.612 200.696ZM673.245 215.438C673.245 216.52 672.703 217.467 671.891 218.143C668.911 220.307 665.931 222.336 662.952 224.5C661.462 225.582 659.295 225.177 658.212 223.689C657.128 222.201 657.535 220.037 659.024 218.955C662.004 216.926 664.848 214.762 667.828 212.733C669.317 211.651 671.484 211.922 672.568 213.41C672.974 214.086 673.245 214.762 673.245 215.438ZM653.201 229.234C653.201 230.316 652.659 231.398 651.711 232.074C648.596 234.103 645.616 235.997 642.501 237.89C640.876 238.837 638.845 238.431 637.897 236.808C636.948 235.185 637.355 233.156 638.98 232.21C641.96 230.316 645.075 228.423 648.054 226.394C649.679 225.312 651.711 225.853 652.794 227.341C653.065 228.017 653.201 228.558 653.201 229.234ZM632.479 242.083C632.479 243.3 631.937 244.382 630.854 245.059C627.739 246.952 624.488 248.71 621.374 250.469C619.748 251.416 617.717 250.739 616.769 249.116C615.821 247.493 616.498 245.464 618.123 244.518C621.238 242.759 624.353 241.001 627.468 239.243C629.093 238.296 631.125 238.837 632.073 240.46C632.344 241.001 632.479 241.542 632.479 242.083ZM611.216 253.85C611.216 255.067 610.539 256.285 609.32 256.826C606.069 258.449 602.819 260.072 599.569 261.695C597.943 262.506 595.912 261.83 595.099 260.072C594.287 258.449 594.964 256.42 596.724 255.608C599.975 253.985 603.09 252.498 606.34 250.739C607.965 249.928 609.997 250.469 610.945 252.227C611.081 252.768 611.216 253.309 611.216 253.85ZM589.276 264.4C589.276 265.752 588.463 266.97 587.244 267.511C583.858 268.998 580.608 270.486 577.222 271.839C575.461 272.515 573.565 271.703 572.753 270.08C572.075 268.322 572.888 266.429 574.513 265.617C577.764 264.265 581.149 262.777 584.4 261.424C586.161 260.613 588.057 261.424 588.869 263.183C589.14 263.588 589.276 263.994 589.276 264.4ZM566.793 273.732C566.793 275.085 565.981 276.437 564.626 276.843C561.241 278.196 557.719 279.413 554.333 280.63C552.573 281.306 550.677 280.36 550 278.601C549.322 276.843 550.27 274.949 552.031 274.273C555.417 273.056 558.803 271.839 562.053 270.621C563.814 269.945 565.71 270.892 566.387 272.65C566.658 272.921 566.793 273.326 566.793 273.732ZM543.77 281.712C543.77 283.2 542.822 284.552 541.332 284.958C537.81 286.04 534.289 287.122 530.903 288.069C529.143 288.61 527.247 287.528 526.705 285.77C526.163 284.011 527.247 282.118 529.007 281.577C532.393 280.63 535.914 279.548 539.3 278.601C541.061 278.06 542.957 279.007 543.499 280.765C543.77 281.036 543.77 281.306 543.77 281.712ZM520.339 288.204C520.339 289.692 519.256 291.18 517.766 291.45C514.245 292.262 510.724 293.073 507.067 293.885C505.171 294.291 503.41 293.073 503.004 291.315C502.597 289.557 503.816 287.663 505.577 287.257C509.098 286.581 512.62 285.77 516.005 284.823C517.766 284.417 519.662 285.499 520.069 287.257C520.204 287.663 520.339 287.934 520.339 288.204ZM496.503 293.073C496.503 294.696 495.284 296.049 493.659 296.455C490.138 297.131 486.481 297.672 482.824 298.213C480.928 298.483 479.303 297.266 479.032 295.373C478.761 293.479 479.98 291.856 481.876 291.586C485.397 291.045 488.919 290.504 492.44 289.963C494.336 289.692 496.097 290.909 496.367 292.668C496.367 292.668 496.503 292.938 496.503 293.073ZM472.396 296.455C472.396 298.213 471.041 299.565 469.416 299.836C465.759 300.242 462.103 300.512 458.581 300.918C456.685 301.053 455.06 299.701 454.924 297.807C454.789 295.914 456.143 294.291 458.039 294.155C461.561 293.885 465.218 293.479 468.739 293.209C470.635 293.073 472.26 294.291 472.531 296.184C472.26 296.184 472.396 296.319 472.396 296.455ZM448.017 298.348C448.017 300.106 446.663 301.594 444.767 301.729C441.11 301.865 437.453 302 433.797 302C431.901 302 430.411 300.512 430.411 298.619C430.411 296.725 431.901 295.237 433.797 295.237C437.318 295.237 440.975 295.102 444.496 294.967C446.392 294.832 447.882 296.319 448.017 298.213C448.017 298.213 448.017 298.213 448.017 298.348ZM423.639 298.619C423.639 300.512 422.014 302 420.118 302C416.461 301.865 412.804 301.729 409.148 301.594C407.252 301.459 405.897 299.971 405.897 298.078C406.033 296.184 407.522 294.832 409.419 294.832C412.94 294.967 416.597 295.102 420.118 295.237C422.285 295.237 423.639 296.725 423.639 298.619ZM399.396 297.266C399.396 297.401 399.396 297.401 399.396 297.537C399.261 299.43 397.636 300.783 395.74 300.647C392.083 300.377 388.426 299.971 384.905 299.565C383.009 299.295 381.654 297.672 381.925 295.778C382.196 293.885 383.821 292.532 385.717 292.803C389.239 293.209 392.895 293.614 396.417 293.885C398.042 294.02 399.396 295.508 399.396 297.266ZM375.154 294.426C375.154 294.561 375.154 294.696 375.154 294.967C374.883 296.86 373.122 298.078 371.361 297.807C367.84 297.266 364.183 296.725 360.527 296.049C358.631 295.778 357.412 294.02 357.818 292.127C358.089 290.233 359.85 289.016 361.746 289.422C365.267 289.963 368.788 290.639 372.309 291.18C373.935 291.45 375.154 292.803 375.154 294.426ZM351.182 290.233C351.182 290.504 351.182 290.639 351.046 290.909C350.64 292.803 348.879 293.885 346.983 293.479C343.462 292.803 339.805 291.991 336.284 291.18C334.523 290.774 333.304 288.881 333.711 287.122C334.117 285.364 336.013 284.147 337.774 284.552C341.295 285.364 344.816 286.175 348.202 286.852C350.098 287.257 351.182 288.745 351.182 290.233ZM327.481 284.688C327.481 284.958 327.481 285.229 327.345 285.499C326.803 287.257 325.043 288.339 323.147 287.934C319.625 286.987 316.104 286.04 312.583 284.958C310.822 284.417 309.739 282.524 310.28 280.765C310.822 279.007 312.718 277.925 314.479 278.466C317.865 279.413 321.386 280.495 324.772 281.306C326.533 281.847 327.481 283.2 327.481 284.688ZM304.05 277.79C304.05 278.196 304.05 278.466 303.915 278.872C303.373 280.63 301.477 281.577 299.717 281.036C296.331 279.954 292.809 278.737 289.424 277.519C287.663 276.843 286.715 274.949 287.392 273.191C288.069 271.433 289.965 270.486 291.726 271.162C295.112 272.38 298.498 273.462 301.884 274.544C303.238 274.949 304.05 276.302 304.05 277.79ZM281.162 269.675C281.162 270.08 281.027 270.486 280.891 270.892C280.214 272.65 278.318 273.462 276.557 272.785C273.171 271.433 269.786 270.216 266.4 268.728C264.639 268.052 263.826 266.023 264.504 264.265C265.181 262.506 267.212 261.695 268.973 262.371C272.223 263.724 275.609 265.076 278.995 266.293C280.349 266.97 281.162 268.322 281.162 269.675ZM258.544 260.477C258.544 260.883 258.409 261.424 258.274 261.83C257.461 263.588 255.565 264.265 253.804 263.588C250.554 262.1 247.168 260.613 243.918 259.125C242.157 258.313 241.48 256.285 242.292 254.662C243.105 252.903 245.136 252.227 246.762 253.039C250.012 254.526 253.263 256.014 256.513 257.502C257.867 257.908 258.544 259.125 258.544 260.477ZM236.469 250.063C236.469 250.604 236.333 251.145 236.062 251.551C235.25 253.174 233.218 253.85 231.458 253.039C228.207 251.416 224.957 249.793 221.706 248.169C220.081 247.358 219.404 245.329 220.217 243.571C221.029 241.948 223.061 241.272 224.821 242.083C227.936 243.706 231.187 245.329 234.437 246.952C235.791 247.628 236.469 248.846 236.469 250.063ZM214.935 238.837C214.935 239.378 214.799 239.919 214.528 240.46C213.58 242.083 211.549 242.624 209.924 241.813C206.809 240.054 203.558 238.296 200.443 236.403C198.818 235.456 198.276 233.427 199.224 231.804C200.172 230.181 202.204 229.64 203.829 230.587C206.944 232.345 210.059 234.103 213.174 235.862C214.257 236.538 214.935 237.62 214.935 238.837ZM193.807 226.529C193.807 227.07 193.671 227.746 193.265 228.287C192.317 229.91 190.15 230.316 188.66 229.369C185.545 227.476 182.43 225.582 179.451 223.554C177.826 222.607 177.419 220.443 178.367 218.82C179.315 217.197 181.482 216.791 183.107 217.738C186.087 219.631 189.202 221.525 192.182 223.418C193.265 224.365 193.807 225.447 193.807 226.529ZM173.356 213.41C173.356 214.086 173.221 214.762 172.814 215.303C171.731 216.791 169.699 217.332 168.074 216.25C165.095 214.221 161.98 212.192 159.136 210.164C157.646 209.081 157.239 206.917 158.323 205.43C159.406 203.942 161.438 203.536 163.063 204.618C165.907 206.647 169.022 208.676 172.002 210.705C172.814 211.246 173.356 212.328 173.356 213.41ZM153.312 199.479C153.312 200.155 153.041 200.831 152.635 201.507C151.551 202.995 149.384 203.401 147.895 202.184C144.915 200.02 142.071 197.856 139.227 195.691C137.737 194.609 137.466 192.445 138.55 190.958C139.633 189.47 141.8 189.199 143.29 190.281C146.134 192.445 148.978 194.609 151.958 196.774C152.906 197.315 153.312 198.397 153.312 199.479ZM134.08 184.601C134.08 185.412 133.809 186.089 133.268 186.765C132.049 188.253 130.017 188.388 128.527 187.306C125.683 185.007 122.839 182.707 120.13 180.408C118.641 179.191 118.505 177.027 119.724 175.674C120.943 174.186 123.11 174.051 124.464 175.268C127.173 177.568 129.882 179.867 132.726 182.166C133.674 182.572 134.08 183.519 134.08 184.601Z" fill="#FF778D"/>
</g>
</svg>
