<svg width="16" height="17" viewBox="0 0 16 17" fill="none" xmlns="http://www.w3.org/2000/svg">
<ellipse cx="8.12625" cy="8.5" rx="7.12625" ry="7.5" fill="white"/>
<path d="M8.39515 10.9007C8.35397 10.9448 8.27574 10.9668 8.16046 10.9668H7.77754C7.66225 10.9668 7.57991 10.9448 7.5305 10.9007C7.48932 10.8567 7.46874 10.7686 7.46874 10.6364C7.46874 10.0548 7.57991 9.60104 7.80225 9.27501C8.02458 8.94899 8.34162 8.64059 8.75336 8.34981C9.25568 7.99735 9.57684 7.733 9.71683 7.55677C10.0215 7.18669 10.1739 6.7373 10.1739 6.20861C10.1739 5.72398 10.0133 5.32747 9.69212 5.01906C9.37097 4.71066 8.91806 4.55646 8.33339 4.55646C7.78166 4.55646 7.34522 4.67982 7.02406 4.92654C6.7029 5.17326 6.44762 5.53454 6.25822 6.01036C6.20882 6.13372 6.15529 6.21302 6.09765 6.24827C6.04824 6.2747 5.96589 6.26589 5.8506 6.22183M8.39515 10.9007L8.47834 10.994C8.47975 10.9928 8.48115 10.9915 8.48253 10.9902M8.39515 10.9007L8.48647 10.9861C8.48517 10.9875 8.48386 10.9889 8.48253 10.9902M8.39515 10.9007C8.44456 10.8567 8.46926 10.7686 8.46926 10.6364C8.46926 10.3016 8.55161 10.0284 8.7163 9.81692C8.881 9.59663 9.11569 9.38075 9.42038 9.16928C9.42861 9.16046 9.52743 9.09438 9.71683 8.97102C9.91446 8.84766 10.0298 8.77276 10.0627 8.74632L5.079 5.56962M8.48253 10.9902C8.40342 11.0712 8.28006 11.0918 8.16046 11.0918H7.77754C7.65233 11.0918 7.53142 11.069 7.44731 10.994L7.43879 10.9864L7.43917 10.9861C7.39799 10.942 7.37542 10.8855 7.36245 10.83C7.34924 10.7735 7.34374 10.7081 7.34374 10.6364C7.34374 10.041 7.45724 9.55906 7.69897 9.20459C7.9317 8.86334 8.26054 8.54482 8.68125 8.2477L8.68156 8.24748C9.18542 7.89395 9.49182 7.63907 9.61895 7.47902L9.62031 7.47731L9.62033 7.47732C9.90466 7.13196 10.0489 6.7115 10.0489 6.20861C10.0489 5.75468 9.89985 5.39184 9.60554 5.10922C9.31424 4.82949 8.89621 4.68146 8.33339 4.68146C7.79934 4.68146 7.39282 4.80088 7.10021 5.02567C6.80105 5.25549 6.55761 5.59621 6.37436 6.05658L6.37426 6.05683C6.323 6.18482 6.25698 6.29736 6.16285 6.35491L6.15671 6.35867L6.15662 6.35848C6.10154 6.38795 6.04038 6.39164 5.98553 6.38577C5.92989 6.37982 5.86953 6.36286 5.80636 6.33874L5.80662 6.33884L5.8506 6.22183M8.48253 10.9902C8.57182 10.9071 8.59426 10.7707 8.59426 10.6364C8.59426 10.3223 8.67121 10.0783 8.81492 9.89373L8.81494 9.89374L8.81642 9.89177C8.9708 9.68527 9.19442 9.47826 9.49165 9.27197L9.5026 9.26436L9.50542 9.26135L9.51519 9.25435C9.5275 9.24574 9.54569 9.23337 9.57016 9.21701C9.61875 9.18451 9.68995 9.1377 9.78403 9.07642C9.97745 8.95569 10.1007 8.87608 10.1409 8.84381L10.141 8.84386L10.144 8.84128C10.1833 8.80761 10.2845 8.7253 10.4497 8.59269L10.4498 8.59273L10.4528 8.59016C10.617 8.44958 10.7355 8.33469 10.795 8.24973L10.7952 8.24983L10.7987 8.24408C10.8457 8.16878 10.9258 8.05282 11.0408 7.89461L11.0408 7.89464L11.0426 7.89201C11.1629 7.71742 11.2453 7.54962 11.2832 7.38937C11.3252 7.23607 11.3669 7.05294 11.4082 6.8405C11.451 6.62067 11.4723 6.39236 11.4723 6.15575C11.4723 5.33982 11.1924 4.65887 10.6311 4.12274C10.0673 3.5754 9.30457 3.308 8.35809 3.308C7.54425 3.308 6.85705 3.4943 6.3046 3.87531C5.7524 4.25614 5.34537 4.82425 5.079 5.56962M5.8506 6.22183L5.80598 6.3386M5.8506 6.22183L5.39357 6.05001C5.27005 6.00595 5.19182 5.95308 5.15888 5.8914C5.13418 5.82972 5.14653 5.7372 5.19594 5.61384L5.80598 6.3386M5.80598 6.3386L5.35054 6.16737C5.22081 6.12097 5.1044 6.05474 5.04862 5.95028L5.04214 5.93816L5.04284 5.93788C4.99908 5.82862 5.02849 5.69641 5.079 5.56962M5.80598 6.3386L5.079 5.56962M8.59348 13.2373L8.59358 13.2374L8.59764 13.233C8.72263 13.0993 8.76719 12.8805 8.76719 12.619V12.5132C8.76719 12.2517 8.72263 12.0329 8.59764 11.8992C8.47032 11.763 8.26011 11.7142 8.01223 11.7142H7.93812C7.69024 11.7142 7.48003 11.763 7.35271 11.8992C7.22772 12.0329 7.18316 12.2517 7.18316 12.5132V12.619C7.18316 12.8805 7.22772 13.0993 7.35271 13.233L7.3526 13.2331L7.35687 13.2373C7.48434 13.3613 7.6925 13.4048 7.93812 13.4048H8.01223C8.25785 13.4048 8.46601 13.3613 8.59348 13.2373ZM4.09521 14.8383C5.2878 15.6769 6.69062 16.125 8.12625 16.125C10.0515 16.125 11.8966 15.32 13.2559 13.8894C14.615 12.459 15.3775 10.5203 15.3775 8.5C15.3775 6.9933 14.953 5.51995 14.157 4.26623C13.361 3.01245 12.229 2.03424 10.9033 1.45632C9.57752 0.878365 8.11827 0.72703 6.71037 1.02177C5.30253 1.31649 4.01027 2.04378 2.99661 3.1106C1.98303 4.17735 1.29343 5.53571 1.01411 7.01361C0.734788 8.49149 0.878095 10.0234 1.42614 11.4159C1.9742 12.8084 2.90271 13.9997 4.09521 14.8383ZM4.73391 3.14573C5.73865 2.43918 6.91918 2.0625 8.12625 2.0625C9.74472 2.0625 11.2983 2.7391 12.4448 3.94572C13.5915 5.15255 14.2367 6.79067 14.2367 8.5C14.2367 9.7746 13.8776 11.0201 13.2053 12.0789C12.5331 13.1377 11.5783 13.9619 10.4625 14.4484C9.34675 14.9348 8.1194 15.0619 6.93538 14.8141C5.75131 14.5662 4.66274 13.9541 3.80773 13.0543C2.95265 12.1544 2.36966 11.007 2.13342 9.75707C1.89718 8.50709 2.01848 7.21151 2.48175 6.03442C2.945 4.85737 3.72909 3.85235 4.73391 3.14573Z" fill="#3B5998" stroke="white" stroke-width="0.25"/>
</svg>
